SplineFontDB: 3.2
FontName: Plexolas-BoldItalic
FullName: Plexolas Bold Italic
FamilyName: Plexolas
Weight: Bold
Copyright: 
Version: 1.0
ItalicAngle: -11
UnderlinePosition: -314
UnderlineWidth: 194
Ascent: 1521
Descent: 527
InvalidEm: 0
sfntRevision: 0x00010000
LayerCount: 2
Layer: 0 1 "Back" 1
Layer: 1 1 "Fore" 0
XUID: [1021 524 -1093598656 4100308]
StyleMap: 0x0021
FSType: 8
OS2Version: 3
OS2_WeightWidthSlopeOnly: 0
OS2_UseTypoMetrics: 0
CreationTime: 1069378214
ModificationTime: 1644162994
PfmFamily: 17
TTFWeight: 700
TTFWidth: 5
LineGap: 350
VLineGap: 0
Panose: 2 11 7 9 2 2 4 10 2 4
OS2TypoAscent: 1521
OS2TypoAOffset: 0
OS2TypoDescent: -527
OS2TypoDOffset: 0
OS2TypoLinegap: 350
OS2WinAscent: 1884
OS2WinAOffset: 0
OS2WinDescent: 514
OS2WinDOffset: 0
HheadAscent: 1521
HheadAOffset: 0
HheadDescent: -527
HheadDOffset: 0
OS2SubXSize: 1433
OS2SubYSize: 1331
OS2SubXOff: 0
OS2SubYOff: 286
OS2SupXSize: 1433
OS2SupYSize: 1331
OS2SupXOff: 0
OS2SupYOff: 976
OS2StrikeYSize: 194
OS2StrikeYPos: 512
OS2CapHeight: 1307
OS2XHeight: 1016
OS2FamilyClass: 2057
OS2Vendor: 'MS  '
OS2CodePages: 6000019f.dfd70000
OS2UnicodeRanges: e10002ff.4000fcff.00000009.00000000
Lookup: 1 0 0 "'rtla' Right to Left Alternates in Greek lookup 0" { "'rtla' Right to Left Alternates in Greek lookup 0 subtable"  } ['rtla' ('DFLT' <'dflt' > 'grek' <'dflt' > ) ]
Lookup: 254 0 0 "<11,2> Diagonal Fractions lookup 1" { "<11,2> Diagonal Fractions lookup 1 subtable"  } [<11,2> ('DFLT' <'dflt' > ) ]
Lookup: 1 0 0 "<11,2> Diagonal Fractions lookup 1 nested-substitutions 0" { "<11,2> Diagonal Fractions lookup 1 nested-substitutions 0 subtable"  } []
Lookup: 254 0 0 "<11,2> Diagonal Fractions lookup 3" { "<11,2> Diagonal Fractions lookup 3 subtable"  } [<11,2> ('DFLT' <'dflt' > ) ]
Lookup: 1 0 0 "<11,2> Diagonal Fractions lookup 3 nested-substitutions 0" { "<11,2> Diagonal Fractions lookup 3 nested-substitutions 0 subtable"  } []

StartChar: .notdef
Encoding: 65536 -1 0
Width: 1126
Flags: W
LayerCount: 2
Fore
SplineSet
940 8 m 1,0,-1
 1199 1300 l 1,1,-1
 244 1300 l 1,2,-1
 -16 8 l 1,3,-1
 940 8 l 1,0,-1
136 126 m 1,4,-1
 348 1182 l 1,5,-1
 1045 1181 l 1,6,-1
 833 126 l 1,7,-1
 136 126 l 1,4,-1
804.5 681 m 128,-1,9
 844 719 844 719 862 767 c 128,-1,10
 880 815 880 815 880 862.5 c 128,-1,11
 880 910 880 910 862.5 953.5 c 128,-1,12
 845 997 845 997 802 1032.5 c 128,-1,13
 759 1068 759 1068 685 1091 c 128,-1,14
 611 1114 611 1114 498 1114 c 2,15,-1
 461 1114 l 1,16,-1
 433 980 l 1,17,-1
 481 980 l 2,18,19
 609 980 609 980 668 939 c 0,20,21
 696 920 696 920 707 896.5 c 128,-1,22
 718 873 718 873 718 848 c 128,-1,23
 718 823 718 823 708.5 797 c 128,-1,24
 699 771 699 771 676.5 750.5 c 128,-1,25
 654 730 654 730 617 718 c 128,-1,26
 580 706 580 706 526 706 c 2,27,-1
 430 706 l 1,28,-1
 394 468 l 1,29,-1
 516 468 l 1,30,-1
 549 597 l 1,31,-1
 555 597 l 2,32,33
 642 597 642 597 703.5 620 c 128,-1,8
 765 643 765 643 804.5 681 c 128,-1,9
509.5 247 m 128,-1,35
 518 266 518 266 518 286.5 c 128,-1,36
 518 307 518 307 511.5 324 c 128,-1,37
 505 341 505 341 493 354 c 128,-1,38
 481 367 481 367 463.5 374.5 c 128,-1,39
 446 382 446 382 425.5 382 c 128,-1,40
 405 382 405 382 385.5 374 c 128,-1,41
 366 366 366 366 351 352 c 128,-1,42
 336 338 336 338 327 319.5 c 128,-1,43
 318 301 318 301 318 279 c 0,44,45
 318 240 318 240 344 213 c 128,-1,46
 370 186 370 186 412 186 c 0,47,48
 433 186 433 186 452 193 c 128,-1,49
 471 200 471 200 486 214 c 128,-1,34
 501 228 501 228 509.5 247 c 128,-1,35
EndSplineSet
EndChar

StartChar: exclam
Encoding: 33 33 4
Width: 1126
Flags: W
LayerCount: 2
Fore
SplineSet
445 414 m 1,0,-1
 639 414 l 1,1,-1
 876 1406 l 1,2,-1
 608 1406 l 1,3,-1
 445 414 l 1,0,-1
593.5 30 m 128,-1,5
 617 52 617 52 631.5 81 c 128,-1,6
 646 110 646 110 646 142 c 128,-1,7
 646 174 646 174 635 200.5 c 128,-1,8
 624 227 624 227 605 247 c 128,-1,9
 586 267 586 267 559 278.5 c 128,-1,10
 532 290 532 290 499.5 290 c 128,-1,11
 467 290 467 290 437 278 c 128,-1,12
 407 266 407 266 384 244.5 c 128,-1,13
 361 223 361 223 347.5 193.5 c 128,-1,14
 334 164 334 164 334 131.5 c 128,-1,15
 334 99 334 99 344 73 c 128,-1,16
 354 47 354 47 373 27 c 128,-1,17
 392 7 392 7 418.5 -4.5 c 128,-1,18
 445 -16 445 -16 477.5 -16 c 128,-1,19
 510 -16 510 -16 540 -4 c 128,-1,4
 570 8 570 8 593.5 30 c 128,-1,5
EndSplineSet
EndChar

StartChar: quotedbl
Encoding: 34 34 5
Width: 1126
Flags: W
LayerCount: 2
Fore
SplineSet
349 922 m 1,0,-1
 531 922 l 1,1,-1
 660 1406 l 1,2,-1
 415 1406 l 1,3,-1
 349 922 l 1,0,-1
759 922 m 1,4,-1
 940 922 l 1,5,-1
 1069 1406 l 1,6,-1
 824 1406 l 1,7,-1
 759 922 l 1,4,-1
EndSplineSet
EndChar

StartChar: numbersign
Encoding: 35 35 6
Width: 1126
Flags: W
LayerCount: 2
Fore
SplineSet
799 347 m 1,0,-1
 990 348 l 1,1,-1
 1023 516 l 1,2,-1
 850 516 l 1,3,-1
 941 818 l 1,4,-1
 1137 818 l 1,5,-1
 1170 986 l 1,6,-1
 991 986 l 1,7,-1
 1086 1300 l 1,8,-1
 906 1300 l 1,9,-1
 811 986 l 1,10,-1
 564 986 l 1,11,-1
 659 1300 l 1,12,-1
 479 1300 l 1,13,-1
 384 986 l 1,14,-1
 196 986 l 1,15,-1
 163 818 l 1,16,-1
 334 818 l 1,17,-1
 243 516 l 1,18,-1
 49 516 l 1,19,-1
 16 348 l 1,20,-1
 193 348 l 1,21,-1
 90 8 l 1,22,-1
 270 8 l 1,23,-1
 372 348 l 1,24,-1
 621 347 l 1,25,-1
 517 8 l 1,26,-1
 697 8 l 1,27,-1
 799 347 l 1,0,-1
670 516 m 1,28,-1
 423 516 l 1,29,-1
 514 818 l 1,30,-1
 761 817 l 1,31,-1
 670 516 l 1,28,-1
EndSplineSet
EndChar

StartChar: dollar
Encoding: 36 36 7
Width: 1126
Flags: W
LayerCount: 2
Fore
SplineSet
721 471 m 0,0,1
 746 439 746 439 746 397 c 0,2,3
 746 312 746 312 684 264 c 128,-1,4
 622 216 622 216 509 204 c 1,5,-1
 497 202 l 1,6,-1
 611 538 l 1,7,8
 657 522 657 522 682 506 c 128,-1,9
 707 490 707 490 721 471 c 0,0,1
219.5 1066.5 m 128,-1,11
 186 1001 186 1001 186 928 c 0,12,13
 186 868 186 868 202.5 820.5 c 128,-1,14
 219 773 219 773 252.5 733.5 c 128,-1,15
 286 694 286 694 338.5 661 c 128,-1,16
 391 628 391 628 470 594 c 1,17,-1
 337 205 l 1,18,19
 163 223 163 223 49 262 c 1,20,-1
 5 58 l 1,21,22
 114 24 114 24 261 11 c 1,23,-1
 270 11 l 1,24,-1
 183 -240 l 1,25,-1
 343 -240 l 1,26,-1
 431 9 l 1,27,28
 552 11 552 11 655.5 39.5 c 128,-1,29
 759 68 759 68 835.5 121 c 128,-1,30
 912 174 912 174 957 250.5 c 128,-1,31
 1002 327 1002 327 1002 426 c 0,32,33
 1002 486 1002 486 985 531 c 0,34,35
 951 620 951 620 836 684 c 0,36,37
 778 717 778 717 691 754 c 1,38,-1
 812 1106 l 1,39,40
 875 1099 875 1099 930.5 1092 c 128,-1,41
 986 1085 986 1085 1034 1072 c 1,42,-1
 1074 1258 l 1,43,44
 995 1278 995 1278 879 1289 c 1,45,-1
 951 1502 l 1,46,-1
 789 1502 l 1,47,-1
 718 1298 l 1,48,49
 583 1295 583 1295 484.5 1263.5 c 128,-1,50
 386 1232 386 1232 319.5 1182 c 128,-1,10
 253 1132 253 1132 219.5 1066.5 c 128,-1,11
457 872.5 m 128,-1,52
 432 907 432 907 432 946 c 0,53,54
 432 1015 432 1015 486.5 1056 c 128,-1,55
 541 1097 541 1097 640 1107 c 1,56,-1
 652 1109 l 1,57,-1
 552 809 l 1,58,-1
 544 812 l 2,59,51
 482 838 482 838 457 872.5 c 128,-1,52
EndSplineSet
Substitution2: "<21,0> Lower Case Numbers lookup 7 subtable" dollar.oldstyle
EndChar

StartChar: percent
Encoding: 37 37 8
Width: 1126
Flags: W
LayerCount: 2
Fore
SplineSet
1106 1406 m 1,0,-1
 -91 8 l 1,1,-1
 98 8 l 1,2,-1
 1296 1406 l 1,3,-1
 1106 1406 l 1,0,-1
692 1139.5 m 128,-1,5
 698 1179 698 1179 698 1206 c 0,6,7
 698 1313 698 1313 639 1368.5 c 128,-1,8
 580 1424 580 1424 477 1424 c 0,9,10
 411 1424 411 1424 362.5 1404.5 c 128,-1,11
 314 1385 314 1385 278.5 1352 c 128,-1,12
 243 1319 243 1319 219 1278 c 128,-1,13
 195 1237 195 1237 180.5 1195 c 128,-1,14
 166 1153 166 1153 160 1113.5 c 128,-1,15
 154 1074 154 1074 154 1047 c 0,16,17
 154 940 154 940 212.5 884 c 128,-1,18
 271 828 271 828 375 828 c 0,19,20
 440 828 440 828 489 848 c 128,-1,21
 538 868 538 868 573.5 901 c 128,-1,22
 609 934 609 934 633 975 c 128,-1,23
 657 1016 657 1016 671.5 1058 c 128,-1,4
 686 1100 686 1100 692 1139.5 c 128,-1,5
519 1258 m 0,24,25
 534 1234 534 1234 534 1194 c 0,26,27
 534 1162 534 1162 524 1117 c 0,28,29
 512 1054 512 1054 486 1017 c 0,30,31
 470 995 470 995 447.5 980.5 c 128,-1,32
 425 966 425 966 395 966 c 0,33,34
 353 966 353 966 333 995 c 0,35,36
 318 1019 318 1019 318 1059 c 0,37,38
 318 1091 318 1091 328 1136 c 0,39,40
 340 1199 340 1199 366 1236 c 0,41,42
 382 1258 382 1258 404.5 1273 c 128,-1,43
 427 1288 427 1288 457 1288 c 0,44,45
 499 1288 499 1288 519 1258 c 0,24,25
1044 300 m 128,-1,47
 1050 339 1050 339 1050 367 c 0,48,49
 1050 473 1050 473 991.5 528.5 c 128,-1,50
 933 584 933 584 829 584 c 0,51,52
 763 584 763 584 714.5 564.5 c 128,-1,53
 666 545 666 545 630.5 512.5 c 128,-1,54
 595 480 595 480 571.5 439 c 128,-1,55
 548 398 548 398 533.5 355.5 c 128,-1,56
 519 313 519 313 513.5 274 c 128,-1,57
 508 235 508 235 508 207 c 0,58,59
 508 100 508 100 566 45 c 128,-1,60
 624 -10 624 -10 727 -10 c 0,61,62
 792 -10 792 -10 841 9.5 c 128,-1,63
 890 29 890 29 925.5 61.5 c 128,-1,64
 961 94 961 94 985 135 c 128,-1,65
 1009 176 1009 176 1023.5 218.5 c 128,-1,46
 1038 261 1038 261 1044 300 c 128,-1,47
871 418 m 0,66,67
 886 394 886 394 886 354 c 0,68,69
 886 322 886 322 877 277 c 0,70,71
 857 177 857 177 801 140 c 0,72,73
 778 126 778 126 748 126 c 0,74,75
 705 126 705 126 686 155 c 0,76,77
 670 179 670 179 670 219 c 0,78,79
 670 251 670 251 680 296 c 0,80,81
 692 359 692 359 718 396 c 0,82,83
 734 418 734 418 756.5 433 c 128,-1,84
 779 448 779 448 809 448 c 0,85,86
 852 448 852 448 871 418 c 0,66,67
EndSplineSet
EndChar

StartChar: ampersand
Encoding: 38 38 9
Width: 1126
Flags: W
LayerCount: 2
Fore
SplineSet
986 1133 m 0,0,1
 986 1182 986 1182 968 1229 c 128,-1,2
 950 1276 950 1276 911 1313.5 c 128,-1,3
 872 1351 872 1351 812 1374.5 c 128,-1,4
 752 1398 752 1398 663.5 1398 c 128,-1,5
 575 1398 575 1398 497.5 1368 c 128,-1,6
 420 1338 420 1338 363.5 1284 c 128,-1,7
 307 1230 307 1230 275.5 1155.5 c 128,-1,8
 244 1081 244 1081 244 993 c 0,9,10
 244 942 244 942 261.5 883 c 128,-1,11
 279 824 279 824 314 768 c 1,12,-1
 327 742 l 1,13,14
 256 701 256 701 197.5 657.5 c 128,-1,15
 139 614 139 614 95 561.5 c 128,-1,16
 51 509 51 509 24.5 444.5 c 128,-1,17
 -2 380 -2 380 -2 299 c 0,18,19
 -2 232 -2 232 19.5 175 c 128,-1,20
 41 118 41 118 87.5 76 c 128,-1,21
 134 34 134 34 206.5 9 c 128,-1,22
 279 -16 279 -16 378 -16 c 0,23,24
 571 -16 571 -16 721 90 c 1,25,-1
 727 95 l 1,26,-1
 782 8 l 1,27,-1
 1039 8 l 1,28,-1
 886 252 l 1,29,30
 1017 434 1017 434 1068 674 c 1,31,-1
 858 674 l 1,32,33
 836 549 836 549 783 441 c 2,34,-1
 777 428 l 1,35,-1
 605 708 l 1,36,37
 683 749 683 749 750 789.5 c 128,-1,38
 817 830 817 830 869.5 879.5 c 128,-1,39
 922 929 922 929 954 990.5 c 128,-1,40
 986 1052 986 1052 986 1133 c 0,0,1
230 322 m 0,41,42
 230 445 230 445 338 541 c 0,43,44
 370 570 370 570 416 601 c 1,45,-1
 635 248 l 1,46,-1
 630 244 l 2,47,48
 527 166 527 166 403 166 c 0,49,50
 315 166 315 166 272.5 209 c 128,-1,51
 230 252 230 252 230 322 c 0,41,42
766 1108 m 0,52,53
 766 1065 766 1065 746.5 1029 c 128,-1,54
 727 993 727 993 694.5 962.5 c 128,-1,55
 662 932 662 932 618.5 904.5 c 128,-1,56
 575 877 575 877 519 846 c 1,57,58
 481 909 481 909 470.5 951 c 128,-1,59
 460 993 460 993 460 1022 c 0,60,61
 460 1069 460 1069 475.5 1106 c 128,-1,62
 491 1143 491 1143 516.5 1169.5 c 128,-1,63
 542 1196 542 1196 575 1210 c 128,-1,64
 608 1224 608 1224 645 1224 c 0,65,66
 704 1224 704 1224 735 1194 c 128,-1,67
 766 1164 766 1164 766 1108 c 0,52,53
EndSplineSet
EndChar

StartChar: quotesingle
Encoding: 39 39 10
Width: 1126
Flags: W
LayerCount: 2
Fore
SplineSet
548 922 m 1,0,-1
 742 922 l 1,1,-1
 871 1406 l 1,2,-1
 613 1406 l 1,3,-1
 548 922 l 1,0,-1
EndSplineSet
EndChar

StartChar: parenleft
Encoding: 40 40 11
Width: 1126
Flags: W
LayerCount: 2
Fore
SplineSet
262 326 m 0,0,1
 262 119 262 119 345.5 -66.5 c 128,-1,2
 429 -252 429 -252 581 -410 c 1,3,-1
 734 -282 l 1,4,5
 682 -222 682 -222 636.5 -150 c 128,-1,6
 591 -78 591 -78 558 2 c 0,7,8
 488 171 488 171 488 340 c 0,9,10
 488 442 488 442 514 562.5 c 128,-1,11
 540 683 540 683 605 813.5 c 128,-1,12
 670 944 670 944 781 1078.5 c 128,-1,13
 892 1213 892 1213 1060 1342 c 1,14,-1
 949 1481 l 1,15,16
 758 1346 758 1346 626.5 1198 c 128,-1,17
 495 1050 495 1050 413.5 899 c 128,-1,18
 332 748 332 748 297 602 c 128,-1,19
 262 456 262 456 262 326 c 0,0,1
EndSplineSet
Substitution2: "<10,2> Inferiors lookup 6 subtable" uni208D
Substitution2: "<10,1> Superiors in Latin lookup 5 subtable" uni207D
Substitution2: "'rtla' Right to Left Alternates in Greek lookup 0 subtable" parenright
EndChar

StartChar: parenright
Encoding: 41 41 12
Width: 1126
Flags: W
LayerCount: 2
Fore
SplineSet
878 745 m 0,0,1
 878 952 878 952 794 1137.5 c 128,-1,2
 710 1323 710 1323 558 1481 c 1,3,-1
 404 1353 l 1,4,5
 456 1293 456 1293 501.5 1221 c 128,-1,6
 547 1149 547 1149 580 1069 c 128,-1,7
 613 989 613 989 631.5 903.5 c 128,-1,8
 650 818 650 818 650 731 c 0,9,10
 650 629 650 629 624.5 508 c 128,-1,11
 599 387 599 387 533.5 257 c 128,-1,12
 468 127 468 127 357.5 -7.5 c 128,-1,13
 247 -142 247 -142 79 -271 c 1,14,-1
 189 -410 l 1,15,16
 380 -275 380 -275 512 -127 c 128,-1,17
 644 21 644 21 725.5 172 c 128,-1,18
 807 323 807 323 842.5 469 c 128,-1,19
 878 615 878 615 878 745 c 0,0,1
EndSplineSet
Substitution2: "<10,2> Inferiors lookup 6 subtable" uni208E
Substitution2: "<10,1> Superiors in Latin lookup 5 subtable" uni207E
Substitution2: "'rtla' Right to Left Alternates in Greek lookup 0 subtable" parenleft
EndChar

StartChar: asterisk
Encoding: 42 42 13
Width: 1126
Flags: W
LayerCount: 2
Fore
SplineSet
559 556 m 1,0,-1
 752 556 l 1,1,-1
 724 874 l 1,2,-1
 981 689 l 1,3,-1
 1074 849 l 1,4,-1
 793 981 l 1,5,-1
 1073 1113 l 1,6,-1
 983 1273 l 1,7,-1
 724 1088 l 1,8,-1
 754 1406 l 1,9,-1
 561 1406 l 1,10,-1
 591 1088 l 1,11,-1
 332 1273 l 1,12,-1
 238 1113 l 1,13,-1
 534 981 l 1,14,-1
 240 849 l 1,15,-1
 330 689 l 1,16,-1
 591 874 l 1,17,-1
 559 556 l 1,0,-1
EndSplineSet
EndChar

StartChar: plus
Encoding: 43 43 14
Width: 1126
Flags: W
LayerCount: 2
Fore
SplineSet
656 451 m 1,0,-1
 1029 452 l 1,1,-1
 1067 638 l 1,2,-1
 694 638 l 1,3,-1
 771 1024 l 1,4,-1
 561 1024 l 1,5,-1
 484 638 l 1,6,-1
 111 638 l 1,7,-1
 73 452 l 1,8,-1
 446 452 l 1,9,-1
 369 62 l 1,10,-1
 579 62 l 1,11,-1
 656 451 l 1,0,-1
EndSplineSet
Substitution2: "<10,2> Inferiors lookup 6 subtable" uni208A
Substitution2: "<10,1> Superiors in Latin lookup 5 subtable" uni207A
EndChar

StartChar: comma
Encoding: 44 44 15
Width: 1126
Flags: W
LayerCount: 2
Fore
SplineSet
670 164 m 0,0,1
 670 208 670 208 659.5 245 c 128,-1,2
 649 282 649 282 627.5 309 c 128,-1,3
 606 336 606 336 574 351 c 128,-1,4
 542 366 542 366 501.5 366 c 128,-1,5
 461 366 461 366 428.5 352 c 128,-1,6
 396 338 396 338 373.5 314 c 128,-1,7
 351 290 351 290 338.5 258 c 128,-1,8
 326 226 326 226 326 190 c 128,-1,9
 326 154 326 154 337 129 c 128,-1,10
 348 104 348 104 361 83.5 c 128,-1,11
 374 63 374 63 385 41.5 c 128,-1,12
 396 20 396 20 396 -8 c 0,13,14
 396 -45 396 -45 371.5 -80.5 c 128,-1,15
 347 -116 347 -116 302.5 -143 c 128,-1,16
 258 -170 258 -170 199 -185.5 c 128,-1,17
 140 -201 140 -201 72 -201 c 0,18,19
 67 -201 67 -201 62 -201 c 1,20,-1
 62 -344 l 1,21,22
 184 -343 184 -343 294.5 -307.5 c 128,-1,23
 405 -272 405 -272 489 -205.5 c 128,-1,24
 573 -139 573 -139 621.5 -45.5 c 128,-1,25
 670 48 670 48 670 164 c 0,0,1
EndSplineSet
EndChar

StartChar: hyphen
Encoding: 45 45 16
AltUni2: 002010.ffffffff.0 0000ad.ffffffff.0
Width: 1126
Flags: W
LayerCount: 2
Fore
SplineSet
894 645 m 1,0,-1
 287 645 l 1,1,-1
 245 443 l 1,2,-1
 852 443 l 1,3,-1
 894 645 l 1,0,-1
EndSplineSet
EndChar

StartChar: period
Encoding: 46 46 17
Width: 1126
Flags: W
LayerCount: 2
Fore
SplineSet
570.5 347 m 128,-1,1
 537 362 537 362 498.5 362 c 128,-1,2
 460 362 460 362 424.5 347 c 128,-1,3
 389 332 389 332 362.5 305 c 128,-1,4
 336 278 336 278 320 241.5 c 128,-1,5
 304 205 304 205 304 162 c 0,6,7
 304 128 304 128 317.5 95.5 c 128,-1,8
 331 63 331 63 354.5 38.5 c 128,-1,9
 378 14 378 14 410.5 -1 c 128,-1,10
 443 -16 443 -16 482 -16 c 128,-1,11
 521 -16 521 -16 557 -1 c 128,-1,12
 593 14 593 14 620 41 c 128,-1,13
 647 68 647 68 662.5 104 c 128,-1,14
 678 140 678 140 678 179 c 128,-1,15
 678 218 678 218 665 250.5 c 128,-1,16
 652 283 652 283 628 307.5 c 128,-1,0
 604 332 604 332 570.5 347 c 128,-1,1
EndSplineSet
EndChar

StartChar: slash
Encoding: 47 47 18
Width: 1126
Flags: W
LayerCount: 2
Fore
SplineSet
-68 -208 m 1,0,-1
 164 -208 l 1,1,-1
 1180 1406 l 1,2,-1
 948 1406 l 1,3,-1
 -68 -208 l 1,0,-1
EndSplineSet
Substitution2: "<11,2> Diagonal Fractions lookup 1 nested-substitutions 0 subtable" fraction
EndChar

StartChar: zero
Encoding: 48 48 19
Width: 1126
Flags: W
LayerCount: 2
Fore
SplineSet
299.5 11 m 128,-1,1
 371 -16 371 -16 459 -16 c 0,2,3
 586 -16 586 -16 684.5 27.5 c 128,-1,4
 783 71 783 71 856 143 c 128,-1,5
 929 215 929 215 978.5 307.5 c 128,-1,6
 1028 400 1028 400 1059 499.5 c 128,-1,7
 1090 599 1090 599 1103 696.5 c 128,-1,8
 1116 794 1116 794 1116 874 c 0,9,10
 1116 989 1116 989 1088 1073 c 0,11,12
 1031 1240 1031 1240 886 1294 c 0,13,14
 814 1322 814 1322 727 1322 c 0,15,16
 600 1322 600 1322 501.5 1278.5 c 128,-1,17
 403 1235 403 1235 330 1163 c 128,-1,18
 257 1091 257 1091 207 998.5 c 128,-1,19
 157 906 157 906 126 807 c 128,-1,20
 95 708 95 708 81.5 610 c 128,-1,21
 68 512 68 512 68 432 c 0,22,23
 68 317 68 317 97 233 c 128,-1,24
 126 149 126 149 177 93.5 c 128,-1,0
 228 38 228 38 299.5 11 c 128,-1,1
312 583 m 1,25,-1
 315 599 l 1,26,27
 328 696 328 696 358 791.5 c 128,-1,28
 388 887 388 887 434.5 964 c 128,-1,29
 481 1041 481 1041 545 1089.5 c 128,-1,30
 609 1138 609 1138 690 1138 c 128,-1,31
 771 1138 771 1138 819 1090.5 c 128,-1,32
 867 1043 867 1043 879 947 c 1,33,-1
 880 942 l 1,34,-1
 312 583 l 1,25,-1
596 191 m 0,35,36
 550 168 550 168 496 168 c 0,37,38
 332 168 332 168 306 359 c 1,39,-1
 305 364 l 1,40,-1
 874 724 l 1,41,42
 861 642 861 642 845 578 c 0,43,44
 810 443 810 443 750 342 c 0,45,46
 685 233 685 233 596 191 c 0,35,36
EndSplineSet
Substitution2: "<21,0> Lower Case Numbers lookup 7 subtable" zero.oldstyle
Substitution2: "<10,2> Inferiors lookup 6 subtable" uni2080
EndChar

StartChar: one
Encoding: 49 49 20
Width: 1126
Flags: W
LayerCount: 2
Fore
SplineSet
604 1070 m 1,0,-1
 432 209 l 1,1,-1
 98 210 l 1,2,-1
 58 8 l 1,3,-1
 914 8 l 1,4,-1
 954 210 l 1,5,-1
 667 209 l 1,6,-1
 886 1308 l 1,7,-1
 680 1308 l 1,8,-1
 228 1092 l 1,9,-1
 275 908 l 1,10,-1
 604 1070 l 1,0,-1
EndSplineSet
Substitution2: "<21,0> Lower Case Numbers lookup 7 subtable" one.oldstyle
Substitution2: "<10,2> Inferiors lookup 6 subtable" uni2081
EndChar

StartChar: two
Encoding: 50 50 21
Width: 1126
Flags: W
LayerCount: 2
Fore
SplineSet
949 218 m 1,0,-1
 395 218 l 1,1,-1
 636 412 l 2,2,3
 757 507 757 507 837.5 586 c 128,-1,4
 918 665 918 665 966 736 c 128,-1,5
 1014 807 1014 807 1034 874 c 128,-1,6
 1054 941 1054 941 1054 1013.5 c 128,-1,7
 1054 1086 1054 1086 1027.5 1143.5 c 128,-1,8
 1001 1201 1001 1201 953 1240.5 c 128,-1,9
 905 1280 905 1280 838 1301 c 128,-1,10
 771 1322 771 1322 688 1322 c 0,11,12
 562 1322 562 1322 452.5 1275.5 c 128,-1,13
 343 1229 343 1229 246 1154 c 1,14,-1
 359 1000 l 1,15,16
 429 1053 429 1053 498.5 1086.5 c 128,-1,17
 568 1120 568 1120 646 1120 c 128,-1,18
 724 1120 724 1120 761 1078 c 128,-1,19
 798 1036 798 1036 798 973 c 0,20,21
 798 925 798 925 783.5 878.5 c 128,-1,22
 769 832 769 832 729 777 c 128,-1,23
 689 722 689 722 619 653.5 c 128,-1,24
 549 585 549 585 439 494 c 2,25,-1
 70 186 l 1,26,-1
 36 8 l 1,27,-1
 907 8 l 1,28,-1
 949 218 l 1,0,-1
EndSplineSet
Substitution2: "<21,0> Lower Case Numbers lookup 7 subtable" two.oldstyle
Substitution2: "<10,2> Inferiors lookup 6 subtable" uni2082
EndChar

StartChar: three
Encoding: 51 51 22
Width: 1126
Flags: W
LayerCount: 2
Fore
SplineSet
655 248 m 0,0,1
 558 178 558 178 373 178 c 0,2,3
 213 178 213 178 84 202 c 1,4,-1
 46 6 l 1,5,6
 115 -6 115 -6 255 -11 c 0,7,8
 294 -12 294 -12 328 -12 c 0,9,10
 470 -12 470 -12 574.5 10.5 c 128,-1,11
 679 33 679 33 753 70.5 c 128,-1,12
 827 108 827 108 873.5 155.5 c 128,-1,13
 920 203 920 203 946 254 c 128,-1,14
 972 305 972 305 982 355 c 128,-1,15
 992 405 992 405 992 446 c 0,16,17
 992 537 992 537 935.5 599.5 c 128,-1,18
 879 662 879 662 777 679 c 2,19,-1
 746 684 l 1,20,-1
 776 693 l 2,21,22
 844 715 844 715 894 751.5 c 128,-1,23
 944 788 944 788 977 834.5 c 128,-1,24
 1010 881 1010 881 1027 935 c 128,-1,25
 1044 989 1044 989 1044 1048 c 128,-1,26
 1044 1107 1044 1107 1019 1157 c 128,-1,27
 994 1207 994 1207 946 1243.5 c 128,-1,28
 898 1280 898 1280 825.5 1301 c 128,-1,29
 753 1322 753 1322 661.5 1322 c 128,-1,30
 570 1322 570 1322 487 1309 c 128,-1,31
 404 1296 404 1296 312 1268 c 1,32,-1
 312 1083 l 1,33,34
 392 1106 392 1106 462.5 1119 c 128,-1,35
 533 1132 533 1132 612 1132 c 0,36,37
 714 1132 714 1132 760 1094 c 0,38,39
 782 1077 782 1077 790 1054 c 128,-1,40
 798 1031 798 1031 798 1006 c 0,41,42
 798 948 798 948 774.5 902 c 128,-1,43
 751 856 751 856 706 824 c 0,44,45
 615 760 615 760 457 760 c 2,46,-1
 354 760 l 1,47,-1
 318 590 l 1,48,-1
 461 590 l 2,49,50
 616 590 616 590 687 542 c 0,51,52
 720 520 720 520 733 491.5 c 128,-1,53
 746 463 746 463 746 432 c 0,54,55
 746 376 746 376 723.5 329 c 128,-1,56
 701 282 701 282 655 248 c 0,0,1
EndSplineSet
Substitution2: "<21,0> Lower Case Numbers lookup 7 subtable" three.oldstyle
Substitution2: "<10,2> Inferiors lookup 6 subtable" uni2083
EndChar

StartChar: four
Encoding: 52 52 23
Width: 1126
Flags: W
LayerCount: 2
Fore
SplineSet
776 8 m 1,0,-1
 830 273 l 1,1,-1
 1028 274 l 1,2,-1
 1068 474 l 1,3,-1
 870 473 l 1,4,-1
 1035 1300 l 1,5,-1
 700 1300 l 1,6,-1
 38 478 l 1,7,-1
 -1 274 l 1,8,-1
 607 273 l 1,9,-1
 554 8 l 1,10,-1
 776 8 l 1,0,-1
653 474 m 1,11,-1
 265 474 l 1,12,-1
 777 1099 l 1,13,-1
 653 474 l 1,11,-1
EndSplineSet
Substitution2: "<21,0> Lower Case Numbers lookup 7 subtable" four.oldstyle
Substitution2: "<10,2> Inferiors lookup 6 subtable" uni2084
EndChar

StartChar: five
Encoding: 53 53 24
Width: 1126
Flags: W
LayerCount: 2
Fore
SplineSet
943.5 296 m 128,-1,1
 984 389 984 389 984 498 c 0,2,3
 984 578 984 578 952 635 c 0,4,5
 889 750 889 750 723 786 c 0,6,7
 640 804 640 804 539 804 c 2,8,-1
 458 804 l 1,9,-1
 514 1084 l 1,10,-1
 1041 1084 l 1,11,-1
 1085 1300 l 1,12,-1
 346 1300 l 1,13,-1
 210 620 l 1,14,-1
 457 620 l 2,15,16
 683 620 683 620 724 519 c 0,17,18
 736 488 736 488 736 453 c 0,19,20
 736 400 736 400 714.5 350.5 c 128,-1,21
 693 301 693 301 648.5 262.5 c 128,-1,22
 604 224 604 224 534 201 c 128,-1,23
 464 178 464 178 369 178 c 0,24,25
 291 178 291 178 222.5 186.5 c 128,-1,26
 154 195 154 195 102 208 c 1,27,-1
 62 10 l 1,28,29
 122 0 122 0 176 -4 c 0,30,31
 281 -13 281 -13 334 -12 c 0,32,33
 497 -12 497 -12 619 27 c 128,-1,34
 741 66 741 66 822 134.5 c 128,-1,0
 903 203 903 203 943.5 296 c 128,-1,1
EndSplineSet
Substitution2: "<21,0> Lower Case Numbers lookup 7 subtable" five.oldstyle
Substitution2: "<10,2> Inferiors lookup 6 subtable" uni2085
EndChar

StartChar: six
Encoding: 54 54 25
Width: 1126
Flags: W
LayerCount: 2
Fore
SplineSet
990 301 m 128,-1,1
 1026 394 1026 394 1026 498 c 0,2,3
 1026 568 1026 568 1004 625 c 0,4,5
 957 740 957 740 824 785 c 0,6,7
 756 808 756 808 666 808 c 0,8,9
 594 808 594 808 533.5 792 c 128,-1,10
 473 776 473 776 417 751 c 2,11,-1
 403 745 l 1,12,-1
 413 784 l 2,13,14
 434 854 434 854 467.5 913 c 128,-1,15
 501 972 501 972 556 1015.5 c 128,-1,16
 611 1059 611 1059 691 1083.5 c 128,-1,17
 771 1108 771 1108 883 1108 c 2,18,-1
 1051 1108 l 1,19,-1
 1091 1300 l 1,20,-1
 946 1300 l 2,21,22
 741 1300 741 1300 591 1247 c 0,23,24
 452 1199 452 1199 359 1107 c 0,25,26
 310 1057 310 1057 272 996.5 c 128,-1,27
 234 936 234 936 204.5 870 c 128,-1,28
 175 804 175 804 154.5 736 c 128,-1,29
 134 668 134 668 122 605 c 0,30,31
 98 480 98 480 98 383 c 0,32,33
 98 185 98 185 194.5 84.5 c 128,-1,34
 291 -16 291 -16 477 -16 c 0,35,36
 610 -16 610 -16 712 25.5 c 128,-1,37
 814 67 814 67 884 137.5 c 128,-1,0
 954 208 954 208 990 301 c 128,-1,1
634.5 201 m 128,-1,39
 584 174 584 174 516 174 c 0,40,41
 428 174 428 174 382 222 c 128,-1,42
 336 270 336 270 336 379 c 0,43,44
 336 443 336 443 358 554 c 1,45,46
 409 581 409 581 474 599 c 0,47,48
 545 620 545 620 606 620 c 0,49,50
 697 620 697 620 743 577 c 0,51,52
 786 538 786 538 786 463 c 0,53,54
 786 414 786 414 769.5 362.5 c 128,-1,55
 753 311 753 311 719 269.5 c 128,-1,38
 685 228 685 228 634.5 201 c 128,-1,39
EndSplineSet
Substitution2: "<21,0> Lower Case Numbers lookup 7 subtable" six.oldstyle
Substitution2: "<10,2> Inferiors lookup 6 subtable" uni2086
EndChar

StartChar: seven
Encoding: 55 55 26
Width: 1126
Flags: W
LayerCount: 2
Fore
SplineSet
226 1078 m 1,0,-1
 854 1078 l 1,1,-1
 120 8 l 1,2,-1
 393 8 l 1,3,-1
 1119 1074 l 1,4,-1
 1165 1300 l 1,5,-1
 272 1300 l 1,6,-1
 226 1078 l 1,0,-1
EndSplineSet
Substitution2: "<21,0> Lower Case Numbers lookup 7 subtable" seven.oldstyle
Substitution2: "<10,2> Inferiors lookup 6 subtable" uni2087
EndChar

StartChar: eight
Encoding: 56 56 27
Width: 1126
Flags: W
LayerCount: 2
Fore
SplineSet
806 687 m 2,0,1
 864 717 864 717 917 756 c 0,2,3
 1025 834 1025 834 1070 939 c 0,4,5
 1092 994 1092 994 1092 1056 c 128,-1,6
 1092 1118 1092 1118 1067 1167 c 0,7,8
 1017 1266 1017 1266 877 1303 c 0,9,10
 806 1322 806 1322 715.5 1322 c 128,-1,11
 625 1322 625 1322 552.5 1304 c 128,-1,12
 480 1286 480 1286 425.5 1256.5 c 128,-1,13
 371 1227 371 1227 332.5 1188 c 128,-1,14
 294 1149 294 1149 270 1107.5 c 128,-1,15
 246 1066 246 1066 235 1023.5 c 128,-1,16
 224 981 224 981 224 944 c 0,17,18
 224 894 224 894 237 856 c 0,19,20
 262 781 262 781 323 729 c 0,21,22
 353 704 353 704 396 675 c 1,23,-1
 384 669 l 2,24,25
 320 638 320 638 262.5 596.5 c 128,-1,26
 205 555 205 555 161 504.5 c 128,-1,27
 117 454 117 454 91.5 393 c 128,-1,28
 66 332 66 332 66 260 c 0,29,30
 66 197 66 197 92.5 146 c 128,-1,31
 119 95 119 95 169 59 c 128,-1,32
 219 23 219 23 293 3.5 c 128,-1,33
 367 -16 367 -16 463 -16 c 0,34,35
 598 -16 598 -16 696.5 19.5 c 128,-1,36
 795 55 795 55 860 112 c 128,-1,37
 925 169 925 169 956.5 243 c 128,-1,38
 988 317 988 317 988 393 c 0,39,40
 988 443 988 443 972 484 c 0,41,42
 943 565 943 565 875 623 c 0,43,44
 842 651 842 651 805 674 c 2,45,-1
 794 681 l 1,46,-1
 806 687 l 2,0,1
492.5 869.5 m 128,-1,48
 454 915 454 915 454 969 c 0,49,50
 454 1001 454 1001 466.5 1033.5 c 128,-1,51
 479 1066 479 1066 507 1092 c 128,-1,52
 535 1118 535 1118 580 1133 c 128,-1,53
 625 1148 625 1148 688 1148 c 0,54,55
 778 1148 778 1148 826 1116 c 0,56,57
 868 1088 868 1088 868 1036 c 0,58,59
 868 994 868 994 850 959 c 0,60,61
 817 893 817 893 724 835 c 0,62,63
 680 807 680 807 621 778 c 1,64,47
 531 824 531 824 492.5 869.5 c 128,-1,48
706 476 m 0,65,66
 750 427 750 427 750 362 c 0,67,68
 750 319 750 319 733 282 c 0,69,70
 698 207 698 207 603 177 c 0,71,72
 555 162 555 162 500 162 c 0,73,74
 397 162 397 162 347 200 c 0,75,76
 322 218 322 218 310 242.5 c 128,-1,77
 298 267 298 267 298 295 c 0,78,79
 298 376 298 376 366.5 441 c 128,-1,80
 435 506 435 506 569 573 c 1,81,82
 617 547 617 547 650 524 c 128,-1,83
 683 501 683 501 706 476 c 0,65,66
EndSplineSet
Substitution2: "<21,0> Lower Case Numbers lookup 7 subtable" eight.oldstyle
Substitution2: "<10,2> Inferiors lookup 6 subtable" uni2088
EndChar

StartChar: nine
Encoding: 57 57 28
Width: 1126
Flags: W
LayerCount: 2
Fore
SplineSet
1063.5 737 m 128,-1,1
 1078 836 1078 836 1078 924 c 0,2,3
 1078 1032 1078 1032 1050 1107 c 0,4,5
 994 1255 994 1255 852 1299 c 0,6,7
 782 1322 782 1322 698 1322 c 0,8,9
 573 1322 573 1322 471.5 1283 c 128,-1,10
 370 1244 370 1244 298.5 1175 c 128,-1,11
 227 1106 227 1106 187.5 1011.5 c 128,-1,12
 148 917 148 917 148 807 c 0,13,14
 148 735 148 735 172 678 c 0,15,16
 220 563 220 563 356 521 c 0,17,18
 423 500 423 500 510 500 c 0,19,20
 578 500 578 500 640.5 515.5 c 128,-1,21
 703 531 703 531 759 556 c 2,22,-1
 773 562 l 1,23,-1
 763 522 l 2,24,25
 740 444 740 444 704 384 c 128,-1,26
 668 324 668 324 610 283.5 c 128,-1,27
 552 243 552 243 468.5 222.5 c 128,-1,28
 385 202 385 202 266 202 c 2,29,-1
 94 202 l 1,30,-1
 56 8 l 1,31,-1
 193 8 l 2,32,33
 629 8 629 8 824 202 c 0,34,35
 892 270 892 270 940 358 c 128,-1,36
 988 446 988 446 1018.5 542 c 128,-1,0
 1049 638 1049 638 1063.5 737 c 128,-1,1
544 1107 m 128,-1,38
 594 1132 594 1132 659 1132 c 0,39,40
 756 1132 756 1132 797 1080 c 128,-1,41
 838 1028 838 1028 838 928 c 0,42,43
 838 891 838 891 832.5 848.5 c 128,-1,44
 827 806 827 806 818 753 c 1,45,46
 767 726 767 726 696 706 c 0,47,48
 626 686 626 686 572.5 686 c 128,-1,49
 519 686 519 686 484 699 c 0,50,51
 417 723 417 723 398 781 c 0,52,53
 390 808 390 808 390 838 c 0,54,55
 390 894 390 894 407.5 947 c 128,-1,56
 425 1000 425 1000 459.5 1041 c 128,-1,37
 494 1082 494 1082 544 1107 c 128,-1,38
EndSplineSet
Substitution2: "<21,0> Lower Case Numbers lookup 7 subtable" nine.oldstyle
Substitution2: "<10,2> Inferiors lookup 6 subtable" uni2089
EndChar

StartChar: colon
Encoding: 58 58 29
Width: 1126
Flags: W
LayerCount: 2
Fore
SplineSet
566 317 m 128,-1,1
 535 330 535 330 499 330 c 128,-1,2
 463 330 463 330 430.5 317 c 128,-1,3
 398 304 398 304 373 279.5 c 128,-1,4
 348 255 348 255 333 221.5 c 128,-1,5
 318 188 318 188 318 152 c 128,-1,6
 318 116 318 116 330.5 86 c 128,-1,7
 343 56 343 56 365.5 33.5 c 128,-1,8
 388 11 388 11 418.5 -2.5 c 128,-1,9
 449 -16 449 -16 485.5 -16 c 128,-1,10
 522 -16 522 -16 554.5 -2.5 c 128,-1,11
 587 11 587 11 611 35.5 c 128,-1,12
 635 60 635 60 649.5 93.5 c 128,-1,13
 664 127 664 127 664 163 c 128,-1,14
 664 199 664 199 651.5 229 c 128,-1,15
 639 259 639 259 618 281.5 c 128,-1,0
 597 304 597 304 566 317 c 128,-1,1
705 1005 m 128,-1,17
 674 1018 674 1018 638 1018 c 128,-1,18
 602 1018 602 1018 569.5 1005 c 128,-1,19
 537 992 537 992 512.5 967.5 c 128,-1,20
 488 943 488 943 473 909.5 c 128,-1,21
 458 876 458 876 458 840.5 c 128,-1,22
 458 805 458 805 470.5 775 c 128,-1,23
 483 745 483 745 505 722.5 c 128,-1,24
 527 700 527 700 558 687 c 128,-1,25
 589 674 589 674 625 674 c 128,-1,26
 661 674 661 674 693.5 687 c 128,-1,27
 726 700 726 700 750.5 724 c 128,-1,28
 775 748 775 748 789.5 781.5 c 128,-1,29
 804 815 804 815 804 851 c 128,-1,30
 804 887 804 887 791.5 917 c 128,-1,31
 779 947 779 947 757.5 969.5 c 128,-1,16
 736 992 736 992 705 1005 c 128,-1,17
EndSplineSet
EndChar

StartChar: semicolon
Encoding: 59 59 30
Width: 1126
Flags: W
LayerCount: 2
Fore
SplineSet
705 1005 m 128,-1,1
 674 1018 674 1018 638 1018 c 128,-1,2
 602 1018 602 1018 569.5 1005 c 128,-1,3
 537 992 537 992 512.5 967.5 c 128,-1,4
 488 943 488 943 473 909.5 c 128,-1,5
 458 876 458 876 458 840.5 c 128,-1,6
 458 805 458 805 470.5 775 c 128,-1,7
 483 745 483 745 505 722.5 c 128,-1,8
 527 700 527 700 558 687 c 128,-1,9
 589 674 589 674 625 674 c 128,-1,10
 661 674 661 674 693.5 687 c 128,-1,11
 726 700 726 700 750.5 724 c 128,-1,12
 775 748 775 748 789.5 781.5 c 128,-1,13
 804 815 804 815 804 851 c 128,-1,14
 804 887 804 887 791.5 917 c 128,-1,15
 779 947 779 947 757.5 969.5 c 128,-1,0
 736 992 736 992 705 1005 c 128,-1,1
682 164 m 0,16,17
 682 208 682 208 671.5 245 c 128,-1,18
 661 282 661 282 640 309 c 0,19,20
 594 365 594 365 512 366 c 0,21,22
 473 366 473 366 441 352 c 128,-1,23
 409 338 409 338 386.5 314 c 128,-1,24
 364 290 364 290 352 258 c 128,-1,25
 340 226 340 226 340 190 c 128,-1,26
 340 154 340 154 350.5 129 c 128,-1,27
 361 104 361 104 373.5 83.5 c 128,-1,28
 386 63 386 63 397 41.5 c 128,-1,29
 408 20 408 20 408 -8 c 0,30,31
 408 -45 408 -45 383.5 -80.5 c 128,-1,32
 359 -116 359 -116 315 -143 c 128,-1,33
 271 -170 271 -170 211.5 -185.5 c 128,-1,34
 152 -201 152 -201 85 -201 c 0,35,36
 80 -201 80 -201 76 -201 c 1,37,-1
 76 -344 l 1,38,39
 197 -343 197 -343 307.5 -307.5 c 128,-1,40
 418 -272 418 -272 501.5 -205.5 c 128,-1,41
 585 -139 585 -139 633.5 -45.5 c 128,-1,42
 682 48 682 48 682 164 c 0,16,17
EndSplineSet
EndChar

StartChar: less
Encoding: 60 60 31
Width: 1126
Flags: W
LayerCount: 2
Fore
SplineSet
190 668 m 1,0,-1
 144 440 l 1,1,-1
 880 -13 l 1,2,-1
 922 199 l 1,3,-1
 378 534 l 1,4,-1
 382 555 l 1,5,-1
 1060 887 l 1,6,-1
 1107 1120 l 1,7,-1
 190 668 l 1,0,-1
EndSplineSet
Substitution2: "'rtla' Right to Left Alternates in Greek lookup 0 subtable" greater
EndChar

StartChar: equal
Encoding: 61 61 32
Width: 1126
Flags: W
LayerCount: 2
Fore
SplineSet
205 832 m 1,0,-1
 169 654 l 1,1,-1
 1014 654 l 1,2,-1
 1050 832 l 1,3,-1
 205 832 l 1,0,-1
126 438 m 1,4,-1
 90 260 l 1,5,-1
 935 260 l 1,6,-1
 971 438 l 1,7,-1
 126 438 l 1,4,-1
EndSplineSet
Substitution2: "<10,2> Inferiors lookup 6 subtable" uni208C
Substitution2: "<10,1> Superiors in Latin lookup 5 subtable" uni207C
EndChar

StartChar: greater
Encoding: 62 62 33
Width: 1126
Flags: W
LayerCount: 2
Fore
SplineSet
259 903 m 1,0,-1
 803 568 l 1,1,-1
 800 547 l 1,2,-1
 121 215 l 1,3,-1
 74 -18 l 1,4,-1
 991 434 l 1,5,-1
 1037 662 l 1,6,-1
 302 1115 l 1,7,-1
 259 903 l 1,0,-1
EndSplineSet
Substitution2: "'rtla' Right to Left Alternates in Greek lookup 0 subtable" less
EndChar

StartChar: question
Encoding: 63 63 34
Width: 1126
Flags: W
LayerCount: 2
Fore
SplineSet
1143 1047 m 0,0,1
 1149 1210 1149 1210 1046 1303 c 0,2,3
 942 1396 942 1396 753 1396 c 0,4,5
 658 1396 658 1396 582 1372 c 0,6,7
 432 1325 432 1325 346 1210 c 0,8,9
 306 1157 306 1157 279 1098 c 1,10,-1
 464 1012 l 1,11,12
 500 1094 500 1094 560 1144 c 0,13,14
 621 1196 621 1196 711 1196 c 0,15,16
 789 1196 789 1196 839 1156 c 0,17,18
 890 1115 890 1115 888 1041 c 2,19,-1
 887 1017 l 2,20,21
 887 1003 887 1003 882 989 c 0,22,23
 856 868 856 868 763 818 c 0,24,25
 673 769 673 769 501 757 c 1,26,-1
 444 467 l 1,27,-1
 677 467 l 1,28,-1
 708 622 l 1,29,30
 793 634 793 634 870 667 c 0,31,32
 1029 735 1029 735 1103 881 c 0,33,34
 1140 954 1140 954 1143 1047 c 0,0,1
478 1 m 0,35,36
 570 1 570 1 612 39 c 0,37,38
 655 78 655 78 667 133 c 0,39,40
 676 172 676 172 678.5 189 c 128,-1,41
 681 206 681 206 681 218 c 0,42,43
 683 262 683 262 649 293 c 0,44,45
 614 324 614 324 530 324 c 0,46,47
 439 324 439 324 396 285 c 0,48,49
 353 247 353 247 341 191 c 0,50,51
 332 153 332 153 329.5 135.5 c 128,-1,52
 327 118 327 118 327 107 c 0,53,54
 325 62 325 62 360 31 c 0,55,56
 394 1 394 1 478 1 c 0,35,36
EndSplineSet
EndChar

StartChar: at
Encoding: 64 64 35
Width: 1126
Flags: W
LayerCount: 2
Fore
SplineSet
1148 1153.5 m 128,-1,1
 1124 1240 1124 1240 1076 1301 c 128,-1,2
 1028 1362 1028 1362 957.5 1395 c 128,-1,3
 887 1428 887 1428 794.5 1428 c 128,-1,4
 702 1428 702 1428 616.5 1392.5 c 128,-1,5
 531 1357 531 1357 454.5 1295 c 128,-1,6
 378 1233 378 1233 312.5 1146.5 c 128,-1,7
 247 1060 247 1060 193 959 c 128,-1,8
 139 858 139 858 96.5 745.5 c 128,-1,9
 54 633 54 633 25 518.5 c 128,-1,10
 -4 404 -4 404 -19 290.5 c 128,-1,11
 -34 177 -34 177 -34 74 c 0,12,13
 -34 -170 -34 -170 75 -294 c 0,14,15
 179 -412 179 -412 381 -412 c 0,16,17
 464 -412 464 -412 556.5 -390.5 c 128,-1,18
 649 -369 649 -369 730 -331 c 1,19,-1
 730 -168 l 1,20,21
 648 -209 648 -209 566.5 -231.5 c 128,-1,22
 485 -254 485 -254 397 -254 c 0,23,24
 264 -254 264 -254 203 -161.5 c 128,-1,25
 142 -69 142 -69 142 106 c 0,26,27
 142 276 142 276 192 474 c 0,28,29
 271 794 271 794 419 1017 c 0,30,31
 524 1175 524 1175 644 1237 c 0,32,33
 706 1270 706 1270 772 1270 c 0,34,35
 889 1270 889 1270 942.5 1186.5 c 128,-1,36
 996 1103 996 1103 996 948 c 0,37,38
 996 890 996 890 986.5 813.5 c 128,-1,39
 977 737 977 737 961 656 c 128,-1,40
 945 575 945 575 924 498 c 0,41,42
 877 332 877 332 828 260 c 0,43,44
 800 220 800 220 772 220 c 0,45,46
 760 220 760 220 753.5 228.5 c 128,-1,47
 747 237 747 237 747 256 c 0,48,49
 747 295 747 295 779 412 c 2,50,-1
 926 946 l 1,51,-1
 777 916 l 1,52,53
 757 926 757 926 727 933 c 128,-1,54
 697 940 697 940 664 940 c 0,55,56
 604 940 604 940 555 917 c 128,-1,57
 506 894 506 894 466.5 854.5 c 128,-1,58
 427 815 427 815 396.5 763 c 128,-1,59
 366 711 366 711 343 653.5 c 128,-1,60
 320 596 320 596 304.5 536.5 c 128,-1,61
 289 477 289 477 279 424 c 128,-1,62
 269 371 269 371 265.5 327.5 c 128,-1,63
 262 284 262 284 262 258 c 0,64,65
 262 147 262 147 300.5 100.5 c 128,-1,66
 339 54 339 54 412 54 c 0,67,68
 435 54 435 54 460.5 62.5 c 128,-1,69
 486 71 486 71 510 87 c 0,70,71
 563 121 563 121 595 182 c 2,72,-1
 607 203 l 1,73,-1
 609 179 l 2,74,75
 616 121 616 121 646 91 c 0,76,77
 662 74 662 74 688 64 c 128,-1,78
 714 54 714 54 752 54 c 0,79,80
 806 54 806 54 853 81 c 128,-1,81
 900 108 900 108 940.5 155 c 128,-1,82
 981 202 981 202 1013.5 265 c 128,-1,83
 1046 328 1046 328 1072 400 c 128,-1,84
 1098 472 1098 472 1117 549.5 c 128,-1,85
 1136 627 1136 627 1148 700 c 0,86,87
 1172 845 1172 845 1172 956 c 128,-1,0
 1172 1067 1172 1067 1148 1153.5 c 128,-1,1
642 586 m 2,88,89
 589 384 589 384 540 292 c 0,90,91
 519 252 519 252 502 238 c 128,-1,92
 485 224 485 224 472 224 c 128,-1,93
 459 224 459 224 452.5 234 c 128,-1,94
 446 244 446 244 446 267 c 128,-1,95
 446 290 446 290 451 336 c 0,96,97
 463 435 463 435 495 550 c 0,98,99
 531 681 531 681 579 740 c 0,100,101
 606 774 606 774 639 774 c 0,102,103
 652 774 652 774 667 769.5 c 128,-1,104
 682 765 682 765 686 758 c 2,105,-1
 688 755 l 1,106,-1
 642 586 l 2,88,89
EndSplineSet
EndChar

StartChar: A
Encoding: 65 65 36
Width: 1126
Flags: W
LayerCount: 2
Fore
SplineSet
153 8 m 1,0,-1
 278 266 l 1,1,-1
 746 266 l 1,2,-1
 767 8 l 1,3,-1
 1012 8 l 1,4,-1
 888 1300 l 1,5,-1
 556 1300 l 1,6,-1
 -86 8 l 1,7,-1
 153 8 l 1,0,-1
731 452 m 1,8,-1
 369 452 l 1,9,-1
 681 1095 l 1,10,-1
 731 452 l 1,8,-1
EndSplineSet
Substitution2: "<10,1> Superiors in Latin lookup 5 subtable" A.superior
EndChar

StartChar: B
Encoding: 66 66 37
Width: 1126
Flags: W
LayerCount: 2
Fore
SplineSet
920.5 175.5 m 128,-1,1
 961 223 961 223 984 272.5 c 128,-1,2
 1007 322 1007 322 1014.5 370 c 128,-1,3
 1022 418 1022 418 1022 456.5 c 128,-1,4
 1022 495 1022 495 1010 531.5 c 128,-1,5
 998 568 998 568 974.5 598 c 128,-1,6
 951 628 951 628 916.5 648.5 c 128,-1,7
 882 669 882 669 839 677 c 2,8,-1
 809 682 l 1,9,-1
 838 691 l 2,10,11
 893 709 893 709 939 743.5 c 128,-1,12
 985 778 985 778 1018.5 825 c 128,-1,13
 1052 872 1052 872 1071 929 c 128,-1,14
 1090 986 1090 986 1090 1049 c 0,15,16
 1090 1101 1090 1101 1070 1147 c 0,17,18
 1029 1241 1029 1241 883 1280 c 0,19,20
 808 1300 808 1300 698 1300 c 2,21,-1
 295 1300 l 1,22,-1
 36 8 l 1,23,-1
 432 8 l 2,24,25
 561 8 561 8 655 30.5 c 128,-1,26
 749 53 749 53 814.5 90.5 c 128,-1,0
 880 128 880 128 920.5 175.5 c 128,-1,1
834 1037.5 m 128,-1,28
 842 1014 842 1014 842 991 c 0,29,30
 842 948 842 948 824 906.5 c 128,-1,31
 806 865 806 865 771 832 c 128,-1,32
 736 799 736 799 683 778.5 c 128,-1,33
 630 758 630 758 561 758 c 2,34,-1
 415 758 l 1,35,-1
 486 1120 l 1,36,-1
 647 1120 l 2,37,38
 756 1120 756 1120 804 1080 c 0,39,27
 826 1061 826 1061 834 1037.5 c 128,-1,28
608.5 215.5 m 128,-1,41
 551 194 551 194 469 194 c 2,42,-1
 300 194 l 1,43,-1
 379 585 l 1,44,-1
 545 585 l 2,45,46
 669 585 669 585 724 541 c 0,47,48
 750 521 750 521 761 494 c 128,-1,49
 772 467 772 467 772 438 c 0,50,51
 772 394 772 394 755 350 c 128,-1,52
 738 306 738 306 702 271.5 c 128,-1,40
 666 237 666 237 608.5 215.5 c 128,-1,41
EndSplineSet
Substitution2: "<10,1> Superiors in Latin lookup 5 subtable" B.superior
EndChar

StartChar: C
Encoding: 67 67 38
Width: 1126
Flags: W
LayerCount: 2
Fore
SplineSet
1104 1066 m 1,0,-1
 1148 1280 l 1,1,2
 1000 1325 1000 1325 831 1325 c 0,3,4
 710 1325 710 1325 614.5 1295.5 c 128,-1,5
 519 1266 519 1266 445.5 1215.5 c 128,-1,6
 372 1165 372 1165 317 1099 c 0,7,8
 213 973 213 973 161 812 c 0,9,10
 113 666 113 666 102 544 c 0,11,12
 98 488 98 488 98 453 c 0,13,14
 98 363 98 363 121.5 278 c 128,-1,15
 145 193 145 193 200.5 127.5 c 128,-1,16
 256 62 256 62 348.5 22 c 128,-1,17
 441 -18 441 -18 580 -18 c 0,18,19
 667 -18 667 -18 751.5 0 c 128,-1,20
 836 18 836 18 926 51 c 1,21,-1
 926 258 l 1,22,23
 856 230 856 230 780 211 c 0,24,25
 694 190 694 190 629 190 c 0,26,27
 535 190 535 190 479.5 218 c 128,-1,28
 424 246 424 246 395 288.5 c 128,-1,29
 366 331 366 331 358 380.5 c 128,-1,30
 350 430 350 430 350 472.5 c 128,-1,31
 350 515 350 515 358.5 578.5 c 128,-1,32
 367 642 367 642 386.5 713.5 c 128,-1,33
 406 785 406 785 440.5 857.5 c 128,-1,34
 475 930 475 930 527 988 c 128,-1,35
 579 1046 579 1046 652 1083.5 c 128,-1,36
 725 1121 725 1121 823 1121 c 0,37,38
 902 1121 902 1121 973.5 1104 c 128,-1,39
 1045 1087 1045 1087 1104 1066 c 1,0,-1
EndSplineSet
Substitution2: "<10,1> Superiors in Latin lookup 5 subtable" C.superior
EndChar

StartChar: D
Encoding: 68 68 39
Width: 1126
Flags: W
LayerCount: 2
Fore
SplineSet
1110 761 m 0,0,1
 1114 819 1114 819 1114 860 c 0,2,3
 1114 1081 1114 1081 990 1190.5 c 128,-1,4
 866 1300 866 1300 621 1300 c 2,5,-1
 252 1300 l 1,6,-1
 -7 8 l 1,7,-1
 326 8 l 2,8,9
 461 8 461 8 566.5 35.5 c 128,-1,10
 672 63 672 63 752.5 110 c 128,-1,11
 833 157 833 157 891 219 c 0,12,13
 1004 340 1004 340 1054 493 c 0,14,15
 1100 630 1100 630 1110 761 c 0,0,1
850 953 m 0,16,17
 866 903 866 903 866 839 c 0,18,19
 866 791 866 791 858.5 724.5 c 128,-1,20
 851 658 851 658 832.5 587 c 128,-1,21
 814 516 814 516 779.5 446.5 c 128,-1,22
 745 377 745 377 690.5 322 c 128,-1,23
 636 267 636 267 558 232.5 c 128,-1,24
 480 198 480 198 373 198 c 2,25,-1
 261 198 l 1,26,-1
 443 1108 l 1,27,-1
 580 1108 l 2,28,29
 803 1108 803 1108 850 953 c 0,16,17
EndSplineSet
Substitution2: "<10,1> Superiors in Latin lookup 5 subtable" D.superior
EndChar

StartChar: E
Encoding: 69 69 40
Width: 1126
Flags: W
LayerCount: 2
Fore
SplineSet
364 200 m 1,0,-1
 440 578 l 1,1,-1
 952 578 l 1,2,-1
 988 766 l 1,3,-1
 476 766 l 1,4,-1
 545 1106 l 1,5,-1
 1081 1106 l 1,6,-1
 1121 1300 l 1,7,-1
 350 1300 l 1,8,-1
 91 8 l 1,9,-1
 862 8 l 1,10,-1
 900 200 l 1,11,-1
 364 200 l 1,0,-1
EndSplineSet
Substitution2: "<10,1> Superiors in Latin lookup 5 subtable" E.superior
EndChar

StartChar: F
Encoding: 70 70 41
Width: 1126
Flags: W
LayerCount: 2
Fore
SplineSet
470 730 m 1,0,-1
 545 1106 l 1,1,-1
 1067 1106 l 1,2,-1
 1107 1300 l 1,3,-1
 350 1300 l 1,4,-1
 91 8 l 1,5,-1
 326 8 l 1,6,-1
 432 542 l 1,7,-1
 926 542 l 1,8,-1
 964 730 l 1,9,-1
 470 730 l 1,0,-1
EndSplineSet
Substitution2: "<10,1> Superiors in Latin lookup 5 subtable" F.superior
EndChar

StartChar: G
Encoding: 71 71 42
Width: 1126
Flags: W
LayerCount: 2
Fore
SplineSet
587 567 m 1,0,-1
 808 567 l 1,1,-1
 737 220 l 1,2,3
 701 208 701 208 669 202 c 128,-1,4
 637 196 637 196 590 196 c 0,5,6
 371 196 371 196 321 355 c 0,7,8
 306 406 306 406 306 471 c 128,-1,9
 306 536 306 536 317.5 609 c 128,-1,10
 329 682 329 682 354 754 c 128,-1,11
 379 826 379 826 418.5 892.5 c 128,-1,12
 458 959 458 959 514.5 1010.5 c 128,-1,13
 571 1062 571 1062 644.5 1093 c 128,-1,14
 718 1124 718 1124 810.5 1124 c 128,-1,15
 903 1124 903 1124 984.5 1104 c 128,-1,16
 1066 1084 1066 1084 1129 1060 c 1,17,-1
 1173 1272 l 1,18,19
 1098 1297 1098 1297 1011 1313 c 128,-1,20
 924 1329 924 1329 836 1329 c 0,21,22
 681 1329 681 1329 564 1286 c 128,-1,23
 447 1243 447 1243 361.5 1172 c 128,-1,24
 276 1101 276 1101 218.5 1010 c 128,-1,25
 161 919 161 919 126 821.5 c 128,-1,26
 91 724 91 724 76.5 629 c 128,-1,27
 62 534 62 534 62 457 c 0,28,29
 62 341 62 341 94.5 252 c 128,-1,30
 127 163 127 163 188.5 102 c 128,-1,31
 250 41 250 41 338 9 c 128,-1,32
 426 -23 426 -23 539.5 -23 c 128,-1,33
 653 -23 653 -23 747 -1.5 c 128,-1,34
 841 20 841 20 935 62 c 1,35,-1
 1074 755 l 1,36,-1
 624 755 l 1,37,-1
 587 567 l 1,0,-1
EndSplineSet
Substitution2: "<10,1> Superiors in Latin lookup 5 subtable" G.superior
EndChar

StartChar: H
Encoding: 72 72 43
Width: 1126
Flags: W
LayerCount: 2
Fore
SplineSet
234 8 m 1,0,-1
 346 576 l 1,1,-1
 806 576 l 1,2,-1
 693 8 l 1,3,-1
 924 8 l 1,4,-1
 1183 1300 l 1,5,-1
 952 1300 l 1,6,-1
 846 774 l 1,7,-1
 386 774 l 1,8,-1
 493 1300 l 1,9,-1
 262 1300 l 1,10,-1
 3 8 l 1,11,-1
 234 8 l 1,0,-1
EndSplineSet
Substitution2: "<10,1> Superiors in Latin lookup 5 subtable" H.superior
EndChar

StartChar: I
Encoding: 73 73 44
Width: 1126
Flags: W
LayerCount: 2
Fore
SplineSet
277 1105 m 1,0,-1
 567 1105 l 1,1,-1
 382 202 l 1,2,-1
 92 202 l 1,3,-1
 56 15 l 1,4,-1
 868 15 l 1,5,-1
 904 202 l 1,6,-1
 617 202 l 1,7,-1
 801 1105 l 1,8,-1
 1090 1105 l 1,9,-1
 1128 1292 l 1,10,-1
 315 1292 l 1,11,-1
 277 1105 l 1,0,-1
EndSplineSet
Substitution2: "<10,1> Superiors in Latin lookup 5 subtable" I.superior
EndChar

StartChar: J
Encoding: 74 74 45
Width: 1126
Flags: W
LayerCount: 2
Fore
SplineSet
378.5 -20 m 128,-1,1
 480 -20 480 -20 563 9.5 c 128,-1,2
 646 39 646 39 708 90.5 c 128,-1,3
 770 142 770 142 811.5 212.5 c 128,-1,4
 853 283 853 283 870 365 c 2,5,-1
 1054 1292 l 1,6,-1
 348 1292 l 1,7,-1
 310 1104 l 1,8,-1
 783 1104 l 1,9,-1
 646 425 l 2,10,11
 618 289 618 289 541 226 c 0,12,13
 505 197 505 197 466 184 c 128,-1,14
 427 171 427 171 390.5 171 c 128,-1,15
 354 171 354 171 322 179 c 0,16,17
 261 195 261 195 213 233 c 0,18,19
 195 248 195 248 179 264 c 1,20,-1
 51 102 l 1,21,22
 105 46 105 46 189 14 c 0,23,0
 277 -20 277 -20 378.5 -20 c 128,-1,1
EndSplineSet
Substitution2: "<10,1> Superiors in Latin lookup 5 subtable" J.superior
EndChar

StartChar: K
Encoding: 75 75 46
Width: 1126
Flags: W
LayerCount: 2
Fore
SplineSet
34 8 m 1,0,-1
 270 8 l 1,1,-1
 400 658 l 1,2,-1
 675 8 l 1,3,-1
 967 8 l 1,4,-1
 646 675 l 1,5,-1
 1220 1300 l 1,6,-1
 927 1300 l 1,7,-1
 409 696 l 1,8,-1
 530 1300 l 1,9,-1
 293 1300 l 1,10,-1
 34 8 l 1,0,-1
EndSplineSet
Substitution2: "<10,1> Superiors in Latin lookup 5 subtable" K.superior
EndChar

StartChar: L
Encoding: 76 76 47
Width: 1126
Flags: W
LayerCount: 2
Fore
SplineSet
597 1300 m 1,0,-1
 362 1300 l 1,1,-1
 104 8 l 1,2,-1
 891 8 l 1,3,-1
 929 204 l 1,4,-1
 378 204 l 1,5,-1
 597 1300 l 1,0,-1
EndSplineSet
Substitution2: "<10,1> Superiors in Latin lookup 5 subtable" L.superior
EndChar

StartChar: M
Encoding: 77 77 48
Width: 1126
Flags: W
LayerCount: 2
Fore
SplineSet
451 396 m 1,0,-1
 593 396 l 1,1,-1
 952 1080 l 1,2,-1
 892 738 l 1,3,-1
 771 8 l 1,4,-1
 973 8 l 1,5,-1
 1167 1300 l 1,6,-1
 886 1300 l 1,7,-1
 689 921 l 1,8,-1
 583 698 l 1,9,-1
 566 935 l 1,10,-1
 528 1300 l 1,11,-1
 274 1300 l 1,12,-1
 -47 8 l 1,13,-1
 146 8 l 1,14,-1
 317 747 l 1,15,-1
 391 1087 l 1,16,-1
 408 835 l 1,17,-1
 451 396 l 1,0,-1
EndSplineSet
Substitution2: "<10,1> Superiors in Latin lookup 5 subtable" M.superior
EndChar

StartChar: N
Encoding: 78 78 49
Width: 1126
Flags: W
LayerCount: 2
Fore
SplineSet
409 983 m 1,0,-1
 456 782 l 1,1,-1
 649 8 l 1,2,-1
 926 8 l 1,3,-1
 1185 1300 l 1,4,-1
 975 1300 l 1,5,-1
 902 944 l 1,6,-1
 780 332 l 1,7,-1
 741 520 l 1,8,-1
 543 1300 l 1,9,-1
 266 1300 l 1,10,-1
 7 8 l 1,11,-1
 215 8 l 1,12,-1
 294 407 l 1,13,-1
 409 983 l 1,0,-1
EndSplineSet
Substitution2: "<10,1> Superiors in Latin lookup 5 subtable" N.superior
EndChar

StartChar: O
Encoding: 79 79 50
Width: 1126
Flags: W
LayerCount: 2
Fore
SplineSet
155.5 89 m 128,-1,1
 263 -23 263 -23 465 -23 c 0,2,3
 583 -23 583 -23 678 17 c 128,-1,4
 773 57 773 57 847 125 c 128,-1,5
 921 193 921 193 974.5 283 c 128,-1,6
 1028 373 1028 373 1063 475 c 128,-1,7
 1098 577 1098 577 1115 684 c 128,-1,8
 1132 791 1132 791 1132 892 c 0,9,10
 1132 1106 1132 1106 1024.5 1217.5 c 128,-1,11
 917 1329 917 1329 715 1329 c 0,12,13
 597 1329 597 1329 502 1289 c 128,-1,14
 407 1249 407 1249 333 1181.5 c 128,-1,15
 259 1114 259 1114 205.5 1023.5 c 128,-1,16
 152 933 152 933 117 831 c 128,-1,17
 82 729 82 729 65 622.5 c 128,-1,18
 48 516 48 516 48 415 c 0,19,0
 48 201 48 201 155.5 89 c 128,-1,1
619 219 m 128,-1,21
 565 190 565 190 500 190 c 0,22,23
 389 190 389 190 340.5 250.5 c 128,-1,24
 292 311 292 311 292 438 c 0,25,26
 292 517 292 517 302 599 c 0,27,28
 323 764 323 764 388 895 c 0,29,30
 421 961 421 961 464 1010 c 128,-1,31
 507 1059 507 1059 561 1087.5 c 128,-1,32
 615 1116 615 1116 680 1116 c 0,33,34
 790 1116 790 1116 839 1055.5 c 128,-1,35
 888 995 888 995 888 868 c 0,36,37
 888 789 888 789 878 708 c 0,38,39
 856 541 856 541 792 411 c 0,40,41
 759 346 759 346 716 297 c 128,-1,20
 673 248 673 248 619 219 c 128,-1,21
EndSplineSet
Substitution2: "<10,1> Superiors in Latin lookup 5 subtable" O.superior
EndChar

StartChar: P
Encoding: 80 80 51
Width: 1126
Flags: W
LayerCount: 2
Fore
SplineSet
1079 769 m 128,-1,1
 1116 868 1116 868 1116 975 c 0,2,3
 1116 1038 1116 1038 1093 1096.5 c 128,-1,4
 1070 1155 1070 1155 1017 1200 c 128,-1,5
 964 1245 964 1245 878 1272.5 c 128,-1,6
 792 1300 792 1300 666 1300 c 2,7,-1
 301 1300 l 1,8,-1
 42 8 l 1,9,-1
 273 8 l 1,10,-1
 356 428 l 1,11,-1
 500 428 l 2,12,13
 658 428 658 428 774 473 c 128,-1,14
 890 518 890 518 966 594 c 128,-1,0
 1042 670 1042 670 1079 769 c 128,-1,1
860.5 1001.5 m 128,-1,16
 870 970 870 970 870 937 c 0,17,18
 870 871 870 871 846 812.5 c 128,-1,19
 822 754 822 754 778.5 710.5 c 128,-1,20
 735 667 735 667 672.5 641.5 c 128,-1,21
 610 616 610 616 534 616 c 2,22,-1
 393 616 l 1,23,-1
 493 1110 l 1,24,-1
 636 1110 l 2,25,26
 707 1110 707 1110 752.5 1096 c 128,-1,27
 798 1082 798 1082 824.5 1057.5 c 128,-1,15
 851 1033 851 1033 860.5 1001.5 c 128,-1,16
EndSplineSet
Substitution2: "<10,1> Superiors in Latin lookup 5 subtable" P.superior
EndChar

StartChar: Q
Encoding: 81 81 52
Width: 1126
Flags: W
LayerCount: 2
Fore
SplineSet
406 -284 m 0,0,1
 491 -379 491 -379 676 -379 c 0,2,3
 758 -379 758 -379 837.5 -352 c 128,-1,4
 917 -325 917 -325 985 -276 c 1,5,-1
 889 -121 l 1,6,7
 851 -150 851 -150 806 -167.5 c 128,-1,8
 761 -185 761 -185 716 -185 c 128,-1,9
 671 -185 671 -185 639 -176 c 0,10,11
 577 -157 577 -157 562 -94 c 0,12,13
 555 -67 555 -67 555 -32 c 0,14,15
 555 -27 555 -27 556 -15 c 1,16,-1
 562 -14 l 2,17,18
 661 2 661 2 742.5 49 c 128,-1,19
 824 96 824 96 887.5 165.5 c 128,-1,20
 951 235 951 235 997 322 c 128,-1,21
 1043 409 1043 409 1073 504.5 c 128,-1,22
 1103 600 1103 600 1117.5 699 c 128,-1,23
 1132 798 1132 798 1132 892 c 0,24,25
 1132 1106 1132 1106 1024.5 1217.5 c 128,-1,26
 917 1329 917 1329 715 1329 c 0,27,28
 597 1329 597 1329 502 1289 c 128,-1,29
 407 1249 407 1249 333 1181.5 c 128,-1,30
 259 1114 259 1114 205.5 1023.5 c 128,-1,31
 152 933 152 933 117 831 c 128,-1,32
 82 729 82 729 65 622.5 c 128,-1,33
 48 516 48 516 48 415 c 0,34,35
 48 239 48 239 120 132.5 c 128,-1,36
 192 26 192 26 332 -6 c 1,37,-1
 338 -8 l 1,38,39
 336 -37 336 -37 336 -59 c 0,40,41
 336 -204 336 -204 406 -284 c 0,0,1
619 220 m 128,-1,43
 565 192 565 192 500 192 c 0,44,45
 389 192 389 192 340.5 251.5 c 128,-1,46
 292 311 292 311 292 438 c 0,47,48
 292 517 292 517 302 599 c 0,49,50
 323 764 323 764 388 895 c 0,51,52
 421 961 421 961 464 1010 c 128,-1,53
 507 1059 507 1059 561 1087.5 c 128,-1,54
 615 1116 615 1116 680 1116 c 0,55,56
 790 1116 790 1116 839 1055.5 c 128,-1,57
 888 995 888 995 888 868 c 0,58,59
 888 789 888 789 878 708 c 0,60,61
 856 541 856 541 792 411 c 0,62,63
 759 346 759 346 716 297 c 128,-1,42
 673 248 673 248 619 220 c 128,-1,43
EndSplineSet
Substitution2: "<10,1> Superiors in Latin lookup 5 subtable" Q.superior
EndChar

StartChar: R
Encoding: 82 82 53
Width: 1126
Flags: W
LayerCount: 2
Fore
SplineSet
975 755.5 m 128,-1,1
 1020 809 1020 809 1044 876.5 c 128,-1,2
 1068 944 1068 944 1068 1021 c 128,-1,3
 1068 1098 1068 1098 1039 1150 c 0,4,5
 984 1253 984 1253 831 1284 c 0,6,7
 756 1300 756 1300 664 1300 c 2,8,-1
 295 1300 l 1,9,-1
 36 8 l 1,10,-1
 267 8 l 1,11,-1
 374 548 l 1,12,-1
 418 548 l 2,13,14
 456 548 456 548 487 539 c 0,15,16
 548 520 548 520 585 436 c 0,17,18
 604 393 604 393 619 328 c 2,19,-1
 698 8 l 1,20,-1
 959 8 l 1,21,-1
 872 322 l 2,22,23
 833 453 833 453 800 514 c 0,24,25
 782 546 782 546 761.5 567 c 128,-1,26
 741 588 741 588 717 601 c 2,27,-1
 699 612 l 1,28,-1
 720 615 l 2,29,30
 801 630 801 630 865.5 666 c 128,-1,0
 930 702 930 702 975 755.5 c 128,-1,1
636 741 m 0,31,32
 578 726 578 726 506 726 c 2,33,-1
 410 726 l 1,34,-1
 487 1110 l 1,35,-1
 612 1110 l 2,36,37
 720 1110 720 1110 771 1076 c 128,-1,38
 822 1042 822 1042 822 969 c 0,39,40
 822 910 822 910 800 865 c 0,41,42
 756 773 756 773 636 741 c 0,31,32
EndSplineSet
Substitution2: "<10,1> Superiors in Latin lookup 5 subtable" R.superior
EndChar

StartChar: S
Encoding: 83 83 54
Width: 1126
Flags: W
LayerCount: 2
Fore
SplineSet
188 -9.5 m 128,-1,1
 281 -23 281 -23 391 -23 c 0,2,3
 529 -23 529 -23 641 7.5 c 128,-1,4
 753 38 753 38 831 95 c 128,-1,5
 909 152 909 152 951.5 232.5 c 128,-1,6
 994 313 994 313 994 412 c 0,7,8
 994 477 994 477 971.5 526 c 128,-1,9
 949 575 949 575 912 612.5 c 128,-1,10
 875 650 875 650 828 679 c 128,-1,11
 781 708 781 708 731.5 732.5 c 128,-1,12
 682 757 682 757 634 779 c 128,-1,13
 586 801 586 801 548 825.5 c 128,-1,14
 510 850 510 850 486 880 c 128,-1,15
 462 910 462 910 462 950 c 0,16,17
 462 985 462 985 478 1016 c 0,18,19
 511 1079 511 1079 615 1105 c 0,20,21
 667 1119 667 1119 739 1119 c 0,22,23
 849 1119 849 1119 972 1089 c 0,24,25
 1004 1082 1004 1082 1030 1073 c 1,26,-1
 1070 1287 l 1,27,28
 971 1315 971 1315 848 1326 c 0,29,30
 805 1329 805 1329 762 1329 c 0,31,32
 615 1329 615 1329 509 1294.5 c 128,-1,33
 403 1260 403 1260 334.5 1202.5 c 128,-1,34
 266 1145 266 1145 233 1071 c 128,-1,35
 200 997 200 997 200 918 c 0,36,37
 200 852 200 852 222 803 c 128,-1,38
 244 754 244 754 281 717 c 128,-1,39
 318 680 318 680 364 652.5 c 128,-1,40
 410 625 410 625 459.5 601.5 c 128,-1,41
 509 578 509 578 557 555.5 c 128,-1,42
 605 533 605 533 643 507.5 c 128,-1,43
 681 482 681 482 704.5 449.5 c 128,-1,44
 728 417 728 417 728 372 c 0,45,46
 728 333 728 333 710.5 298.5 c 128,-1,47
 693 264 693 264 655 238 c 128,-1,48
 617 212 617 212 559.5 197 c 128,-1,49
 502 182 502 182 422 182 c 0,50,51
 334 182 334 182 232 201 c 0,52,53
 143 218 143 218 55 249 c 1,54,-1
 11 31 l 1,55,0
 95 4 95 4 188 -9.5 c 128,-1,1
EndSplineSet
Substitution2: "<10,1> Superiors in Latin lookup 5 subtable" S.superior
EndChar

StartChar: T
Encoding: 84 84 55
Width: 1126
Flags: W
LayerCount: 2
Fore
SplineSet
582 8 m 1,0,-1
 801 1110 l 1,1,-1
 1159 1110 l 1,2,-1
 1199 1300 l 1,3,-1
 246 1300 l 1,4,-1
 206 1110 l 1,5,-1
 564 1110 l 1,6,-1
 345 8 l 1,7,-1
 582 8 l 1,0,-1
EndSplineSet
Substitution2: "<10,1> Superiors in Latin lookup 5 subtable" T.superior
EndChar

StartChar: U
Encoding: 85 85 56
Width: 1126
Flags: W
LayerCount: 2
Fore
SplineSet
84 452 m 2,0,1
 68 377 68 377 68 312 c 0,2,3
 68 235 68 235 88.5 173.5 c 128,-1,4
 109 112 109 112 157.5 68 c 128,-1,5
 206 24 206 24 282 0.5 c 128,-1,6
 358 -23 358 -23 467.5 -23 c 128,-1,7
 577 -23 577 -23 670 5 c 0,8,9
 855 61 855 61 949 240 c 0,10,11
 997 331 997 331 1022 455 c 2,12,-1
 1191 1292 l 1,13,-1
 959 1292 l 1,14,-1
 790 455 l 2,15,16
 775 377 775 377 751 323 c 0,17,18
 701 213 701 213 604 181 c 0,19,20
 555 165 555 165 499 165 c 128,-1,21
 443 165 443 165 405.5 176 c 128,-1,22
 368 187 368 187 346 209 c 0,23,24
 302 252 302 252 302 338 c 0,25,26
 302 386 302 386 315 449 c 2,27,-1
 483 1292 l 1,28,-1
 252 1292 l 1,29,-1
 84 452 l 2,0,1
EndSplineSet
Substitution2: "<10,1> Superiors in Latin lookup 5 subtable" U.superior
EndChar

StartChar: V
Encoding: 86 86 57
Width: 1126
Flags: W
LayerCount: 2
Fore
SplineSet
168 1300 m 1,0,-1
 304 8 l 1,1,-1
 618 8 l 1,2,-1
 1274 1300 l 1,3,-1
 1015 1300 l 1,4,-1
 648 532 l 1,5,-1
 507 233 l 1,6,-1
 485 519 l 1,7,-1
 417 1300 l 1,8,-1
 168 1300 l 1,0,-1
EndSplineSet
Substitution2: "<10,1> Superiors in Latin lookup 5 subtable" V.superior
EndChar

StartChar: W
Encoding: 87 87 58
Width: 1126
Flags: W
LayerCount: 2
Fore
SplineSet
605 404 m 1,0,-1
 648 8 l 1,1,-1
 912 8 l 1,2,-1
 1243 1300 l 1,3,-1
 1050 1300 l 1,4,-1
 845 444 l 1,5,-1
 790 192 l 1,6,-1
 771 415 l 1,7,-1
 720 902 l 1,8,-1
 576 902 l 1,9,-1
 341 441 l 1,10,-1
 218 192 l 1,11,-1
 263 470 l 1,12,-1
 401 1300 l 1,13,-1
 199 1300 l 1,14,-1
 13 8 l 1,15,-1
 283 8 l 1,16,-1
 493 402 l 1,17,-1
 589 594 l 1,18,-1
 605 404 l 1,0,-1
EndSplineSet
Substitution2: "<10,1> Superiors in Latin lookup 5 subtable" W.superior
EndChar

StartChar: X
Encoding: 88 88 59
Width: 1126
Flags: W
LayerCount: 2
Fore
SplineSet
-79 8 m 1,0,-1
 211 8 l 1,1,-1
 562 497 l 1,2,-1
 720 8 l 1,3,-1
 1005 8 l 1,4,-1
 750 671 l 1,5,-1
 1222 1300 l 1,6,-1
 940 1300 l 1,7,-1
 611 835 l 1,8,-1
 464 1300 l 1,9,-1
 204 1300 l 1,10,-1
 424 669 l 1,11,-1
 -79 8 l 1,0,-1
EndSplineSet
Substitution2: "<10,1> Superiors in Latin lookup 5 subtable" X.superior
EndChar

StartChar: Y
Encoding: 89 89 60
Width: 1126
Flags: W
LayerCount: 2
Fore
SplineSet
577 8 m 1,0,-1
 667 466 l 1,1,-1
 1259 1300 l 1,2,-1
 1001 1300 l 1,3,-1
 727 905 l 1,4,-1
 587 686 l 1,5,-1
 534 901 l 1,6,-1
 422 1300 l 1,7,-1
 180 1300 l 1,8,-1
 434 461 l 1,9,-1
 342 8 l 1,10,-1
 577 8 l 1,0,-1
EndSplineSet
Substitution2: "<10,1> Superiors in Latin lookup 5 subtable" Y.superior
EndChar

StartChar: Z
Encoding: 90 90 61
Width: 1126
Flags: W
LayerCount: 2
Fore
SplineSet
955 216 m 1,0,-1
 350 216 l 1,1,-1
 1126 1113 l 1,2,-1
 1165 1300 l 1,3,-1
 289 1300 l 1,4,-1
 247 1092 l 1,5,-1
 821 1091 l 1,6,-1
 46 185 l 1,7,-1
 11 8 l 1,8,-1
 914 8 l 1,9,-1
 955 216 l 1,0,-1
EndSplineSet
Substitution2: "<10,1> Superiors in Latin lookup 5 subtable" Z.superior
EndChar

StartChar: bracketleft
Encoding: 91 91 62
Width: 1126
Flags: W
LayerCount: 2
Fore
SplineSet
676 1276 m 1,0,-1
 977 1276 l 1,1,-1
 1011 1450 l 1,2,-1
 500 1450 l 1,3,-1
 132 -390 l 1,4,-1
 643 -390 l 1,5,-1
 677 -214 l 1,6,-1
 376 -214 l 1,7,-1
 676 1276 l 1,0,-1
EndSplineSet
Substitution2: "'rtla' Right to Left Alternates in Greek lookup 0 subtable" bracketright
EndChar

StartChar: backslash
Encoding: 92 92 63
Width: 1126
Flags: W
LayerCount: 2
Fore
SplineSet
894 -208 m 1,0,-1
 526 1406 l 1,1,-1
 312 1406 l 1,2,-1
 680 -208 l 1,3,-1
 894 -208 l 1,0,-1
EndSplineSet
EndChar

StartChar: bracketright
Encoding: 93 93 64
Width: 1126
Flags: W
LayerCount: 2
Fore
SplineSet
724 1276 m 1,0,-1
 424 -214 l 1,1,-1
 125 -214 l 1,2,-1
 91 -390 l 1,3,-1
 600 -390 l 1,4,-1
 968 1450 l 1,5,-1
 459 1450 l 1,6,-1
 425 1276 l 1,7,-1
 724 1276 l 1,0,-1
EndSplineSet
Substitution2: "'rtla' Right to Left Alternates in Greek lookup 0 subtable" bracketleft
EndChar

StartChar: asciicircum
Encoding: 94 94 65
Width: 1126
Flags: W
LayerCount: 2
Fore
SplineSet
334 676 m 1,0,-1
 686 1145 l 1,1,-1
 863 676 l 1,2,-1
 1062 676 l 1,3,-1
 802 1300 l 1,4,-1
 625 1300 l 1,5,-1
 132 676 l 1,6,-1
 334 676 l 1,0,-1
EndSplineSet
EndChar

StartChar: underscore
Encoding: 95 95 66
Width: 1126
Flags: W
LayerCount: 2
Fore
SplineSet
-139 -224 m 1,0,-1
 -175 -402 l 1,1,-1
 934 -402 l 1,2,-1
 970 -224 l 1,3,-1
 -139 -224 l 1,0,-1
EndSplineSet
EndChar

StartChar: grave
Encoding: 96 96 67
Width: 1126
Flags: W
LayerCount: 2
Fore
SplineSet
793 1158 m 1,0,-1
 556 1406 l 1,1,-1
 251 1406 l 1,2,-1
 570 1158 l 1,3,-1
 793 1158 l 1,0,-1
0 1016 m 1024,4,-1
EndSplineSet
EndChar

StartChar: a
Encoding: 97 97 68
Width: 1126
Flags: W
LayerCount: 2
Fore
SplineSet
143 68 m 128,-1,1
 218 -23 218 -23 362 -23 c 0,2,3
 427 -23 427 -23 482.5 -3.5 c 128,-1,4
 538 16 538 16 583.5 46 c 128,-1,5
 629 76 629 76 663.5 112.5 c 128,-1,6
 698 149 698 149 721 184 c 2,7,-1
 736 207 l 1,8,-1
 727 0 l 1,9,-1
 911 0 l 1,10,11
 938 295 938 295 956 404 c 0,12,13
 962 441 962 441 968 474 c 2,14,-1
 1077 1034 l 1,15,-1
 913 999 l 1,16,17
 866 1013 866 1013 806 1023.5 c 128,-1,18
 746 1034 746 1034 670 1034 c 0,19,20
 528 1034 528 1034 416 981.5 c 128,-1,21
 304 929 304 929 227 835.5 c 128,-1,22
 150 742 150 742 109 611.5 c 128,-1,23
 68 481 68 481 68 327 c 0,24,0
 68 159 68 159 143 68 c 128,-1,1
527.5 212 m 128,-1,26
 474 174 474 174 426 174 c 0,27,28
 366 174 366 174 337 219 c 128,-1,29
 308 264 308 264 308 346 c 0,30,31
 308 387 308 387 314 441 c 0,32,33
 327 558 327 558 376 660 c 0,34,35
 402 714 402 714 442 756.5 c 128,-1,36
 482 799 482 799 536.5 825.5 c 128,-1,37
 591 852 591 852 664 852 c 0,38,39
 735 852 735 852 803 828 c 1,40,-1
 810 826 l 1,41,-1
 761 581 l 2,42,43
 748 512 748 512 712 440 c 128,-1,44
 676 368 676 368 628.5 309 c 128,-1,25
 581 250 581 250 527.5 212 c 128,-1,26
EndSplineSet
Substitution2: "<10,1> Superiors in Latin lookup 5 subtable" uni1D43
EndChar

StartChar: b
Encoding: 98 98 69
Width: 1126
Flags: W
LayerCount: 2
Fore
SplineSet
1011 404 m 128,-1,1
 1052 534 1052 534 1052 689 c 0,2,3
 1052 856 1052 856 977 947 c 128,-1,4
 902 1038 902 1038 758 1038 c 0,5,6
 659 1038 659 1038 571 990 c 0,7,8
 527 966 527 966 491 933 c 128,-1,9
 455 900 455 900 428 858 c 2,10,-1
 394 803 l 1,11,-1
 487 1074 l 1,12,-1
 554 1413 l 1,13,-1
 325 1413 l 1,14,-1
 54 41 l 1,15,16
 186 -1 186 -1 332 -14 c 0,17,18
 386 -18 386 -18 451 -18 c 0,19,20
 593 -18 593 -18 704.5 34.5 c 128,-1,21
 816 87 816 87 893 180.5 c 128,-1,0
 970 274 970 274 1011 404 c 128,-1,1
783 797 m 128,-1,23
 812 752 812 752 812 670 c 0,24,25
 812 628 812 628 806 574 c 0,26,27
 793 458 793 458 744 356 c 0,28,29
 718 302 718 302 679 259.5 c 128,-1,30
 640 217 640 217 585 190.5 c 128,-1,31
 530 164 530 164 457 164 c 0,32,33
 385 164 385 164 317 188 c 1,34,-1
 310 190 l 1,35,-1
 360 435 l 2,36,37
 376 525 376 525 433 621 c 0,38,39
 460 666 460 666 492 706 c 0,40,41
 558 789 558 789 626 824 c 0,42,43
 661 842 661 842 694 842 c 0,44,22
 754 842 754 842 783 797 c 128,-1,23
EndSplineSet
Substitution2: "<10,1> Superiors in Latin lookup 5 subtable" uni1D47
EndChar

StartChar: c
Encoding: 99 99 70
Width: 1126
Flags: W
LayerCount: 2
Fore
SplineSet
880 44 m 1,0,-1
 880 239 l 1,1,2
 736 183 736 183 612 183 c 0,3,4
 500 183 500 183 438 238 c 128,-1,5
 376 293 376 293 376 399 c 0,6,7
 376 439 376 439 383 486 c 0,8,9
 399 589 399 589 453 676 c 0,10,11
 481 722 481 722 522.5 757.5 c 128,-1,12
 564 793 564 793 619 814 c 128,-1,13
 674 835 674 835 742.5 835 c 128,-1,14
 811 835 811 835 879 818 c 128,-1,15
 947 801 947 801 1001 775 c 1,16,-1
 1042 991 l 1,17,18
 991 1007 991 1007 918.5 1019.5 c 128,-1,19
 846 1032 846 1032 754 1032 c 0,20,21
 648 1032 648 1032 560.5 1005.5 c 128,-1,22
 473 979 473 979 403.5 932.5 c 128,-1,23
 334 886 334 886 281.5 823 c 128,-1,24
 229 760 229 760 195 686 c 128,-1,25
 161 612 161 612 143.5 531.5 c 128,-1,26
 126 451 126 451 126 371 c 0,27,28
 126 179 126 179 238.5 80.5 c 128,-1,29
 351 -18 351 -18 569 -18 c 0,30,31
 636 -18 636 -18 719.5 -2 c 128,-1,32
 803 14 803 14 880 44 c 1,0,-1
EndSplineSet
Substitution2: "<10,1> Superiors in Latin lookup 5 subtable" uni1D9C
EndChar

StartChar: d
Encoding: 100 100 71
Width: 1126
Flags: W
LayerCount: 2
Fore
SplineSet
764.5 1029 m 128,-1,1
 724 1034 724 1034 670 1034 c 0,2,3
 528 1034 528 1034 416 981.5 c 128,-1,4
 304 929 304 929 227 835.5 c 128,-1,5
 150 742 150 742 109 611.5 c 128,-1,6
 68 481 68 481 68 327 c 0,7,8
 68 159 68 159 143 68 c 128,-1,9
 218 -23 218 -23 362 -23 c 0,10,11
 427 -23 427 -23 482.5 -3.5 c 128,-1,12
 538 16 538 16 583.5 45.5 c 128,-1,13
 629 75 629 75 663.5 111.5 c 128,-1,14
 698 148 698 148 721 183 c 2,15,-1
 736 206 l 1,16,-1
 727 0 l 1,17,-1
 911 0 l 1,18,19
 938 294 938 294 956 403 c 0,20,21
 962 440 962 440 968 472 c 2,22,-1
 1154 1413 l 1,23,-1
 926 1413 l 1,24,-1
 846 1017 l 1,25,0
 805 1024 805 1024 764.5 1029 c 128,-1,1
337 219 m 128,-1,27
 308 264 308 264 308 346 c 0,28,29
 308 387 308 387 314 441 c 0,30,31
 327 558 327 558 376 660 c 0,32,33
 402 714 402 714 442 756.5 c 128,-1,34
 482 799 482 799 536.5 825.5 c 128,-1,35
 591 852 591 852 664 852 c 0,36,37
 708 852 708 852 744.5 844 c 128,-1,38
 781 836 781 836 810 826 c 1,39,-1
 761 581 l 2,40,41
 748 512 748 512 712 440 c 128,-1,42
 676 368 676 368 628.5 309 c 128,-1,43
 581 250 581 250 527.5 212 c 128,-1,44
 474 174 474 174 426 174 c 0,45,26
 366 174 366 174 337 219 c 128,-1,27
EndSplineSet
Substitution2: "<10,1> Superiors in Latin lookup 5 subtable" uni1D48
EndChar

StartChar: e
Encoding: 101 101 72
Width: 1126
Flags: W
LayerCount: 2
Fore
SplineSet
320 360 m 0,0,1
 320 399 320 399 326 430 c 1,2,-1
 465 430 l 2,3,4
 622 430 622 430 732 455 c 0,5,6
 944 503 944 503 1006 629 c 0,7,8
 1036 691 1036 691 1036 768 c 0,9,10
 1036 828 1036 828 1012.5 877.5 c 128,-1,11
 989 927 989 927 944 962.5 c 128,-1,12
 899 998 899 998 832.5 1018 c 128,-1,13
 766 1038 766 1038 680 1038 c 0,14,15
 548 1038 548 1038 440.5 983.5 c 128,-1,16
 333 929 333 929 256.5 835.5 c 128,-1,17
 180 742 180 742 138 617.5 c 128,-1,18
 96 493 96 493 96 354 c 0,19,20
 96 259 96 259 124 188 c 0,21,22
 180 49 180 49 334 1 c 0,23,24
 411 -23 411 -23 507 -23 c 128,-1,25
 603 -23 603 -23 697.5 -9 c 128,-1,26
 792 5 792 5 874 26 c 1,27,-1
 874 203 l 1,28,29
 798 182 798 182 714.5 170.5 c 128,-1,30
 631 159 631 159 555 159 c 0,31,32
 440 159 440 159 380 211.5 c 128,-1,33
 320 264 320 264 320 360 c 0,0,1
647 603 m 0,34,35
 583 590 583 590 477 590 c 2,36,-1
 361 590 l 1,37,-1
 364 600 l 2,38,39
 379 654 379 654 405 702 c 0,40,41
 459 801 459 801 551 842 c 0,42,43
 598 864 598 864 655 864 c 0,44,45
 726 864 726 864 769 831 c 128,-1,46
 812 798 812 798 812 741 c 0,47,48
 812 711 812 711 800 683 c 0,49,50
 773 626 773 626 647 603 c 0,34,35
EndSplineSet
Substitution2: "<10,1> Superiors in Latin lookup 5 subtable" uni1D49
EndChar

StartChar: f
Encoding: 102 102 73
Width: 1126
Flags: W
LayerCount: 2
Fore
SplineSet
683 868 m 1,0,-1
 714 1025 l 2,1,2
 736 1133 736 1133 795.5 1193.5 c 128,-1,3
 855 1254 855 1254 968 1254 c 128,-1,4
 1081 1254 1081 1254 1184 1229 c 1,5,-1
 1220 1405 l 1,6,7
 1173 1416 1173 1416 1111.5 1424 c 128,-1,8
 1050 1432 1050 1432 987 1432 c 0,9,10
 772 1432 772 1432 648 1332 c 0,11,12
 525 1231 525 1231 482 1019 c 2,13,-1
 452 865 l 1,14,-1
 158 865 l 1,15,-1
 122 688 l 1,16,-1
 417 688 l 1,17,-1
 275 -32 l 2,18,19
 264 -87 264 -87 240.5 -127.5 c 128,-1,20
 217 -168 217 -168 183 -193 c 0,21,22
 118 -242 118 -242 25 -242 c 0,23,24
 -26 -242 -26 -242 -72 -237 c 1,25,-1
 -110 -415 l 1,26,27
 -61 -420 -61 -420 10 -420 c 0,28,29
 106 -420 106 -420 188 -399.5 c 128,-1,30
 270 -379 270 -379 333.5 -331.5 c 128,-1,31
 397 -284 397 -284 442 -207.5 c 128,-1,32
 487 -131 487 -131 509 -18 c 2,33,-1
 647 690 l 1,34,-1
 1047 690 l 1,35,-1
 1083 868 l 1,36,-1
 683 868 l 1,0,-1
0 1016 m 1024,37,-1
EndSplineSet
Substitution2: "<10,1> Superiors in Latin lookup 5 subtable" uni1DA0
EndChar

StartChar: g
Encoding: 103 103 74
Width: 1126
Flags: W
LayerCount: 2
Fore
SplineSet
201 -402 m 128,-1,1
 291 -420 291 -420 375 -420 c 0,2,3
 489 -420 489 -420 573 -394 c 0,4,5
 738 -343 738 -343 814 -190 c 0,6,7
 852 -114 852 -114 872 -14 c 2,8,-1
 1077 1034 l 1,9,-1
 913 999 l 1,10,11
 866 1013 866 1013 806 1023.5 c 128,-1,12
 746 1034 746 1034 670 1034 c 0,13,14
 528 1034 528 1034 416 981.5 c 128,-1,15
 304 929 304 929 227 835.5 c 128,-1,16
 150 742 150 742 109 611.5 c 128,-1,17
 68 481 68 481 68 327 c 0,18,19
 68 159 68 159 143 68 c 128,-1,20
 218 -23 218 -23 362 -23 c 0,21,22
 411 -23 411 -23 459 -10.5 c 128,-1,23
 507 2 507 2 550 25.5 c 128,-1,24
 593 49 593 49 629 82.5 c 128,-1,25
 665 116 665 116 692 158 c 2,26,-1
 729 218 l 1,27,-1
 672 60 l 2,28,29
 655 15 655 15 644 -29 c 0,30,31
 619 -136 619 -136 556 -190 c 128,-1,32
 493 -244 493 -244 379 -244 c 0,33,34
 306 -244 306 -244 246.5 -228.5 c 128,-1,35
 187 -213 187 -213 127 -183 c 1,36,-1
 39 -348 l 1,37,0
 111 -384 111 -384 201 -402 c 128,-1,1
527.5 212 m 128,-1,39
 474 174 474 174 426 174 c 0,40,41
 366 174 366 174 337 219 c 128,-1,42
 308 264 308 264 308 346 c 0,43,44
 308 387 308 387 314 441 c 0,45,46
 327 558 327 558 376 660 c 0,47,48
 402 714 402 714 442 756.5 c 128,-1,49
 482 799 482 799 536.5 825.5 c 128,-1,50
 591 852 591 852 664 852 c 0,51,52
 735 852 735 852 803 828 c 1,53,-1
 810 826 l 1,54,-1
 761 581 l 2,55,56
 748 512 748 512 712 440 c 128,-1,57
 676 368 676 368 628.5 309 c 128,-1,38
 581 250 581 250 527.5 212 c 128,-1,39
EndSplineSet
Substitution2: "<10,1> Superiors in Latin lookup 5 subtable" uni1D4D
EndChar

StartChar: h
Encoding: 104 104 75
Width: 1126
Flags: W
LayerCount: 2
Fore
SplineSet
630 831 m 0,0,1
 666 849 666 849 700 849 c 0,2,3
 756 849 756 849 778 800 c 0,4,5
 791 774 791 774 791 739.5 c 128,-1,6
 791 705 791 705 783 668 c 2,7,-1
 652 15 l 1,8,-1
 881 15 l 1,9,-1
 1013 666 l 2,10,11
 1025 726 1025 726 1025 778 c 0,12,13
 1025 875 1025 875 984 939 c 0,14,15
 953 987 953 987 898 1012.5 c 128,-1,16
 843 1038 843 1038 764 1038 c 0,17,18
 713 1038 713 1038 664 1025.5 c 128,-1,19
 615 1013 615 1013 571.5 989.5 c 128,-1,20
 528 966 528 966 491.5 933 c 128,-1,21
 455 900 455 900 428 858 c 2,22,-1
 394 803 l 1,23,-1
 487 1074 l 1,24,-1
 554 1413 l 1,25,-1
 325 1413 l 1,26,-1
 46 15 l 1,27,-1
 275 15 l 1,28,-1
 360 443 l 2,29,30
 375 528 375 528 434 629 c 0,31,32
 460 674 460 674 492 714 c 0,33,34
 560 797 560 797 630 831 c 0,0,1
EndSplineSet
Substitution2: "<10,1> Superiors in Latin lookup 5 subtable" uni02B0
EndChar

StartChar: i
Encoding: 105 105 76
Width: 1126
Flags: W
LayerCount: 2
Fore
SplineSet
714 672 m 2,0,1
 727 742 727 742 727 798 c 0,2,3
 727 896 727 896 686 952 c 0,4,5
 621 1039 621 1039 455 1039 c 0,6,7
 378 1039 378 1039 306 1017.5 c 128,-1,8
 234 996 234 996 172 961 c 1,9,-1
 172 788 l 1,10,11
 237 820 237 820 293.5 840 c 128,-1,12
 350 860 350 860 397 860 c 0,13,14
 457 860 457 860 479 817 c 0,15,16
 490 796 490 796 490 760.5 c 128,-1,17
 490 725 490 725 480 677 c 2,18,-1
 415 344 l 2,19,20
 401 273 401 273 401 215 c 0,21,22
 401 118 401 118 442 64 c 0,23,24
 507 -23 507 -23 674 -23 c 0,25,26
 750 -23 750 -23 822.5 -1 c 128,-1,27
 895 21 895 21 958 55 c 1,28,-1
 958 228 l 1,29,30
 891 196 891 196 835 176 c 128,-1,31
 779 156 779 156 731 156 c 0,32,33
 670 156 670 156 649 199 c 0,34,35
 639 220 639 220 639 255.5 c 128,-1,36
 639 291 639 291 648 339 c 2,37,-1
 714 672 l 2,0,1
799.5 1195.5 m 128,-1,39
 822 1217 822 1217 835 1246.5 c 128,-1,40
 848 1276 848 1276 848 1307.5 c 128,-1,41
 848 1339 848 1339 838 1364.5 c 128,-1,42
 828 1390 828 1390 808.5 1410 c 128,-1,43
 789 1430 789 1430 761.5 1442 c 128,-1,44
 734 1454 734 1454 701 1454 c 128,-1,45
 668 1454 668 1454 638 1441.5 c 128,-1,46
 608 1429 608 1429 585 1407.5 c 128,-1,47
 562 1386 562 1386 549 1357 c 128,-1,48
 536 1328 536 1328 536 1296.5 c 128,-1,49
 536 1265 536 1265 546.5 1239 c 128,-1,50
 557 1213 557 1213 577 1193.5 c 128,-1,51
 597 1174 597 1174 625 1162 c 128,-1,52
 653 1150 653 1150 686 1150 c 128,-1,53
 719 1150 719 1150 748 1162 c 128,-1,38
 777 1174 777 1174 799.5 1195.5 c 128,-1,39
EndSplineSet
EndChar

StartChar: j
Encoding: 106 106 77
Width: 1126
Flags: W
LayerCount: 2
Fore
SplineSet
-92 -302 m 1,0,1
 30 -420 30 -420 240 -420 c 0,2,3
 341 -420 341 -420 429 -397 c 128,-1,4
 517 -374 517 -374 586 -321 c 128,-1,5
 655 -268 655 -268 705 -185 c 0,6,7
 755 -100 755 -100 779 23 c 2,8,-1
 906 672 l 2,9,10
 920 743 920 743 920 800 c 0,11,12
 920 896 920 896 879 951 c 0,13,14
 814 1039 814 1039 637 1039 c 0,15,16
 532 1039 532 1039 437 1017.5 c 128,-1,17
 342 996 342 996 248 958 c 1,18,-1
 248 781 l 1,19,20
 295 798 295 798 338.5 813 c 128,-1,21
 382 828 382 828 424 839 c 0,22,23
 510 861 510 861 579 861 c 128,-1,24
 648 861 648 861 672 820 c 0,25,26
 685 796 685 796 685 759 c 0,27,28
 685 734 685 734 679 704 c 2,29,-1
 544 20 l 2,30,31
 519 -107 519 -107 450 -174 c 0,32,33
 381 -240 381 -240 266 -240 c 0,34,35
 193 -240 193 -240 133 -210 c 0,36,37
 85 -186 85 -186 47 -146 c 1,38,-1
 -92 -302 l 1,0,1
986 1195.5 m 128,-1,40
 1008 1217 1008 1217 1021 1246.5 c 128,-1,41
 1034 1276 1034 1276 1034 1307.5 c 128,-1,42
 1034 1339 1034 1339 1024 1364.5 c 128,-1,43
 1014 1390 1014 1390 994.5 1410 c 128,-1,44
 975 1430 975 1430 947.5 1442 c 128,-1,45
 920 1454 920 1454 887.5 1454 c 128,-1,46
 855 1454 855 1454 825 1441.5 c 128,-1,47
 795 1429 795 1429 772 1407.5 c 128,-1,48
 749 1386 749 1386 735.5 1357 c 128,-1,49
 722 1328 722 1328 722 1296.5 c 128,-1,50
 722 1265 722 1265 733 1239 c 128,-1,51
 744 1213 744 1213 763.5 1193.5 c 128,-1,52
 783 1174 783 1174 811 1162 c 128,-1,53
 839 1150 839 1150 872 1150 c 128,-1,54
 905 1150 905 1150 934.5 1162 c 128,-1,39
 964 1174 964 1174 986 1195.5 c 128,-1,40
EndSplineSet
Substitution2: "<10,1> Superiors in Latin lookup 5 subtable" uni02B2
EndChar

StartChar: k
Encoding: 107 107 78
Width: 1126
Flags: W
LayerCount: 2
Fore
SplineSet
1036 649 m 0,0,1
 1060 708 1060 708 1060 782 c 0,2,3
 1060 844 1060 844 1038 891.5 c 128,-1,4
 1016 939 1016 939 976 971.5 c 128,-1,5
 936 1004 936 1004 881 1021 c 128,-1,6
 826 1038 826 1038 760 1038 c 0,7,8
 656 1038 656 1038 569 990 c 0,9,10
 481 941 481 941 428 858 c 2,11,-1
 394 803 l 1,12,-1
 487 1074 l 1,13,-1
 554 1413 l 1,14,-1
 325 1413 l 1,15,-1
 46 15 l 1,16,-1
 275 15 l 1,17,-1
 368 484 l 2,18,19
 380 546 380 546 414.5 613 c 128,-1,20
 449 680 449 680 496 734.5 c 128,-1,21
 543 789 543 789 597.5 825 c 128,-1,22
 652 861 652 861 702 861 c 0,23,24
 761 861 761 861 794.5 835 c 128,-1,25
 828 809 828 809 828 746 c 0,26,27
 828 702 828 702 806 665.5 c 128,-1,28
 784 629 784 629 734 600 c 0,29,30
 632 542 632 542 418 514 c 1,31,-1
 698 15 l 1,32,-1
 975 15 l 1,33,-1
 715 415 l 1,34,-1
 725 418 l 1,35,36
 966 477 966 477 1036 649 c 0,0,1
EndSplineSet
Substitution2: "<10,1> Superiors in Latin lookup 5 subtable" uni1D4F
EndChar

StartChar: l
Encoding: 108 108 79
Width: 1126
Flags: W
LayerCount: 2
Fore
SplineSet
727 1072 m 2,0,1
 740 1141 740 1141 740 1197 c 0,2,3
 740 1293 740 1293 699 1348 c 0,4,5
 634 1434 634 1434 468 1434 c 0,6,7
 391 1434 391 1434 319 1412.5 c 128,-1,8
 247 1391 247 1391 184 1357 c 1,9,-1
 184 1186 l 1,10,11
 250 1218 250 1218 306.5 1238 c 128,-1,12
 363 1258 363 1258 410 1258 c 0,13,14
 470 1258 470 1258 492 1215 c 0,15,16
 503 1194 503 1194 503 1159 c 128,-1,17
 503 1124 503 1124 493 1077 c 2,18,-1
 349 344 l 2,19,20
 335 272 335 272 335 215 c 0,21,22
 335 118 335 118 376 64 c 0,23,24
 441 -23 441 -23 608 -23 c 0,25,26
 684 -23 684 -23 756.5 -1 c 128,-1,27
 829 21 829 21 892 55 c 1,28,-1
 892 228 l 1,29,30
 825 196 825 196 769 175.5 c 128,-1,31
 713 155 713 155 665 155 c 0,32,33
 604 155 604 155 583 199 c 0,34,35
 573 220 573 220 573 255.5 c 128,-1,36
 573 291 573 291 582 339 c 2,37,-1
 727 1072 l 2,0,1
EndSplineSet
EndChar

StartChar: m
Encoding: 109 109 80
Width: 1126
Flags: W
LayerCount: 2
Fore
SplineSet
821 827.5 m 128,-1,1
 854 859 854 859 879 859 c 0,2,3
 898 859 898 859 907 844 c 0,4,5
 914 832 914 832 914 811 c 0,6,7
 914 772 914 772 900 698 c 2,8,-1
 763 15 l 1,9,-1
 959 15 l 1,10,-1
 1099 718 l 2,11,12
 1113 789 1113 789 1113 844 c 0,13,14
 1113 915 1113 915 1088 959 c 0,15,16
 1046 1036 1046 1036 940 1036 c 0,17,18
 905 1036 905 1036 875 1025 c 0,19,20
 817 1004 817 1004 757 934 c 0,21,22
 728 900 728 900 696 855 c 2,23,-1
 675 826 l 1,24,-1
 683 861 l 2,25,26
 688 888 688 888 688 910 c 0,27,28
 688 970 688 970 654 1003 c 128,-1,29
 620 1036 620 1036 549 1036 c 0,30,31
 488 1036 488 1036 435.5 1000 c 128,-1,32
 383 964 383 964 323 884 c 1,33,-1
 289 834 l 1,34,-1
 295 1016 l 1,35,-1
 130 1016 l 1,36,37
 105 772 105 772 98 713 c 0,38,39
 85 608 85 608 73 549 c 2,40,-1
 -34 15 l 1,41,-1
 162 15 l 1,42,-1
 263 525 l 2,43,44
 275 583 275 583 302 642 c 128,-1,45
 329 701 329 701 361.5 748.5 c 128,-1,46
 394 796 394 796 426.5 827.5 c 128,-1,47
 459 859 459 859 480 859 c 0,48,49
 517 859 517 859 517 811 c 0,50,51
 517 772 517 772 503 698 c 2,52,-1
 365 15 l 1,53,-1
 559 15 l 1,54,-1
 661 525 l 2,55,56
 672 583 672 583 698.5 642 c 128,-1,57
 725 701 725 701 756.5 748.5 c 128,-1,0
 788 796 788 796 821 827.5 c 128,-1,1
EndSplineSet
Substitution2: "<10,1> Superiors in Latin lookup 5 subtable" uni1D50
EndChar

StartChar: n
Encoding: 110 110 81
Width: 1126
Flags: W
LayerCount: 2
Fore
SplineSet
633 831 m 0,0,1
 668 849 668 849 700 849 c 0,2,3
 756 849 756 849 778 800 c 0,4,5
 791 774 791 774 791 739.5 c 128,-1,6
 791 705 791 705 783 668 c 2,7,-1
 652 15 l 1,8,-1
 881 15 l 1,9,-1
 1013 666 l 2,10,11
 1025 726 1025 726 1025 778 c 0,12,13
 1025 875 1025 875 984 939 c 0,14,15
 953 987 953 987 898 1012.5 c 128,-1,16
 843 1038 843 1038 764 1038 c 0,17,18
 700 1038 700 1038 644.5 1019 c 128,-1,19
 589 1000 589 1000 543.5 970.5 c 128,-1,20
 498 941 498 941 463 905 c 128,-1,21
 428 869 428 869 405 834 c 2,22,-1
 390 811 l 1,23,-1
 400 1016 l 1,24,-1
 216 1016 l 1,25,26
 191 772 191 772 184 713 c 0,27,28
 171 608 171 608 159 549 c 2,29,-1
 52 15 l 1,30,-1
 281 15 l 1,31,-1
 366 443 l 2,32,33
 384 533 384 533 440 629 c 0,34,35
 466 674 466 674 498 714 c 0,36,37
 564 797 564 797 633 831 c 0,0,1
EndSplineSet
Substitution2: "<10,1> Superiors in Latin lookup 5 subtable" uni207F
EndChar

StartChar: o
Encoding: 111 111 82
Width: 1126
Flags: W
LayerCount: 2
Fore
SplineSet
298 2 m 0,0,1
 373 -23 373 -23 467 -23 c 128,-1,2
 561 -23 561 -23 642 3 c 128,-1,3
 723 29 723 29 789 75.5 c 128,-1,4
 855 122 855 122 906.5 186 c 128,-1,5
 958 250 958 250 992.5 325.5 c 128,-1,6
 1027 401 1027 401 1045.5 485 c 128,-1,7
 1064 569 1064 569 1064 655 c 0,8,9
 1064 753 1064 753 1035 825 c 0,10,11
 979 967 979 967 827 1014 c 0,12,13
 752 1038 752 1038 658.5 1038 c 128,-1,14
 565 1038 565 1038 484.5 1012.5 c 128,-1,15
 404 987 404 987 337.5 941 c 128,-1,16
 271 895 271 895 220 832.5 c 128,-1,17
 169 770 169 770 134 695 c 128,-1,18
 99 620 99 620 80.5 537.5 c 128,-1,19
 62 455 62 455 62 370 c 0,20,21
 62 273 62 273 91 202 c 0,22,23
 147 52 147 52 298 2 c 0,0,1
771.5 782.5 m 128,-1,25
 822 731 822 731 822 629 c 0,26,27
 822 584 822 584 814 534 c 0,28,29
 796 426 796 426 744 339 c 0,30,31
 718 293 718 293 682 258 c 128,-1,32
 646 223 646 223 601 201.5 c 128,-1,33
 556 180 556 180 500 180 c 0,34,35
 406 180 406 180 355 232.5 c 128,-1,36
 304 285 304 285 304 387 c 0,37,38
 304 432 304 432 312 482 c 0,39,40
 330 588 330 588 382 677 c 0,41,42
 408 723 408 723 444.5 757.5 c 128,-1,43
 481 792 481 792 526 813 c 128,-1,44
 571 834 571 834 627 834 c 0,45,24
 721 834 721 834 771.5 782.5 c 128,-1,25
EndSplineSet
Substitution2: "<10,1> Superiors in Latin lookup 5 subtable" uni1D52
EndChar

StartChar: p
Encoding: 112 112 83
Width: 1126
Flags: W
LayerCount: 2
Fore
SplineSet
361 -13 m 128,-1,1
 403 -18 403 -18 457 -18 c 0,2,3
 599 -18 599 -18 710.5 34.5 c 128,-1,4
 822 87 822 87 899 180.5 c 128,-1,5
 976 274 976 274 1017 404 c 128,-1,6
 1058 534 1058 534 1058 689 c 0,7,8
 1058 856 1058 856 983.5 947 c 128,-1,9
 909 1038 909 1038 764 1038 c 0,10,11
 700 1038 700 1038 644.5 1018.5 c 128,-1,12
 589 999 589 999 543.5 969.5 c 128,-1,13
 498 940 498 940 463 903.5 c 128,-1,14
 428 867 428 867 405 832 c 2,15,-1
 390 809 l 1,16,-1
 400 1016 l 1,17,-1
 216 1016 l 1,18,19
 191 769 191 769 184 710 c 0,20,21
 171 604 171 604 159 544 c 2,22,-1
 -28 -397 l 1,23,-1
 201 -397 l 1,24,-1
 276 -26 l 1,25,-1
 281 -1 l 1,26,0
 319 -8 319 -8 361 -13 c 128,-1,1
789 797 m 128,-1,28
 818 752 818 752 818 670 c 0,29,30
 818 628 818 628 812 574 c 0,31,32
 799 459 799 459 751 356 c 0,33,34
 725 302 725 302 685 259.5 c 128,-1,35
 645 217 645 217 590.5 190.5 c 128,-1,36
 536 164 536 164 463 164 c 0,37,38
 419 164 419 164 382 172 c 128,-1,39
 345 180 345 180 317 190 c 1,40,-1
 366 435 l 2,41,42
 384 526 384 526 440 621 c 0,43,44
 466 666 466 666 498 706 c 0,45,46
 564 789 564 789 633 824 c 0,47,48
 668 842 668 842 700 842 c 0,49,27
 760 842 760 842 789 797 c 128,-1,28
EndSplineSet
Substitution2: "<10,1> Superiors in Latin lookup 5 subtable" uni1D56
EndChar

StartChar: q
Encoding: 113 113 84
Width: 1126
Flags: W
LayerCount: 2
Fore
SplineSet
806 1023.5 m 128,-1,1
 746 1034 746 1034 670 1034 c 0,2,3
 528 1034 528 1034 416 981.5 c 128,-1,4
 304 929 304 929 227 835.5 c 128,-1,5
 150 742 150 742 109 611.5 c 128,-1,6
 68 481 68 481 68 327 c 0,7,8
 68 159 68 159 143 68 c 128,-1,9
 218 -23 218 -23 362 -23 c 0,10,11
 411 -23 411 -23 459 -10.5 c 128,-1,12
 507 2 507 2 550 25.5 c 128,-1,13
 593 49 593 49 629 82.5 c 128,-1,14
 665 116 665 116 692 158 c 2,15,-1
 725 212 l 1,16,-1
 634 -58 l 1,17,-1
 566 -397 l 1,18,-1
 795 -397 l 1,19,-1
 1077 1034 l 1,20,-1
 913 999 l 1,21,0
 866 1013 866 1013 806 1023.5 c 128,-1,1
527.5 212 m 128,-1,23
 474 174 474 174 426 174 c 0,24,25
 366 174 366 174 337 219 c 128,-1,26
 308 264 308 264 308 346 c 0,27,28
 308 387 308 387 314 441 c 0,29,30
 327 558 327 558 376 660 c 0,31,32
 402 714 402 714 442 756.5 c 128,-1,33
 482 799 482 799 536.5 825.5 c 128,-1,34
 591 852 591 852 664 852 c 0,35,36
 735 852 735 852 803 828 c 1,37,-1
 810 826 l 1,38,-1
 761 581 l 2,39,40
 748 512 748 512 712 440 c 128,-1,41
 676 368 676 368 628.5 309 c 128,-1,22
 581 250 581 250 527.5 212 c 128,-1,23
EndSplineSet
EndChar

StartChar: r
Encoding: 114 114 85
Width: 1126
Flags: W
LayerCount: 2
Fore
SplineSet
628.5 808.5 m 128,-1,1
 680 849 680 849 731 849 c 0,2,3
 804 849 804 849 826 801 c 0,4,5
 838 775 838 775 838 735.5 c 128,-1,6
 838 696 838 696 824 636 c 1,7,-1
 1055 636 l 1,8,9
 1071 737 1071 737 1071 771 c 0,10,11
 1071 869 1071 869 1031 932 c 0,12,13
 998 984 998 984 938 1011 c 128,-1,14
 878 1038 878 1038 793 1038 c 0,15,16
 727 1038 727 1038 671.5 1019 c 128,-1,17
 616 1000 616 1000 572 969 c 128,-1,18
 528 938 528 938 494 899 c 128,-1,19
 460 860 460 860 439 821 c 2,20,-1
 423 792 l 1,21,-1
 434 1016 l 1,22,-1
 251 1016 l 1,23,24
 226 772 226 772 219 713 c 0,25,26
 207 622 207 622 193 549 c 2,27,-1
 87 15 l 1,28,-1
 322 15 l 1,29,-1
 394 380 l 2,30,31
 412 469 412 469 448 553 c 128,-1,32
 484 637 484 637 530.5 702.5 c 128,-1,0
 577 768 577 768 628.5 808.5 c 128,-1,1
EndSplineSet
Substitution2: "<10,1> Superiors in Latin lookup 5 subtable" uni02B3
EndChar

StartChar: s
Encoding: 115 115 86
Width: 1126
Flags: W
LayerCount: 2
Fore
SplineSet
86 232 m 1,0,-1
 86 17 l 1,1,2
 239 -23 239 -23 446 -23 c 0,3,4
 547 -23 547 -23 635 -2.5 c 128,-1,5
 723 18 723 18 787.5 60 c 128,-1,6
 852 102 852 102 889 165 c 128,-1,7
 926 228 926 228 926 315 c 0,8,9
 926 411 926 411 860 476 c 128,-1,10
 794 541 794 541 660 584 c 0,11,12
 543 619 543 619 498 651 c 0,13,14
 473 668 473 668 463.5 687.5 c 128,-1,15
 454 707 454 707 454 730 c 128,-1,16
 454 753 454 753 465 775 c 128,-1,17
 476 797 476 797 502 817 c 0,18,19
 557 858 557 858 678 858 c 0,20,21
 738 858 738 858 811 849.5 c 128,-1,22
 884 841 884 841 976 814 c 1,23,-1
 976 1010 l 1,24,25
 925 1021 925 1021 856 1030 c 0,26,27
 788 1038 788 1038 688 1038 c 0,28,29
 571 1038 571 1038 481 1014 c 128,-1,30
 391 990 391 990 331 948 c 128,-1,31
 271 906 271 906 239.5 851 c 128,-1,32
 208 796 208 796 208 734 c 0,33,34
 208 625 208 625 276.5 554 c 128,-1,35
 345 483 345 483 483 440 c 0,36,37
 542 422 542 422 579 407 c 128,-1,38
 616 392 616 392 638 376 c 128,-1,39
 660 360 660 360 669 342 c 128,-1,40
 678 324 678 324 678 302 c 0,41,42
 678 241 678 241 621 202 c 0,43,44
 565 161 565 161 446 161 c 0,45,46
 285 161 285 161 86 232 c 1,0,-1
EndSplineSet
EndChar

StartChar: t
Encoding: 116 116 87
Width: 1126
Flags: W
LayerCount: 2
Fore
SplineSet
462 -1 m 128,-1,1
 532 -23 532 -23 631 -23 c 0,2,3
 743 -23 743 -23 890 13 c 1,4,-1
 890 193 l 1,5,6
 843 183 843 183 790 173 c 128,-1,7
 737 163 737 163 684 163 c 128,-1,8
 631 163 631 163 600.5 177.5 c 128,-1,9
 570 192 570 192 554 218 c 0,10,11
 538 245 538 245 538 286.5 c 128,-1,12
 538 328 538 328 548 377 c 2,13,-1
 639 835 l 1,14,-1
 1034 835 l 1,15,-1
 1068 1012 l 1,16,-1
 673 1012 l 1,17,-1
 738 1338 l 1,18,-1
 491 1277 l 1,19,-1
 438 1013 l 1,20,-1
 166 1013 l 1,21,-1
 132 836 l 1,22,-1
 404 836 l 1,23,-1
 312 377 l 2,24,25
 298 302 298 302 298 243 c 0,26,27
 298 130 298 130 352 67 c 0,28,0
 392 21 392 21 462 -1 c 128,-1,1
EndSplineSet
Substitution2: "<10,1> Superiors in Latin lookup 5 subtable" uni1D57
EndChar

StartChar: u
Encoding: 117 117 88
Width: 1126
Flags: W
LayerCount: 2
Fore
SplineSet
527.5 205 m 128,-1,1
 474 167 474 167 426 167 c 0,2,3
 370 167 370 167 348 216 c 0,4,5
 336 243 336 243 336 282 c 0,6,7
 336 312 336 312 343 348 c 2,8,-1
 474 1001 l 1,9,-1
 246 1001 l 1,10,-1
 113 349 l 2,11,12
 101 288 101 288 101 236 c 0,13,14
 101 140 101 140 142 77 c 0,15,16
 173 29 173 29 228 3 c 128,-1,17
 283 -23 283 -23 362 -23 c 0,18,19
 427 -23 427 -23 482.5 -4 c 128,-1,20
 538 15 538 15 583.5 44.5 c 128,-1,21
 629 74 629 74 663.5 110 c 128,-1,22
 698 146 698 146 721 181 c 2,23,-1
 736 203 l 1,24,-1
 727 0 l 1,25,-1
 911 0 l 1,26,27
 938 291 938 291 956 398 c 0,28,29
 962 435 962 435 968 467 c 2,30,-1
 1074 1001 l 1,31,-1
 846 1001 l 1,32,-1
 761 573 l 2,33,34
 748 504 748 504 712 432 c 128,-1,35
 676 360 676 360 628.5 301.5 c 128,-1,0
 581 243 581 243 527.5 205 c 128,-1,1
EndSplineSet
Substitution2: "<10,1> Superiors in Latin lookup 5 subtable" uni1D58
EndChar

StartChar: v
Encoding: 118 118 89
Width: 1126
Flags: W
LayerCount: 2
Fore
SplineSet
330 8 m 1,0,-1
 562 8 l 1,1,2
 671 96 671 96 762 210 c 128,-1,3
 853 324 853 324 922 455 c 128,-1,4
 991 586 991 586 1035 726.5 c 128,-1,5
 1079 867 1079 867 1096 1008 c 1,6,-1
 851 1008 l 1,7,8
 832 775 832 775 748 576 c 0,9,10
 663 372 663 372 523 239 c 1,11,-1
 513 229 l 1,12,-1
 371 1008 l 1,13,-1
 132 1008 l 1,14,-1
 330 8 l 1,0,-1
EndSplineSet
Substitution2: "<10,1> Superiors in Latin lookup 5 subtable" uni1D5B
EndChar

StartChar: w
Encoding: 119 119 90
Width: 1126
Flags: W
LayerCount: 2
Fore
SplineSet
609 8 m 1,0,-1
 792 8 l 1,1,2
 877 91 877 91 942 207.5 c 128,-1,3
 1007 324 1007 324 1053.5 458.5 c 128,-1,4
 1100 593 1100 593 1127 734.5 c 128,-1,5
 1154 876 1154 876 1163 1008 c 1,6,-1
 951 1008 l 1,7,8
 942 805 942 805 903 627 c 0,9,10
 882 530 882 530 850 440.5 c 128,-1,11
 818 351 818 351 772 279 c 2,12,-1
 761 261 l 1,13,-1
 741 427 l 1,14,-1
 694 728 l 1,15,-1
 519 728 l 1,16,-1
 357 423 l 1,17,-1
 270 245 l 1,18,-1
 288 443 l 1,19,-1
 328 1008 l 1,20,-1
 116 1008 l 1,21,-1
 57 8 l 1,22,-1
 319 8 l 1,23,-1
 485 322 l 1,24,-1
 552 462 l 1,25,-1
 564 323 l 1,26,-1
 609 8 l 1,0,-1
EndSplineSet
Substitution2: "<10,1> Superiors in Latin lookup 5 subtable" uni02B7
EndChar

StartChar: x
Encoding: 120 120 91
Width: 1126
Flags: W
LayerCount: 2
Fore
SplineSet
-53 8 m 1,0,-1
 233 8 l 1,1,-1
 539 355 l 1,2,-1
 705 8 l 1,3,-1
 981 8 l 1,4,-1
 718 515 l 1,5,-1
 1161 1008 l 1,6,-1
 896 1008 l 1,7,-1
 600 669 l 1,8,-1
 435 1008 l 1,9,-1
 166 1008 l 1,10,-1
 423 511 l 1,11,-1
 -53 8 l 1,0,-1
EndSplineSet
EndChar

StartChar: y
Encoding: 121 121 92
Width: 1126
Flags: W
LayerCount: 2
Fore
SplineSet
-108 -221 m 1,0,-1
 -108 -413 l 1,1,2
 -52 -420 -52 -420 -0.5 -420 c 128,-1,3
 51 -420 51 -420 101 -411 c 0,4,5
 208 -392 208 -392 311 -316 c 0,6,7
 428 -229 428 -229 566 -57 c 0,8,9
 639 34 639 34 715.5 143.5 c 128,-1,10
 792 253 792 253 843 335.5 c 128,-1,11
 894 418 894 418 933 491.5 c 128,-1,12
 972 565 972 565 1000 630 c 0,13,14
 1052 757 1052 757 1077 883 c 0,15,16
 1088 941 1088 941 1096 1001 c 1,17,-1
 851 1001 l 1,18,19
 841 875 841 875 812 768 c 0,20,21
 781 655 781 655 714 525 c 0,22,23
 652 406 652 406 516 204 c 1,24,-1
 371 1001 l 1,25,-1
 132 1001 l 1,26,-1
 332 -9 l 1,27,28
 280 -74 280 -74 239.5 -116 c 128,-1,29
 199 -158 199 -158 161.5 -183.5 c 128,-1,30
 124 -209 124 -209 87.5 -219.5 c 128,-1,31
 51 -230 51 -230 8 -230 c 0,32,33
 -53 -230 -53 -230 -108 -221 c 1,0,-1
EndSplineSet
Substitution2: "<10,1> Superiors in Latin lookup 5 subtable" uni02B8
EndChar

StartChar: z
Encoding: 122 122 93
Width: 1126
Flags: W
LayerCount: 2
Fore
SplineSet
230 814 m 1,0,-1
 714 814 l 1,1,-1
 89 168 l 1,2,-1
 56 7 l 1,3,-1
 868 7 l 1,4,-1
 909 208 l 1,5,-1
 416 207 l 1,6,-1
 1027 846 l 1,7,-1
 1060 1008 l 1,8,-1
 268 1008 l 1,9,-1
 230 814 l 1,0,-1
EndSplineSet
Substitution2: "<10,1> Superiors in Latin lookup 5 subtable" uni1DBB
EndChar

StartChar: braceleft
Encoding: 123 123 94
Width: 1126
Flags: W
LayerCount: 2
Fore
SplineSet
332 490 m 2,0,1
 534 490 534 490 530 380 c 0,2,3
 529 349 529 349 512 318 c 256,4,5
 495 287 495 287 442 236 c 0,6,7
 384 180 384 180 354 138 c 0,8,9
 306 71 306 71 286 -17 c 0,10,11
 285 -22 285 -22 268 -99 c 128,-1,12
 251 -176 251 -176 247 -193 c 0,13,14
 239 -235 239 -235 238 -258 c 0,15,16
 236 -321 236 -321 275 -361.5 c 128,-1,17
 314 -402 314 -402 415 -402 c 2,18,-1
 754 -402 l 1,19,-1
 788 -242 l 1,20,-1
 425 -242 l 1,21,-1
 473 -25 l 2,22,23
 490 52 490 52 521 94 c 0,24,25
 552 135 552 135 590 175 c 0,26,27
 641 225 641 225 681 277 c 0,28,29
 721 327 721 327 724 395 c 0,30,31
 726 462 726 462 681 504 c 0,32,33
 636 547 636 547 541 556 c 1,34,-1
 535 557 l 1,35,-1
 542 579 l 1,36,37
 673 595 673 595 737 652 c 0,38,39
 801 708 801 708 804 797 c 0,40,41
 806 847 806 847 788 887 c 256,42,43
 770 927 770 927 750 964 c 0,44,45
 730 1000 730 1000 717 1030 c 0,46,47
 704 1061 704 1061 706 1111 c 0,48,49
 706 1125 706 1125 712.5 1163.5 c 128,-1,50
 719 1202 719 1202 736 1280 c 1,51,-1
 1098 1280 l 1,52,-1
 1130 1440 l 1,53,-1
 794 1440 l 2,54,55
 681 1440 681 1440 620 1387.5 c 128,-1,56
 559 1335 559 1335 543 1251 c 2,57,-1
 527 1159 l 2,58,59
 519 1111 519 1111 518 1090 c 0,60,61
 516 1025 516 1025 537 983 c 0,62,63
 559 940 559 940 581 901 c 0,64,65
 599 867 599 867 607 843 c 0,66,67
 614 817 614 817 613 789 c 0,68,69
 610 720 610 720 546 684 c 0,70,71
 483 648 483 648 365 648 c 2,72,-1
 192 648 l 1,73,-1
 160 490 l 1,74,-1
 332 490 l 2,0,1
EndSplineSet
Substitution2: "'rtla' Right to Left Alternates in Greek lookup 0 subtable" braceright
EndChar

StartChar: bar
Encoding: 124 124 95
Width: 1126
Flags: W
LayerCount: 2
Fore
SplineSet
682 1630 m 1,0,-1
 273 -402 l 1,1,-1
 483 -402 l 1,2,-1
 892 1630 l 1,3,-1
 682 1630 l 1,0,-1
EndSplineSet
EndChar

StartChar: braceright
Encoding: 125 125 96
Width: 1126
Flags: W
LayerCount: 2
Fore
SplineSet
889 1294 m 0,0,1
 891 1357 891 1357 852 1397 c 0,2,3
 813 1438 813 1438 712 1438 c 2,4,-1
 373 1438 l 1,5,-1
 340 1278 l 1,6,-1
 702 1278 l 1,7,-1
 678 1161 l 2,8,9
 662 1084 662 1084 630 1042 c 0,10,11
 599 1001 599 1001 560 961 c 0,12,13
 509 911 509 911 469 859 c 0,14,15
 430 809 430 809 427 741 c 0,16,17
 425 674 425 674 470 632 c 0,18,19
 514 589 514 589 610 580 c 1,20,-1
 616 579 l 1,21,-1
 609 557 l 1,22,23
 478 541 478 541 414 484 c 0,24,25
 350 428 350 428 347 339 c 0,26,27
 345 289 345 289 363 249 c 0,28,29
 387 196 387 196 401 172 c 0,30,31
 421 136 421 136 434 106 c 0,32,33
 445 80 445 80 445 25 c 0,34,35
 445 5 445 5 438 -27 c 0,36,37
 436 -37 436 -37 391 -244 c 1,38,-1
 29 -244 l 1,39,-1
 -2 -404 l 1,40,-1
 333 -404 l 2,41,42
 447 -404 447 -404 507 -351 c 0,43,44
 567 -299 567 -299 584 -215 c 2,45,-1
 624 -23 l 2,46,47
 632 19 632 19 633 46 c 0,48,49
 636 111 636 111 614 153 c 0,50,51
 592 196 592 196 570 235 c 0,52,53
 551 269 551 269 544 293 c 0,54,55
 537 319 537 319 538 347 c 0,56,57
 540 416 540 416 605 452 c 0,58,59
 668 488 668 488 786 488 c 2,60,-1
 959 488 l 1,61,-1
 990 646 l 1,62,-1
 819 646 l 2,63,64
 618 646 618 646 621 756 c 0,65,66
 621 787 621 787 639 818 c 0,67,68
 650 838 650 838 709 900 c 0,69,70
 729 921 729 921 752 945 c 0,71,72
 806 999 806 999 836 1065 c 0,73,74
 855 1109 855 1109 865 1153 c 0,75,76
 871 1186 871 1186 880 1229 c 0,77,78
 888 1271 888 1271 889 1294 c 0,0,1
EndSplineSet
Substitution2: "'rtla' Right to Left Alternates in Greek lookup 0 subtable" braceleft
EndChar

StartChar: asciitilde
Encoding: 126 126 97
Width: 1126
Flags: W
LayerCount: 2
Fore
SplineSet
350 576 m 0,0,1
 383 576 383 576 412 557 c 128,-1,2
 441 538 441 538 469.5 510.5 c 128,-1,3
 498 483 498 483 529 451 c 128,-1,4
 560 419 560 419 596 392 c 128,-1,5
 632 365 632 365 675.5 346.5 c 128,-1,6
 719 328 719 328 774 328 c 0,7,8
 856 328 856 328 915 359 c 128,-1,9
 974 390 974 390 1012.5 441.5 c 128,-1,10
 1051 493 1051 493 1070.5 561 c 128,-1,11
 1090 629 1090 629 1094 702 c 1,12,-1
 904 702 l 1,13,14
 899 611 899 611 869 567 c 0,15,16
 840 524 840 524 788 524 c 0,17,18
 755 524 755 524 726 543.5 c 128,-1,19
 697 563 697 563 669 591 c 128,-1,20
 641 619 641 619 610 650.5 c 128,-1,21
 579 682 579 682 543 709 c 128,-1,22
 507 736 507 736 463.5 754 c 128,-1,23
 420 772 420 772 365 772 c 0,24,25
 282 772 282 772 223.5 742 c 128,-1,26
 165 712 165 712 127 660.5 c 128,-1,27
 89 609 89 609 70 541 c 128,-1,28
 51 473 51 473 47 400 c 1,29,-1
 237 400 l 1,30,31
 241 490 241 490 271 534 c 0,32,33
 299 576 299 576 350 576 c 0,0,1
EndSplineSet
EndChar

StartChar: exclamdown
Encoding: 161 161 98
Width: 1126
Flags: W
LayerCount: 2
Fore
SplineSet
677 602 m 1,0,-1
 483 602 l 1,1,-1
 249 -390 l 1,2,-1
 516 -390 l 1,3,-1
 677 602 l 1,0,-1
741.5 771.5 m 128,-1,5
 765 793 765 793 779.5 822.5 c 128,-1,6
 794 852 794 852 794 884 c 128,-1,7
 794 916 794 916 783 942.5 c 128,-1,8
 772 969 772 969 752.5 988.5 c 128,-1,9
 733 1008 733 1008 706 1019 c 128,-1,10
 679 1030 679 1030 646.5 1030 c 128,-1,11
 614 1030 614 1030 584 1018.5 c 128,-1,12
 554 1007 554 1007 531 985.5 c 128,-1,13
 508 964 508 964 494 934.5 c 128,-1,14
 480 905 480 905 480 872.5 c 128,-1,15
 480 840 480 840 490.5 814 c 128,-1,16
 501 788 501 788 520 768.5 c 128,-1,17
 539 749 539 749 566 737.5 c 128,-1,18
 593 726 593 726 625.5 726 c 128,-1,19
 658 726 658 726 688 738 c 128,-1,4
 718 750 718 750 741.5 771.5 c 128,-1,5
EndSplineSet
EndChar

StartChar: cent
Encoding: 162 162 99
Width: 1126
Flags: W
LayerCount: 2
Fore
SplineSet
756 1162 m 2,0,1
 647 1162 647 1162 559 1136 c 128,-1,2
 471 1110 471 1110 402.5 1065 c 128,-1,3
 334 1020 334 1020 284 959.5 c 128,-1,4
 234 899 234 899 202 829 c 128,-1,5
 170 759 170 759 154 681.5 c 128,-1,6
 138 604 138 604 138 528 c 0,7,8
 138 475 138 475 151.5 420.5 c 128,-1,9
 165 366 165 366 197.5 318.5 c 128,-1,10
 230 271 230 271 286 234 c 128,-1,11
 342 197 342 197 428 179 c 1,12,-1
 436 178 l 1,13,-1
 293 -242 l 1,14,-1
 452 -242 l 1,15,-1
 591 171 l 1,16,17
 673 174 673 174 740 186 c 0,18,19
 816 201 816 201 878 224 c 1,20,-1
 878 408 l 1,21,22
 826 391 826 391 774.5 379 c 128,-1,23
 723 367 723 367 664 364 c 2,24,-1
 653 363 l 1,25,-1
 855 962 l 1,26,27
 899 955 899 955 932.5 944 c 128,-1,28
 966 933 966 933 991 923 c 1,29,-1
 1031 1123 l 1,30,31
 989 1140 989 1140 916 1151 c 1,32,-1
 1028 1488 l 1,33,-1
 869 1488 l 1,34,-1
 761 1162 l 1,35,-1
 756 1162 l 2,0,1
382 578 m 0,36,37
 382 637 382 637 398 701.5 c 128,-1,38
 414 766 414 766 451 822.5 c 128,-1,39
 488 879 488 879 546 919.5 c 128,-1,40
 604 960 604 960 687 970 c 2,41,-1
 699 972 l 1,42,-1
 503 384 l 1,43,-1
 496 386 l 2,44,45
 458 395 458 395 435.5 419 c 128,-1,46
 413 443 413 443 401 471.5 c 128,-1,47
 389 500 389 500 385.5 529 c 128,-1,48
 382 558 382 558 382 578 c 0,36,37
EndSplineSet
EndChar

StartChar: sterling
Encoding: 163 163 100
Width: 1126
Flags: W
LayerCount: 2
Fore
SplineSet
807 1140 m 0,0,1
 865 1140 865 1140 919.5 1115 c 128,-1,2
 974 1090 974 1090 1011 1045 c 1,3,-1
 1141 1180 l 1,4,5
 1089 1243 1089 1243 1004.5 1282.5 c 128,-1,6
 920 1322 920 1322 812 1322 c 128,-1,7
 704 1322 704 1322 622 1294 c 0,8,9
 460 1239 460 1239 379 1083 c 0,10,11
 339 1005 339 1005 318 904 c 2,12,-1
 285 730 l 1,13,-1
 127 730 l 1,14,-1
 93 562 l 1,15,-1
 251 562 l 1,16,-1
 178 202 l 1,17,-1
 20 202 l 1,18,-1
 -18 8 l 1,19,-1
 903 8 l 1,20,-1
 941 202 l 1,21,-1
 403 202 l 1,22,-1
 475 562 l 1,23,-1
 881 562 l 1,24,-1
 915 730 l 1,25,-1
 509 730 l 1,26,-1
 542 894 l 2,27,28
 566 1016 566 1016 637 1079 c 0,29,30
 707 1140 707 1140 807 1140 c 0,0,1
EndSplineSet
EndChar

StartChar: currency
Encoding: 164 164 101
Width: 1126
Flags: W
LayerCount: 2
Fore
SplineSet
998 788 m 0,0,1
 998 865 998 865 972 923 c 2,2,-1
 970 928 l 1,3,-1
 1207 1173 l 1,4,-1
 1029 1286 l 1,5,-1
 827 1060 l 1,6,7
 791 1074 791 1074 754.5 1080 c 128,-1,8
 718 1086 718 1086 674 1086 c 0,9,10
 590 1086 590 1086 508 1058 c 2,11,-1
 502 1056 l 1,12,-1
 390 1286 l 1,13,-1
 186 1189 l 1,14,-1
 326 941 l 1,15,16
 260 863 260 863 224 750 c 0,17,18
 206 696 206 696 197 640.5 c 128,-1,19
 188 585 188 585 188 539.5 c 128,-1,20
 188 494 188 494 194 459 c 128,-1,21
 200 424 200 424 216 392 c 1,22,-1
 -21 148 l 1,23,-1
 159 35 l 1,24,-1
 356 261 l 1,25,26
 394 248 394 248 431 242 c 128,-1,27
 468 236 468 236 511 236 c 0,28,29
 600 236 600 236 677 265 c 1,30,-1
 684 267 l 1,31,-1
 796 35 l 1,32,-1
 997 132 l 1,33,-1
 855 380 l 1,34,35
 921 456 921 456 960 571 c 0,36,37
 979 625 979 625 988.5 681 c 128,-1,38
 998 737 998 737 998 788 c 0,0,1
547 416 m 0,39,40
 476 416 476 416 438 457.5 c 128,-1,41
 400 499 400 499 400 580 c 0,42,43
 400 609 400 609 406 644 c 0,44,45
 416 719 416 719 452 786 c 0,46,47
 471 821 471 821 498 847 c 0,48,49
 557 906 557 906 643 906 c 0,50,51
 723 906 723 906 759 858 c 0,52,53
 788 820 788 820 788 752 c 0,54,55
 788 723 788 723 782 687 c 0,56,57
 772 611 772 611 736 542 c 0,58,59
 696 466 696 466 628 434 c 0,60,61
 592 416 592 416 547 416 c 0,39,40
EndSplineSet
EndChar

StartChar: yen
Encoding: 165 165 102
Width: 1126
Flags: W
LayerCount: 2
Fore
SplineSet
461 572 m 1,0,-1
 168 572 l 1,1,-1
 140 434 l 1,2,-1
 433 434 l 1,3,-1
 403 282 l 1,4,-1
 110 282 l 1,5,-1
 83 142 l 1,6,-1
 376 143 l 1,7,-1
 349 8 l 1,8,-1
 576 8 l 1,9,-1
 602 142 l 1,10,-1
 893 142 l 1,11,-1
 921 282 l 1,12,-1
 630 282 l 1,13,-1
 660 434 l 1,14,-1
 950 434 l 1,15,-1
 978 572 l 1,16,-1
 687 572 l 1,17,-1
 695 611 l 1,18,-1
 1236 1300 l 1,19,-1
 977 1300 l 1,20,-1
 749 991 l 1,21,-1
 618 806 l 1,22,-1
 558 1002 l 1,23,-1
 456 1300 l 1,24,-1
 210 1300 l 1,25,-1
 469 609 l 1,26,-1
 461 572 l 1,0,-1
EndSplineSet
EndChar

StartChar: brokenbar
Encoding: 166 166 103
Width: 1126
Flags: W
LayerCount: 2
Fore
SplineSet
682 1630 m 1,0,-1
 519 814 l 1,1,-1
 729 814 l 1,2,-1
 892 1630 l 1,3,-1
 682 1630 l 1,0,-1
442 438 m 1,4,-1
 273 -403 l 1,5,-1
 483 -403 l 1,6,-1
 653 438 l 1,7,-1
 442 438 l 1,4,-1
EndSplineSet
EndChar

StartChar: section
Encoding: 167 167 104
Width: 1126
Flags: W
LayerCount: 2
Fore
SplineSet
-24 -190 m 1,0,1
 129 -228 129 -228 336 -228 c 0,2,3
 459 -228 459 -228 550 -199.5 c 128,-1,4
 641 -171 641 -171 702 -123 c 128,-1,5
 763 -75 763 -75 793.5 -11.5 c 128,-1,6
 824 52 824 52 824 122 c 0,7,8
 824 170 824 170 804 211 c 2,9,-1
 801 217 l 1,10,11
 861 253 861 253 905 292 c 0,12,13
 994 370 994 370 1028 470 c 0,14,15
 1046 520 1046 520 1046 574 c 0,16,17
 1046 652 1046 652 1013.5 711.5 c 128,-1,18
 981 771 981 771 932 818.5 c 128,-1,19
 883 866 883 866 825.5 904 c 128,-1,20
 768 942 768 942 717.5 976 c 128,-1,21
 667 1010 667 1010 632.5 1043.5 c 128,-1,22
 598 1077 598 1077 597 1117 c 1,23,-1
 597 1117 l 1,24,25
 597 1138 597 1138 606 1162.5 c 128,-1,26
 615 1187 615 1187 639.5 1207.5 c 128,-1,27
 664 1228 664 1228 706 1241 c 128,-1,28
 748 1254 748 1254 813 1254 c 0,29,30
 876 1254 876 1254 951 1245 c 0,31,32
 1021 1238 1021 1238 1088 1220 c 1,33,-1
 1124 1393 l 1,34,35
 1071 1404 1071 1404 996.5 1414 c 128,-1,36
 922 1424 922 1424 827 1424 c 128,-1,37
 732 1424 732 1424 660 1408.5 c 128,-1,38
 588 1393 588 1393 535 1366 c 128,-1,39
 482 1339 482 1339 447 1304 c 0,40,41
 379 1237 379 1237 360 1158 c 0,42,43
 352 1121 352 1121 352 1091.5 c 128,-1,44
 352 1062 352 1062 358.5 1039 c 128,-1,45
 365 1016 365 1016 379 985 c 1,46,47
 265 923 265 923 198 832 c 0,48,49
 165 786 165 786 145.5 734 c 128,-1,50
 126 682 126 682 126 625.5 c 128,-1,51
 126 569 126 569 145 523 c 0,52,53
 180 435 180 435 264 367 c 0,54,55
 327 316 327 316 427 253 c 0,56,57
 467 228 467 228 499.5 202.5 c 128,-1,58
 532 177 532 177 553 150 c 128,-1,59
 574 123 574 123 576 92 c 2,60,-1
 576 91 l 2,61,62
 576 66 576 66 566.5 39.5 c 128,-1,63
 557 13 557 13 532 -9 c 128,-1,64
 507 -31 507 -31 463.5 -44.5 c 128,-1,65
 420 -58 420 -58 352 -58 c 0,66,67
 271 -58 271 -58 172 -41 c 0,68,69
 87 -27 87 -27 16 -1 c 1,70,-1
 -24 -190 l 1,0,1
678 362 m 1,71,72
 625 405 625 405 573 437.5 c 128,-1,73
 521 470 521 470 477.5 502.5 c 128,-1,74
 434 535 434 535 405.5 570.5 c 128,-1,75
 377 606 377 606 376 652 c 1,76,-1
 376 652 l 1,77,78
 376 707 376 707 407.5 750.5 c 128,-1,79
 439 794 439 794 502 839 c 2,80,-1
 506 842 l 1,81,82
 558 801 558 801 608.5 768.5 c 128,-1,83
 659 736 659 736 700.5 703 c 128,-1,84
 742 670 742 670 770 634 c 128,-1,85
 798 598 798 598 800 552 c 1,86,-1
 800 552 l 1,87,88
 800 499 800 499 769 454.5 c 128,-1,89
 738 410 738 410 683 366 c 2,90,-1
 678 362 l 1,71,72
EndSplineSet
EndChar

StartChar: dieresis
Encoding: 168 168 105
Width: 1126
Flags: W
LayerCount: 2
Fore
SplineSet
629 1245.5 m 128,-1,1
 640 1271 640 1271 640 1297 c 128,-1,2
 640 1323 640 1323 630.5 1345.5 c 128,-1,3
 621 1368 621 1368 605 1385 c 128,-1,4
 589 1402 589 1402 565.5 1412 c 128,-1,5
 542 1422 542 1422 515.5 1422 c 128,-1,6
 489 1422 489 1422 464.5 1412 c 128,-1,7
 440 1402 440 1402 421 1383.5 c 128,-1,8
 402 1365 402 1365 391 1339 c 128,-1,9
 380 1313 380 1313 380 1287 c 128,-1,10
 380 1261 380 1261 389.5 1238.5 c 128,-1,11
 399 1216 399 1216 415 1199 c 128,-1,12
 431 1182 431 1182 454 1172 c 128,-1,13
 477 1162 477 1162 503.5 1162 c 128,-1,14
 530 1162 530 1162 555 1172.5 c 128,-1,15
 580 1183 580 1183 599 1201.5 c 128,-1,0
 618 1220 618 1220 629 1245.5 c 128,-1,1
1016.5 1201.5 m 128,-1,17
 1035 1220 1035 1220 1046.5 1245.5 c 128,-1,18
 1058 1271 1058 1271 1058 1297 c 128,-1,19
 1058 1323 1058 1323 1048.5 1345.5 c 128,-1,20
 1039 1368 1039 1368 1023 1385 c 128,-1,21
 1007 1402 1007 1402 983.5 1412 c 128,-1,22
 960 1422 960 1422 933.5 1422 c 128,-1,23
 907 1422 907 1422 882.5 1412 c 128,-1,24
 858 1402 858 1402 839 1383.5 c 128,-1,25
 820 1365 820 1365 809 1339 c 128,-1,26
 798 1313 798 1313 798 1287 c 128,-1,27
 798 1261 798 1261 807.5 1238.5 c 128,-1,28
 817 1216 817 1216 833 1199 c 128,-1,29
 849 1182 849 1182 872 1172 c 128,-1,30
 895 1162 895 1162 921.5 1162 c 128,-1,31
 948 1162 948 1162 973 1172.5 c 128,-1,16
 998 1183 998 1183 1016.5 1201.5 c 128,-1,17
0 1016 m 1024,32,-1
EndSplineSet
EndChar

StartChar: copyright
Encoding: 169 169 106
Width: 1126
Flags: W
LayerCount: 2
Fore
SplineSet
672 1322 m 0,0,1
 575 1322 575 1322 491 1290.5 c 128,-1,2
 407 1259 407 1259 335.5 1204.5 c 128,-1,3
 264 1150 264 1150 210 1074.5 c 128,-1,4
 156 999 156 999 118.5 910.5 c 128,-1,5
 81 822 81 822 60.5 723 c 128,-1,6
 40 624 40 624 40 522 c 0,7,8
 40 402 40 402 69.5 303 c 128,-1,9
 99 204 99 204 157 133 c 128,-1,10
 215 62 215 62 303.5 23 c 128,-1,11
 392 -16 392 -16 508 -16 c 0,12,13
 602 -16 602 -16 685.5 14.5 c 128,-1,14
 769 45 769 45 840 98 c 128,-1,15
 911 151 911 151 967.5 225 c 128,-1,16
 1024 299 1024 299 1062 385.5 c 128,-1,17
 1100 472 1100 472 1120 570 c 128,-1,18
 1140 668 1140 668 1140 768 c 0,19,20
 1140 887 1140 887 1109.5 988 c 128,-1,21
 1079 1089 1079 1089 1020 1163 c 128,-1,22
 961 1237 961 1237 873 1279.5 c 128,-1,23
 785 1322 785 1322 672 1322 c 0,0,1
657 1180 m 0,24,25
 741 1180 741 1180 803 1148.5 c 128,-1,26
 865 1117 865 1117 905.5 1059.5 c 128,-1,27
 946 1002 946 1002 965 924.5 c 128,-1,28
 984 847 984 847 984 764 c 128,-1,29
 984 681 984 681 970 604 c 0,30,31
 942 448 942 448 862 325 c 0,32,33
 782 203 782 203 655 152 c 0,34,35
 591 126 591 126 517 126 c 0,36,37
 434 126 434 126 373 158 c 0,38,39
 252 222 252 222 214 377 c 0,40,41
 196 454 196 454 196 537.5 c 128,-1,42
 196 621 196 621 209 698 c 0,43,44
 237 856 237 856 315 979 c 0,45,46
 354 1040 354 1040 405.5 1085 c 128,-1,47
 457 1130 457 1130 520.5 1155 c 128,-1,48
 584 1180 584 1180 657 1180 c 0,24,25
722 483 m 1,49,50
 676 470 676 470 631 469 c 1,51,-1
 631 468 l 1,52,53
 574 468 574 468 547 496.5 c 128,-1,54
 520 525 520 525 520 580 c 0,55,56
 520 593 520 593 523 618 c 0,57,58
 529 677 529 677 553 732 c 0,59,60
 567 762 567 762 588 788 c 128,-1,61
 609 814 609 814 640.5 830 c 128,-1,62
 672 846 672 846 717 846 c 1,63,-1
 717 846 l 1,64,65
 768 844 768 844 808 832 c 1,66,-1
 840 983 l 1,67,68
 804 992 804 992 727 994 c 0,69,70
 646 994 646 994 586.5 971.5 c 128,-1,71
 527 949 527 949 482.5 912 c 128,-1,72
 438 875 438 875 409.5 828 c 128,-1,73
 381 781 381 781 364 732.5 c 128,-1,74
 347 684 347 684 340.5 637.5 c 128,-1,75
 334 591 334 591 334 556 c 0,76,77
 334 445 334 445 397 379 c 128,-1,78
 460 313 460 313 585 313 c 0,79,80
 664 315 664 315 722 331 c 1,81,-1
 722 483 l 1,49,50
EndSplineSet
EndChar

StartChar: ordfeminine
Encoding: 170 170 107
Width: 1126
Flags: W
LayerCount: 2
Fore
SplineSet
221 498 m 1,0,-1
 191 346 l 1,1,-1
 868 346 l 1,2,-1
 898 498 l 1,3,-1
 221 498 l 1,0,-1
816 1314 m 128,-1,5
 775 1322 775 1322 719 1322 c 0,6,7
 642 1322 642 1322 581.5 1302 c 128,-1,8
 521 1282 521 1282 475 1248 c 128,-1,9
 429 1214 429 1214 397.5 1168 c 128,-1,10
 366 1122 366 1122 345.5 1070.5 c 128,-1,11
 325 1019 325 1019 315.5 963 c 128,-1,12
 306 907 306 907 306 854 c 0,13,14
 306 738 306 738 358.5 680 c 128,-1,15
 411 622 411 622 508 622 c 0,16,17
 574 622 574 622 632.5 651.5 c 128,-1,18
 691 681 691 681 735 745 c 2,19,-1
 748 765 l 1,20,-1
 748 638 l 1,21,-1
 886 638 l 1,22,23
 902 798 902 798 907 835 c 0,24,25
 916 910 916 910 925 953 c 2,26,-1
 998 1318 l 1,27,-1
 885 1299 l 1,28,4
 857 1306 857 1306 816 1314 c 128,-1,5
624.5 792.5 m 128,-1,30
 593 768 593 768 565 768 c 0,31,32
 532 768 532 768 513 791.5 c 128,-1,33
 494 815 494 815 494 864 c 0,34,35
 494 925 494 925 507.5 983 c 128,-1,36
 521 1041 521 1041 547.5 1086 c 128,-1,37
 574 1131 574 1131 614.5 1159.5 c 128,-1,38
 655 1188 655 1188 709 1188 c 0,39,40
 738 1188 738 1188 753 1186 c 128,-1,41
 768 1184 768 1184 791 1180 c 1,42,-1
 773 1082 l 2,43,44
 760 1014 760 1014 736.5 957 c 128,-1,45
 713 900 713 900 684.5 858.5 c 128,-1,29
 656 817 656 817 624.5 792.5 c 128,-1,30
EndSplineSet
EndChar

StartChar: guillemotleft
Encoding: 171 171 108
Width: 1126
Flags: W
LayerCount: 2
Fore
SplineSet
347 533 m 1,0,-1
 625 854 l 1,1,-1
 467 946 l 1,2,-1
 130 552 l 1,3,-1
 313 139 l 1,4,-1
 498 217 l 1,5,-1
 347 533 l 1,0,-1
775 533 m 1,6,-1
 1053 844 l 1,7,-1
 900 936 l 1,8,-1
 558 552 l 1,9,-1
 752 149 l 1,10,-1
 930 227 l 1,11,-1
 775 533 l 1,6,-1
EndSplineSet
EndChar

StartChar: logicalnot
Encoding: 172 172 109
Width: 1126
Flags: W
LayerCount: 2
Fore
SplineSet
97 454 m 1,0,-1
 771 453 l 1,1,-1
 716 176 l 1,2,-1
 914 176 l 1,3,-1
 1007 636 l 1,4,-1
 135 636 l 1,5,-1
 97 454 l 1,0,-1
EndSplineSet
EndChar

StartChar: registered
Encoding: 174 174 110
Width: 1126
Flags: W
LayerCount: 2
Fore
SplineSet
864 1038.5 m 128,-1,1
 876 1067 876 1067 876 1102 c 128,-1,2
 876 1137 876 1137 862 1160 c 0,3,4
 836 1204 836 1204 763 1216 c 0,5,6
 727 1222 727 1222 684 1222 c 2,7,-1
 528 1222 l 1,8,-1
 421 690 l 1,9,-1
 533 690 l 1,10,-1
 576 904 l 1,11,-1
 594 904 l 2,12,13
 616 904 616 904 634.5 891.5 c 128,-1,14
 653 879 653 879 656 859 c 2,15,-1
 692 690 l 1,16,-1
 819 690 l 1,17,-1
 775 854 l 2,18,19
 764 890 764 890 752.5 908.5 c 128,-1,20
 741 927 741 927 728 929 c 1,21,-1
 729 943 l 1,22,23
 758 945 758 945 785 957 c 128,-1,24
 812 969 812 969 832 989.5 c 128,-1,0
 852 1010 852 1010 864 1038.5 c 128,-1,1
659 1131 m 2,25,26
 712 1131 712 1131 732 1117.5 c 128,-1,27
 752 1104 752 1104 752 1078 c 0,28,29
 752 1031 752 1031 715 1005 c 0,30,31
 698 994 698 994 676.5 989 c 128,-1,32
 655 984 655 984 633 984 c 2,33,-1
 593 984 l 1,34,-1
 623 1131 l 1,35,-1
 659 1131 l 2,25,26
517 1283 m 128,-1,37
 585 1312 585 1312 661.5 1312 c 128,-1,38
 738 1312 738 1312 802 1283.5 c 128,-1,39
 866 1255 866 1255 913 1207 c 128,-1,40
 960 1159 960 1159 987 1096 c 128,-1,41
 1014 1033 1014 1033 1014 963 c 0,42,43
 1014 875 1014 875 982.5 803 c 128,-1,44
 951 731 951 731 898.5 678.5 c 128,-1,45
 846 626 846 626 777.5 597 c 128,-1,46
 709 568 709 568 632.5 568 c 128,-1,47
 556 568 556 568 492.5 596.5 c 128,-1,48
 429 625 429 625 383 673 c 128,-1,49
 337 721 337 721 311.5 784.5 c 128,-1,50
 286 848 286 848 286 918 c 0,51,52
 286 1004 286 1004 316 1076.5 c 128,-1,53
 346 1149 346 1149 397.5 1201.5 c 128,-1,36
 449 1254 449 1254 517 1283 c 128,-1,37
668 1428 m 128,-1,55
 567 1428 567 1428 474.5 1389.5 c 128,-1,56
 382 1351 382 1351 312.5 1283 c 128,-1,57
 243 1215 243 1215 202.5 1121 c 128,-1,58
 162 1027 162 1027 162 918 c 0,59,60
 162 824 162 824 196 740 c 128,-1,61
 230 656 230 656 292 591.5 c 128,-1,62
 354 527 354 527 440 489.5 c 128,-1,63
 526 452 526 452 627 452 c 128,-1,64
 728 452 728 452 820.5 490.5 c 128,-1,65
 913 529 913 529 983.5 597.5 c 128,-1,66
 1054 666 1054 666 1096 760 c 128,-1,67
 1138 854 1138 854 1138 963 c 0,68,69
 1138 1055 1138 1055 1102.5 1139.5 c 128,-1,70
 1067 1224 1067 1224 1004 1288.5 c 128,-1,71
 941 1353 941 1353 855 1390.5 c 128,-1,54
 769 1428 769 1428 668 1428 c 128,-1,55
EndSplineSet
EndChar

StartChar: macron
Encoding: 175 175 111
AltUni2: 0002c9.ffffffff.0
Width: 1126
Flags: W
LayerCount: 2
Fore
SplineSet
1016 1378 m 1,0,-1
 981 1204 l 1,1,-1
 424 1204 l 1,2,-1
 459 1378 l 1,3,-1
 1016 1378 l 1,0,-1
0 1016 m 1024,4,-1
EndSplineSet
EndChar

StartChar: degree
Encoding: 176 176 112
Width: 1126
Flags: W
LayerCount: 2
Fore
SplineSet
1046 1139 m 0,0,1
 1046 1196 1046 1196 1027 1248 c 128,-1,2
 1008 1300 1008 1300 968.5 1340.5 c 128,-1,3
 929 1381 929 1381 867 1404.5 c 128,-1,4
 805 1428 805 1428 718 1428 c 128,-1,5
 631 1428 631 1428 556.5 1402.5 c 128,-1,6
 482 1377 482 1377 426.5 1327.5 c 128,-1,7
 371 1278 371 1278 339.5 1203 c 128,-1,8
 308 1128 308 1128 308 1030 c 0,9,10
 308 971 308 971 327.5 918.5 c 128,-1,11
 347 866 347 866 386 825.5 c 128,-1,12
 425 785 425 785 486.5 761.5 c 128,-1,13
 548 738 548 738 635 738 c 128,-1,14
 722 738 722 738 797 764 c 128,-1,15
 872 790 872 790 927 839.5 c 128,-1,16
 982 889 982 889 1014 964.5 c 128,-1,17
 1046 1040 1046 1040 1046 1139 c 0,0,1
850 1116 m 0,18,19
 850 1064 850 1064 835.5 1023 c 128,-1,20
 821 982 821 982 795 954 c 0,21,22
 742 898 742 898 653 898 c 0,23,24
 610 898 610 898 581 910.5 c 128,-1,25
 552 923 552 923 535 944 c 128,-1,26
 518 965 518 965 511 990.5 c 128,-1,27
 504 1016 504 1016 504 1042 c 0,28,29
 504 1152 504 1152 558 1211 c 0,30,31
 584 1240 584 1240 620 1255 c 128,-1,32
 656 1270 656 1270 699 1270 c 128,-1,33
 742 1270 742 1270 771 1257 c 128,-1,34
 800 1244 800 1244 817.5 1222 c 128,-1,35
 835 1200 835 1200 842.5 1172.5 c 128,-1,36
 850 1145 850 1145 850 1116 c 0,18,19
EndSplineSet
EndChar

StartChar: plusminus
Encoding: 177 177 113
Width: 1126
Flags: W
LayerCount: 2
Fore
SplineSet
702 692 m 1,0,-1
 1050 692 l 1,1,-1
 1085 864 l 1,2,-1
 737 865 l 1,3,-1
 808 1222 l 1,4,-1
 602 1222 l 1,5,-1
 531 864 l 1,6,-1
 182 864 l 1,7,-1
 147 692 l 1,8,-1
 496 692 l 1,9,-1
 426 340 l 1,10,-1
 632 340 l 1,11,-1
 702 692 l 1,0,-1
75 186 m 1,12,-1
 40 8 l 1,13,-1
 885 8 l 1,14,-1
 920 186 l 1,15,-1
 75 186 l 1,12,-1
EndSplineSet
EndChar

StartChar: acute
Encoding: 180 180 116
Width: 1126
Flags: W
LayerCount: 2
Fore
SplineSet
586 1158 m 1,0,-1
 809 1158 l 1,1,-1
 1146 1406 l 1,2,-1
 843 1406 l 1,3,-1
 586 1158 l 1,0,-1
0 1016 m 1024,4,-1
EndSplineSet
EndChar

StartChar: paragraph
Encoding: 182 182 118
Width: 1126
Flags: W
LayerCount: 2
Fore
SplineSet
121 -110 m 1,0,1
 184 -166 184 -166 265.5 -197 c 128,-1,2
 347 -228 347 -228 460 -228 c 128,-1,3
 573 -228 573 -228 659 -199 c 0,4,5
 831 -142 831 -142 912 17 c 0,6,7
 952 95 952 95 972 194 c 2,8,-1
 1216 1406 l 1,9,-1
 817 1406 l 2,10,11
 679 1406 679 1406 577 1379 c 128,-1,12
 475 1352 475 1352 402.5 1308.5 c 128,-1,13
 330 1265 330 1265 283.5 1209 c 128,-1,14
 237 1153 237 1153 210.5 1094 c 128,-1,15
 184 1035 184 1035 174 977 c 128,-1,16
 164 919 164 919 164 872 c 0,17,18
 164 792 164 792 193.5 726.5 c 128,-1,19
 223 661 223 661 284.5 614 c 128,-1,20
 346 567 346 567 441.5 541.5 c 128,-1,21
 537 516 537 516 666 516 c 1,22,-1
 809 1230 l 1,23,-1
 955 1230 l 1,24,-1
 750 210 l 2,25,26
 725 78 725 78 652 13 c 0,27,28
 584 -48 584 -48 479 -48 c 0,29,30
 396 -48 396 -48 340 -21.5 c 128,-1,31
 284 5 284 5 239 46 c 1,32,-1
 121 -110 l 1,0,1
EndSplineSet
EndChar

StartChar: periodcentered
Encoding: 183 183 119
AltUni2: 002219.ffffffff.0
Width: 1126
Flags: W
LayerCount: 2
Fore
SplineSet
770 567.5 m 128,-1,1
 770 527 770 527 753.5 490 c 128,-1,2
 737 453 737 453 709 425.5 c 128,-1,3
 681 398 681 398 644 382.5 c 128,-1,4
 607 367 607 367 566 367 c 128,-1,5
 525 367 525 367 491.5 382 c 128,-1,6
 458 397 458 397 433.5 422.5 c 128,-1,7
 409 448 409 448 395 481.5 c 128,-1,8
 381 515 381 515 381 551 c 0,9,10
 381 596 381 596 397.5 633.5 c 128,-1,11
 414 671 414 671 441.5 699 c 128,-1,12
 469 727 469 727 505.5 742.5 c 128,-1,13
 542 758 542 758 582.5 758 c 128,-1,14
 623 758 623 758 657.5 742.5 c 128,-1,15
 692 727 692 727 717 701.5 c 128,-1,16
 742 676 742 676 756 642 c 128,-1,0
 770 608 770 608 770 567.5 c 128,-1,1
EndSplineSet
EndChar

StartChar: cedilla
Encoding: 184 184 120
Width: 1126
Flags: W
LayerCount: 2
Fore
SplineSet
273 -288 m 1,0,-1
 438 -288 l 1,1,-1
 589 -8 l 1,2,-1
 378 -8 l 1,3,-1
 273 -288 l 1,0,-1
EndSplineSet
EndChar

StartChar: ordmasculine
Encoding: 186 186 122
Width: 1126
Flags: W
LayerCount: 2
Fore
SplineSet
221 498 m 1,0,-1
 191 346 l 1,1,-1
 868 346 l 1,2,-1
 898 498 l 1,3,-1
 221 498 l 1,0,-1
784.5 661.5 m 128,-1,5
 866 703 866 703 918 768 c 128,-1,6
 970 833 970 833 995 911 c 128,-1,7
 1020 989 1020 989 1020 1056 c 128,-1,8
 1020 1123 1020 1123 999 1172 c 0,9,10
 958 1270 958 1270 846 1304 c 0,11,12
 790 1322 790 1322 715.5 1322 c 128,-1,13
 641 1322 641 1322 579 1302 c 128,-1,14
 517 1282 517 1282 469.5 1249 c 128,-1,15
 422 1216 422 1216 388 1171.5 c 128,-1,16
 354 1127 354 1127 332.5 1078.5 c 128,-1,17
 311 1030 311 1030 300.5 979 c 128,-1,18
 290 928 290 928 290 883 c 0,19,20
 290 754 290 754 370 687 c 0,21,22
 449 620 449 620 590 620 c 0,23,4
 703 620 703 620 784.5 661.5 c 128,-1,5
794 1131 m 128,-1,25
 828 1096 828 1096 828 1033 c 0,26,27
 828 994 828 994 817 949.5 c 128,-1,28
 806 905 806 905 780.5 866.5 c 128,-1,29
 755 828 755 828 714.5 802 c 128,-1,30
 674 776 674 776 616 776 c 0,31,32
 552 776 552 776 517 811 c 128,-1,33
 482 846 482 846 482 912 c 0,34,35
 482 951 482 951 493.5 995 c 128,-1,36
 505 1039 505 1039 531 1077.5 c 128,-1,37
 557 1116 557 1116 596.5 1141 c 128,-1,38
 636 1166 636 1166 692 1166 c 0,39,24
 760 1166 760 1166 794 1131 c 128,-1,25
EndSplineSet
EndChar

StartChar: guillemotright
Encoding: 187 187 123
Width: 1126
Flags: W
LayerCount: 2
Fore
SplineSet
791 556 m 1,0,-1
 514 235 l 1,1,-1
 672 143 l 1,2,-1
 1009 538 l 1,3,-1
 825 951 l 1,4,-1
 641 873 l 1,5,-1
 791 556 l 1,0,-1
363 556 m 1,6,-1
 86 246 l 1,7,-1
 239 153 l 1,8,-1
 581 538 l 1,9,-1
 387 940 l 1,10,-1
 209 862 l 1,11,-1
 363 556 l 1,6,-1
EndSplineSet
EndChar

StartChar: onequarter
Encoding: 188 188 124
Width: 1126
Flags: W
LayerCount: 2
Fore
SplineSet
230 1193 m 1,0,-1
 381 1260 l 1,1,-1
 298 848 l 1,2,-1
 473 848 l 1,3,-1
 587 1412 l 1,4,-1
 424 1412 l 1,5,-1
 202 1311 l 1,6,-1
 230 1193 l 1,0,-1
-91 8 m 1,7,-1
 98 8 l 1,8,-1
 1296 1406 l 1,9,-1
 1106 1406 l 1,10,-1
 -91 8 l 1,7,-1
909 109 m 1,11,-1
 993 110 l 1,12,-1
 1017 230 l 1,13,-1
 933 230 l 1,14,-1
 1001 566 l 1,15,-1
 757 566 l 1,16,-1
 478 235 l 1,17,-1
 455 110 l 1,18,-1
 757 110 l 1,19,-1
 736 8 l 1,20,-1
 889 8 l 1,21,-1
 909 109 l 1,11,-1
627 231 m 1,22,-1
 828 471 l 1,23,-1
 780 231 l 1,24,-1
 627 231 l 1,22,-1
EndSplineSet
EndChar

StartChar: onehalf
Encoding: 189 189 125
Width: 1126
Flags: W
LayerCount: 2
Fore
SplineSet
230 1193 m 1,0,-1
 381 1260 l 1,1,-1
 298 848 l 1,2,-1
 473 848 l 1,3,-1
 587 1412 l 1,4,-1
 424 1412 l 1,5,-1
 202 1311 l 1,6,-1
 230 1193 l 1,0,-1
1038.5 375.5 m 128,-1,8
 1048 404 1048 404 1048 433 c 128,-1,9
 1048 462 1048 462 1036 489 c 128,-1,10
 1024 516 1024 516 999 537 c 128,-1,11
 974 558 974 558 935.5 571 c 128,-1,12
 897 584 897 584 844 584 c 0,13,14
 777 584 777 584 719 563 c 128,-1,15
 661 542 661 542 614 512 c 1,16,-1
 669 408 l 1,17,18
 698 427 698 427 733.5 442.5 c 128,-1,19
 769 458 769 458 809 458 c 0,20,21
 838 458 838 458 853 446.5 c 128,-1,22
 868 435 868 435 868 414 c 0,23,24
 868 400 868 400 862.5 385 c 128,-1,25
 857 370 857 370 839 351 c 0,26,27
 802 312 802 312 698 242 c 2,28,-1
 550 139 l 1,29,-1
 523 8 l 1,30,-1
 981 8 l 1,31,-1
 1007 138 l 1,32,-1
 755 137 l 1,33,-1
 840 189 l 1,34,35
 958 254 958 254 1007 317 c 0,36,7
 1029 347 1029 347 1038.5 375.5 c 128,-1,8
-91 8 m 1,37,-1
 98 8 l 1,38,-1
 1296 1406 l 1,39,-1
 1106 1406 l 1,40,-1
 -91 8 l 1,37,-1
EndSplineSet
EndChar

StartChar: threequarters
Encoding: 190 190 126
Width: 1126
Flags: W
LayerCount: 2
Fore
SplineSet
115 837 m 1,0,1
 190 828 190 828 276 828 c 0,2,3
 454 828 454 828 538 883 c 128,-1,4
 622 938 622 938 622 1034 c 0,5,6
 622 1092 622 1092 568 1121 c 0,7,8
 548 1132 548 1132 515 1136 c 2,9,-1
 468 1141 l 1,10,-1
 515 1150 l 2,11,12
 539 1155 539 1155 561 1166.5 c 128,-1,13
 583 1178 583 1178 599 1196 c 0,14,15
 636 1236 636 1236 636 1298 c 0,16,17
 636 1324 636 1324 624 1347 c 0,18,19
 600 1395 600 1395 522 1414 c 0,20,21
 481 1424 481 1424 424 1424 c 0,22,23
 343 1424 343 1424 281 1410 c 0,24,25
 259 1405 259 1405 234 1399 c 1,26,-1
 234 1284 l 1,27,28
 271 1293 271 1293 305 1298.5 c 128,-1,29
 339 1304 339 1304 381 1304 c 128,-1,30
 423 1304 423 1304 438.5 1293.5 c 128,-1,31
 454 1283 454 1283 454 1265 c 128,-1,32
 454 1247 454 1247 447 1233 c 0,33,34
 433 1206 433 1206 379 1196 c 0,35,36
 353 1190 353 1190 313 1190 c 2,37,-1
 264 1190 l 1,38,-1
 240 1070 l 1,39,-1
 301 1070 l 2,40,41
 377 1070 377 1070 408 1059 c 0,42,43
 424 1053 424 1053 430 1043 c 128,-1,44
 436 1033 436 1033 436 1022 c 0,45,46
 436 986 436 986 402 967 c 128,-1,47
 368 948 368 948 292.5 948 c 128,-1,48
 217 948 217 948 141 962 c 1,49,-1
 115 837 l 1,0,1
-91 8 m 1,50,-1
 98 8 l 1,51,-1
 1296 1406 l 1,52,-1
 1106 1406 l 1,53,-1
 -91 8 l 1,50,-1
909 109 m 1,54,-1
 993 110 l 1,55,-1
 1017 230 l 1,56,-1
 933 230 l 1,57,-1
 1001 566 l 1,58,-1
 757 566 l 1,59,-1
 478 235 l 1,60,-1
 455 110 l 1,61,-1
 757 110 l 1,62,-1
 736 8 l 1,63,-1
 889 8 l 1,64,-1
 909 109 l 1,54,-1
627 231 m 1,65,-1
 828 471 l 1,66,-1
 780 231 l 1,67,-1
 627 231 l 1,65,-1
EndSplineSet
EndChar

StartChar: questiondown
Encoding: 191 191 127
Width: 1126
Flags: W
LayerCount: 2
Fore
SplineSet
70 -8 m 0,0,1
 70 -74 70 -74 95.5 -141.5 c 128,-1,2
 121 -209 121 -209 182.5 -264 c 128,-1,3
 244 -319 244 -319 348 -354.5 c 128,-1,4
 452 -390 452 -390 610 -390 c 2,5,-1
 656 -390 l 1,6,-1
 700 -178 l 1,7,-1
 635 -178 l 2,8,9
 546 -178 546 -178 487 -160.5 c 128,-1,10
 428 -143 428 -143 391.5 -115 c 128,-1,11
 355 -87 355 -87 339.5 -52 c 128,-1,12
 324 -17 324 -17 324 20 c 128,-1,13
 324 57 324 57 335.5 97 c 128,-1,14
 347 137 347 137 376 168.5 c 128,-1,15
 405 200 405 200 451.5 220 c 128,-1,16
 498 240 498 240 569 240 c 2,17,-1
 699 240 l 1,18,-1
 753 602 l 1,19,-1
 559 602 l 1,20,-1
 510 415 l 1,21,-1
 504 415 l 1,22,23
 395 410 395 410 313 372 c 128,-1,24
 231 334 231 334 177.5 275.5 c 128,-1,25
 124 217 124 217 97 143.5 c 128,-1,26
 70 70 70 70 70 -8 c 0,0,1
604.5 985.5 m 128,-1,28
 581 964 581 964 566.5 934.5 c 128,-1,29
 552 905 552 905 552 872.5 c 128,-1,30
 552 840 552 840 562.5 814 c 128,-1,31
 573 788 573 788 592.5 768.5 c 128,-1,32
 612 749 612 749 639 737.5 c 128,-1,33
 666 726 666 726 698.5 726 c 128,-1,34
 731 726 731 726 761 738 c 128,-1,35
 791 750 791 750 814 771.5 c 128,-1,36
 837 793 837 793 850.5 822.5 c 128,-1,37
 864 852 864 852 864 884.5 c 128,-1,38
 864 917 864 917 854 943 c 128,-1,39
 844 969 844 969 825 988.5 c 128,-1,40
 806 1008 806 1008 779.5 1019 c 128,-1,41
 753 1030 753 1030 720.5 1030 c 128,-1,42
 688 1030 688 1030 658 1018.5 c 128,-1,27
 628 1007 628 1007 604.5 985.5 c 128,-1,28
EndSplineSet
EndChar

StartChar: AE
Encoding: 198 198 134
Width: 1126
Flags: W
LayerCount: 2
Fore
SplineSet
96 8 m 1,0,-1
 238 270 l 1,1,-1
 546 270 l 1,2,-1
 494 8 l 1,3,-1
 977 8 l 1,4,-1
 1013 192 l 1,5,-1
 734 191 l 1,6,-1
 813 582 l 1,7,-1
 1065 582 l 1,8,-1
 1101 762 l 1,9,-1
 849 762 l 1,10,-1
 920 1116 l 1,11,-1
 1188 1116 l 1,12,-1
 1226 1300 l 1,13,-1
 610 1300 l 1,14,-1
 -139 8 l 1,15,-1
 96 8 l 1,0,-1
579 441 m 1,16,-1
 331 441 l 1,17,-1
 724 1155 l 1,18,-1
 579 441 l 1,16,-1
EndSplineSet
EndChar

StartChar: Ccedilla
Encoding: 199 199 135
Width: 1126
Flags: W
LayerCount: 2
Fore
SplineSet
1104 1066 m 1,0,-1
 1148 1280 l 1,1,2
 1000 1325 1000 1325 831 1325 c 0,3,4
 710 1325 710 1325 614.5 1295.5 c 128,-1,5
 519 1266 519 1266 445.5 1215.5 c 128,-1,6
 372 1165 372 1165 317 1099 c 0,7,8
 213 974 213 974 161 813 c 0,9,10
 113 667 113 667 102 546 c 0,11,12
 98 489 98 489 98 454 c 0,13,14
 98 380 98 380 114 307.5 c 128,-1,15
 130 235 130 235 167.5 174.5 c 128,-1,16
 205 114 205 114 266 69 c 128,-1,17
 327 24 327 24 418 3 c 2,18,-1
 426 1 l 1,19,-1
 316 -295 l 1,20,-1
 481 -295 l 1,21,-1
 631 -16 l 1,22,23
 708 -11 708 -11 779.5 6 c 128,-1,24
 851 23 851 23 926 51 c 1,25,-1
 926 258 l 1,26,27
 856 230 856 230 780 211 c 0,28,29
 694 190 694 190 629 190 c 0,30,31
 535 190 535 190 479.5 218 c 128,-1,32
 424 246 424 246 395 288.5 c 128,-1,33
 366 331 366 331 358 380.5 c 128,-1,34
 350 430 350 430 350 472.5 c 128,-1,35
 350 515 350 515 358.5 578.5 c 128,-1,36
 367 642 367 642 386.5 713.5 c 128,-1,37
 406 785 406 785 440.5 857.5 c 128,-1,38
 475 930 475 930 527 988 c 128,-1,39
 579 1046 579 1046 652 1083.5 c 128,-1,40
 725 1121 725 1121 823 1121 c 0,41,42
 902 1121 902 1121 973.5 1104 c 128,-1,43
 1045 1087 1045 1087 1104 1066 c 1,0,-1
EndSplineSet
EndChar

StartChar: Eth
Encoding: 208 208 144
Width: 1126
Flags: W
LayerCount: 2
Fore
SplineSet
272 1300 m 1,0,-1
 166 766 l 1,1,-1
 57 766 l 1,2,-1
 21 578 l 1,3,-1
 128 578 l 1,4,-1
 13 8 l 1,5,-1
 326 8 l 2,6,7
 461 8 461 8 566.5 35.5 c 128,-1,8
 672 63 672 63 752.5 110 c 128,-1,9
 833 157 833 157 891 219 c 0,10,11
 1004 340 1004 340 1054 493 c 0,12,13
 1100 630 1100 630 1110 761 c 0,14,15
 1114 819 1114 819 1114 860 c 0,16,17
 1114 1081 1114 1081 990 1190.5 c 128,-1,18
 866 1300 866 1300 621 1300 c 2,19,-1
 272 1300 l 1,0,-1
850 954 m 0,20,21
 866 904 866 904 866 840 c 0,22,23
 866 792 866 792 858.5 725.5 c 128,-1,24
 851 659 851 659 832.5 588 c 128,-1,25
 814 517 814 517 779.5 447.5 c 128,-1,26
 745 378 745 378 690.5 322.5 c 128,-1,27
 636 267 636 267 558 232.5 c 128,-1,28
 480 198 480 198 373 198 c 2,29,-1
 282 198 l 1,30,-1
 356 579 l 1,31,-1
 590 579 l 1,32,-1
 626 766 l 1,33,-1
 394 766 l 1,34,-1
 463 1108 l 1,35,-1
 580 1108 l 2,36,37
 802 1108 802 1108 850 954 c 0,20,21
EndSplineSet
EndChar

StartChar: multiply
Encoding: 215 215 151
Width: 1126
Flags: W
LayerCount: 2
Fore
SplineSet
593 687 m 1,0,-1
 356 981 l 1,1,-1
 190 846 l 1,2,-1
 428 548 l 1,3,-1
 79 255 l 1,4,-1
 197 111 l 1,5,-1
 546 404 l 1,6,-1
 781 111 l 1,7,-1
 948 247 l 1,8,-1
 711 542 l 1,9,-1
 1062 838 l 1,10,-1
 944 981 l 1,11,-1
 593 687 l 1,0,-1
EndSplineSet
EndChar

StartChar: Oslash
Encoding: 216 216 152
Width: 1126
Flags: W
LayerCount: 2
Fore
SplineSet
346 -9 m 1,0,1
 411 -23 411 -23 471 -23 c 0,2,3
 588 -23 588 -23 683 17 c 128,-1,4
 778 57 778 57 851 124.5 c 128,-1,5
 924 192 924 192 977 282 c 128,-1,6
 1030 372 1030 372 1064.5 474 c 128,-1,7
 1099 576 1099 576 1115.5 683 c 128,-1,8
 1132 790 1132 790 1132 890 c 0,9,10
 1132 1125 1132 1125 994 1238 c 1,11,-1
 990 1242 l 1,12,-1
 1133 1522 l 1,13,-1
 941 1522 l 1,14,-1
 833 1316 l 1,15,16
 774 1329 774 1329 709 1329 c 0,17,18
 591 1329 591 1329 496.5 1289 c 128,-1,19
 402 1249 402 1249 328.5 1182 c 128,-1,20
 255 1115 255 1115 202 1024.5 c 128,-1,21
 149 934 149 934 115 832 c 128,-1,22
 81 730 81 730 64.5 623.5 c 128,-1,23
 48 517 48 517 48 417 c 0,24,25
 48 296 48 296 83.5 208.5 c 128,-1,26
 119 121 119 121 187 67 c 1,27,-1
 191 63 l 1,28,-1
 49 -215 l 1,29,-1
 241 -215 l 1,30,-1
 346 -9 l 1,0,1
286 435.5 m 128,-1,32
 286 517 286 517 296 599 c 0,33,34
 318 767 318 767 382 899 c 0,35,36
 449 1036 449 1036 555 1093 c 0,37,38
 609 1122 609 1122 674 1122 c 0,39,40
 702 1122 702 1122 724 1118 c 2,41,-1
 734 1117 l 1,42,-1
 308 290 l 1,43,-1
 302 307 l 2,44,31
 286 354 286 354 286 435.5 c 128,-1,32
625 213 m 0,45,46
 571 184 571 184 506 184 c 2,47,-1
 480 184 l 2,48,49
 468 184 468 184 446 187 c 1,50,-1
 871 1013 l 1,51,-1
 877 998 l 2,52,53
 887 971 887 971 890.5 938.5 c 128,-1,54
 894 906 894 906 894 868 c 0,55,56
 894 789 894 789 884 707 c 0,57,58
 862 540 862 540 798 408 c 0,59,60
 731 272 731 272 625 213 c 0,45,46
EndSplineSet
EndChar

StartChar: Thorn
Encoding: 222 222 158
Width: 1126
Flags: W
LayerCount: 2
Fore
SplineSet
1042.5 589 m 128,-1,1
 1080 688 1080 688 1080 795 c 0,2,3
 1080 858 1080 858 1056.5 916 c 128,-1,4
 1033 974 1033 974 980 1019 c 128,-1,5
 927 1064 927 1064 841 1092 c 128,-1,6
 755 1120 755 1120 629 1120 c 2,7,-1
 497 1120 l 1,8,-1
 533 1300 l 1,9,-1
 300 1300 l 1,10,-1
 42 8 l 1,11,-1
 275 8 l 1,12,-1
 323 248 l 1,13,-1
 463 248 l 2,14,15
 621 248 621 248 737 293 c 128,-1,16
 853 338 853 338 929 414 c 128,-1,0
 1005 490 1005 490 1042.5 589 c 128,-1,1
824 821.5 m 128,-1,18
 834 790 834 790 834 757 c 0,19,20
 834 691 834 691 809.5 632.5 c 128,-1,21
 785 574 785 574 741.5 530.5 c 128,-1,22
 698 487 698 487 635.5 461.5 c 128,-1,23
 573 436 573 436 497 436 c 2,24,-1
 360 436 l 1,25,-1
 459 930 l 1,26,-1
 599 930 l 2,27,28
 670 930 670 930 715.5 916 c 128,-1,29
 761 902 761 902 787.5 877.5 c 128,-1,17
 814 853 814 853 824 821.5 c 128,-1,18
EndSplineSet
EndChar

StartChar: germandbls
Encoding: 223 223 159
Width: 1126
Flags: W
LayerCount: 2
Fore
SplineSet
991 187.5 m 128,-1,1
 1018 247 1018 247 1018 314 c 0,2,3
 1018 367 1018 367 1001.5 408 c 128,-1,4
 985 449 985 449 960 483 c 128,-1,5
 935 517 935 517 906 546.5 c 128,-1,6
 877 576 877 576 851 603.5 c 128,-1,7
 825 631 825 631 807.5 661 c 128,-1,8
 790 691 790 691 790 730 c 128,-1,9
 790 769 790 769 813 799 c 128,-1,10
 836 829 836 829 870 854.5 c 128,-1,11
 904 880 904 880 942 907 c 128,-1,12
 980 934 980 934 1013 971 c 128,-1,13
 1046 1008 1046 1008 1067 1058 c 0,14,15
 1088 1107 1088 1107 1088 1178 c 0,16,17
 1088 1237 1088 1237 1066 1284 c 0,18,19
 1020 1378 1020 1378 892 1414 c 0,20,21
 828 1432 828 1432 740.5 1432 c 128,-1,22
 653 1432 653 1432 572 1409.5 c 128,-1,23
 491 1387 491 1387 426.5 1338.5 c 128,-1,24
 362 1290 362 1290 316 1215.5 c 128,-1,25
 270 1141 270 1141 249 1036 c 2,26,-1
 44 -9 l 2,27,28
 27 -97 27 -97 -12 -211 c 0,29,30
 -48 -315 -48 -315 -90 -397 c 1,31,-1
 136 -397 l 1,32,33
 185 -301 185 -301 218 -206 c 0,34,35
 252 -110 252 -110 274 -4 c 2,36,-1
 478 1037 l 2,37,38
 501 1149 501 1149 563.5 1204.5 c 128,-1,39
 626 1260 626 1260 723 1260 c 0,40,41
 782 1260 782 1260 818 1238 c 0,42,43
 860 1214 860 1214 860 1163.5 c 128,-1,44
 860 1113 860 1113 836 1079 c 0,45,46
 813 1044 813 1044 778 1015.5 c 128,-1,47
 743 987 743 987 704 960 c 128,-1,48
 665 933 665 933 631.5 898 c 128,-1,49
 598 863 598 863 576 815.5 c 128,-1,50
 554 768 554 768 554 698 c 0,51,52
 554 647 554 647 571 607 c 0,53,54
 599 536 599 536 665 476 c 0,55,56
 694 449 694 449 719.5 422.5 c 128,-1,57
 745 396 745 396 762.5 367 c 128,-1,58
 780 338 780 338 780 304 c 0,59,60
 780 240 780 240 734.5 200.5 c 128,-1,61
 689 161 689 161 604 161 c 0,62,63
 560 161 560 161 519 168 c 128,-1,64
 478 175 478 175 446 185 c 1,65,-1
 410 -2 l 1,66,67
 474 -16 474 -16 584.5 -16 c 128,-1,68
 695 -16 695 -16 775.5 10.5 c 128,-1,69
 856 37 856 37 910 82.5 c 128,-1,0
 964 128 964 128 991 187.5 c 128,-1,1
EndSplineSet
EndChar

StartChar: ae
Encoding: 230 230 166
Width: 1126
Flags: W
LayerCount: 2
Fore
SplineSet
573.5 1010 m 128,-1,1
 516 1038 516 1038 428 1038 c 0,2,3
 361 1038 361 1038 291 1021 c 128,-1,4
 221 1004 221 1004 162 977 c 1,5,-1
 162 809 l 1,6,7
 221 838 221 838 281.5 856.5 c 128,-1,8
 342 875 342 875 389 875 c 0,9,10
 459 875 459 875 486.5 841.5 c 128,-1,11
 514 808 514 808 514 756 c 0,12,13
 514 739 514 739 511 721 c 0,14,15
 507 691 507 691 505 683 c 2,16,-1
 489 602 l 1,17,-1
 379 602 l 2,18,19
 294 602 294 602 231 584 c 0,20,21
 112 550 112 550 50 467 c 0,22,23
 -5 394 -5 394 -19 299 c 0,24,25
 -26 255 -26 255 -26 217 c 0,26,27
 -26 94 -26 94 36 35.5 c 128,-1,28
 98 -23 98 -23 213 -23 c 0,29,30
 290 -23 290 -23 360 22 c 0,31,32
 426 64 426 64 464 133 c 2,33,-1
 473 149 l 1,34,-1
 478 132 l 2,35,36
 489 96 489 96 507 67 c 0,37,38
 544 8 544 8 618 -12 c 0,39,40
 657 -23 657 -23 709 -23 c 0,41,42
 774 -23 774 -23 854 -6 c 0,43,44
 915 7 915 7 976 30 c 1,45,-1
 976 202 l 1,46,47
 919 180 919 180 871 168.5 c 128,-1,48
 823 157 823 157 772 157 c 0,49,50
 699 157 699 157 660.5 207.5 c 128,-1,51
 622 258 622 258 622 352 c 0,52,53
 622 402 622 402 635 470 c 1,54,-1
 698 470 l 2,55,56
 799 470 799 470 881.5 493.5 c 128,-1,57
 964 517 964 517 1022.5 560 c 128,-1,58
 1081 603 1081 603 1113.5 664 c 128,-1,59
 1146 725 1146 725 1146 801 c 0,60,61
 1146 847 1146 847 1134 889.5 c 128,-1,62
 1122 932 1122 932 1094.5 965 c 128,-1,63
 1067 998 1067 998 1021 1018 c 128,-1,64
 975 1038 975 1038 902 1038 c 128,-1,65
 829 1038 829 1038 771 1009 c 128,-1,66
 713 980 713 980 669 936 c 1,67,-1
 663 929 l 1,68,-1
 658 938 l 2,69,0
 631 982 631 982 573.5 1010 c 128,-1,1
270.5 443 m 128,-1,71
 307 462 307 462 360 462 c 2,72,-1
 462 462 l 1,73,-1
 447 395 l 2,74,75
 437 343 437 343 416.5 298 c 128,-1,76
 396 253 396 253 369 219.5 c 128,-1,77
 342 186 342 186 310.5 167 c 128,-1,78
 279 148 279 148 248 148 c 0,79,80
 207 148 207 148 188 174 c 0,81,82
 170 197 170 197 170 236 c 0,83,84
 170 282 170 282 179.5 321.5 c 128,-1,85
 189 361 189 361 211.5 392.5 c 128,-1,70
 234 424 234 424 270.5 443 c 128,-1,71
751.5 801.5 m 128,-1,87
 804 870 804 870 868 870 c 0,88,89
 914 870 914 870 935 839 c 0,90,91
 952 815 952 815 952 775 c 0,92,93
 952 691 952 691 897 648 c 0,94,95
 837 600 837 600 719 600 c 2,96,-1
 664 600 l 1,97,-1
 667 610 l 1,98,86
 699 733 699 733 751.5 801.5 c 128,-1,87
EndSplineSet
EndChar

StartChar: ccedilla
Encoding: 231 231 167
Width: 1126
Flags: W
LayerCount: 2
Fore
SplineSet
880 43 m 1,0,-1
 880 239 l 1,1,2
 736 183 736 183 612 183 c 0,3,4
 500 183 500 183 438 237.5 c 128,-1,5
 376 292 376 292 376 399 c 0,6,7
 376 439 376 439 383 486 c 0,8,9
 399 589 399 589 453 676 c 0,10,11
 481 722 481 722 522.5 757.5 c 128,-1,12
 564 793 564 793 619 814 c 128,-1,13
 674 835 674 835 742.5 835 c 128,-1,14
 811 835 811 835 879 818 c 128,-1,15
 947 801 947 801 1001 775 c 1,16,-1
 1042 991 l 1,17,18
 991 1007 991 1007 918.5 1019.5 c 128,-1,19
 846 1032 846 1032 754 1032 c 0,20,21
 648 1032 648 1032 560.5 1005.5 c 128,-1,22
 473 979 473 979 403.5 932.5 c 128,-1,23
 334 886 334 886 281.5 823 c 128,-1,24
 229 760 229 760 195 686.5 c 128,-1,25
 161 613 161 613 143.5 533 c 128,-1,26
 126 453 126 453 126 373 c 0,27,28
 126 222 126 222 195.5 129 c 128,-1,29
 265 36 265 36 403 3 c 2,30,-1
 411 1 l 1,31,-1
 301 -295 l 1,32,-1
 467 -295 l 1,33,-1
 616 -15 l 1,34,35
 681 -10 681 -10 749 4.5 c 128,-1,36
 817 19 817 19 880 43 c 1,0,-1
EndSplineSet
EndChar

StartChar: eth
Encoding: 240 240 176
Width: 1126
Flags: W
LayerCount: 2
Fore
SplineSet
641 1146 m 1,0,1
 671 1094 671 1094 697 1034 c 1,2,-1
 659 1034 l 2,3,4
 539 1034 539 1034 448.5 998.5 c 128,-1,5
 358 963 358 963 292 904.5 c 128,-1,6
 226 846 226 846 182.5 772 c 128,-1,7
 139 698 139 698 112.5 620 c 128,-1,8
 86 542 86 542 75 467.5 c 128,-1,9
 64 393 64 393 64 336 c 0,10,11
 64 164 64 164 157 70.5 c 128,-1,12
 250 -23 250 -23 444 -23 c 0,13,14
 565 -23 565 -23 655.5 10.5 c 128,-1,15
 746 44 746 44 811.5 99.5 c 128,-1,16
 877 155 877 155 920 227.5 c 128,-1,17
 963 300 963 300 988.5 377 c 128,-1,18
 1014 454 1014 454 1024 530.5 c 128,-1,19
 1034 607 1034 607 1034 671 c 0,20,21
 1034 790 1034 790 999 915 c 128,-1,22
 964 1040 964 1040 888 1186 c 1,23,-1
 884 1195 l 1,24,-1
 1094 1239 l 1,25,-1
 1094 1403 l 1,26,-1
 797 1342 l 1,27,-1
 752 1413 l 1,28,-1
 469 1413 l 1,29,-1
 552 1292 l 1,30,-1
 346 1250 l 1,31,-1
 346 1086 l 1,32,-1
 641 1146 l 1,0,1
647 850 m 0,33,34
 705 850 705 850 764 833 c 1,35,36
 790 733 790 733 790 644 c 128,-1,37
 790 555 790 555 770.5 472 c 128,-1,38
 751 389 751 389 713 324 c 128,-1,39
 675 259 675 259 618 218.5 c 128,-1,40
 561 178 561 178 487 178 c 0,41,42
 396 178 396 178 351 225 c 128,-1,43
 306 272 306 272 306 371 c 0,44,45
 306 415 306 415 313 467 c 0,46,47
 329 576 329 576 381 675 c 0,48,49
 408 724 408 724 446 763 c 128,-1,50
 484 802 484 802 534 826 c 128,-1,51
 584 850 584 850 647 850 c 0,33,34
EndSplineSet
EndChar

StartChar: divide
Encoding: 247 247 183
Width: 1126
Flags: W
LayerCount: 2
Fore
SplineSet
110 638 m 1,0,-1
 72 452 l 1,1,-1
 1028 452 l 1,2,-1
 1066 638 l 1,3,-1
 110 638 l 1,0,-1
635.5 792 m 128,-1,5
 667 792 667 792 695 802.5 c 128,-1,6
 723 813 723 813 744.5 833.5 c 128,-1,7
 766 854 766 854 779 880.5 c 128,-1,8
 792 907 792 907 792 937 c 128,-1,9
 792 967 792 967 781.5 992 c 128,-1,10
 771 1017 771 1017 752 1035.5 c 128,-1,11
 733 1054 733 1054 706.5 1065 c 128,-1,12
 680 1076 680 1076 648.5 1076 c 128,-1,13
 617 1076 617 1076 589.5 1065 c 128,-1,14
 562 1054 562 1054 541 1034 c 128,-1,15
 520 1014 520 1014 508 986 c 128,-1,16
 496 958 496 958 496 928 c 128,-1,17
 496 898 496 898 506 874 c 128,-1,18
 516 850 516 850 534 831.5 c 128,-1,19
 552 813 552 813 578 802.5 c 128,-1,4
 604 792 604 792 635.5 792 c 128,-1,5
479.5 14 m 128,-1,21
 511 14 511 14 539 24.5 c 128,-1,22
 567 35 567 35 588.5 55.5 c 128,-1,23
 610 76 610 76 623 102.5 c 128,-1,24
 636 129 636 129 636 159 c 128,-1,25
 636 189 636 189 625.5 214 c 128,-1,26
 615 239 615 239 596.5 257.5 c 128,-1,27
 578 276 578 276 551.5 287 c 128,-1,28
 525 298 525 298 493.5 298 c 128,-1,29
 462 298 462 298 434.5 287 c 128,-1,30
 407 276 407 276 386 256 c 128,-1,31
 365 236 365 236 353.5 208 c 128,-1,32
 342 180 342 180 342 150 c 128,-1,33
 342 120 342 120 351.5 96 c 128,-1,34
 361 72 361 72 378.5 53.5 c 128,-1,35
 396 35 396 35 422 24.5 c 128,-1,20
 448 14 448 14 479.5 14 c 128,-1,21
EndSplineSet
EndChar

StartChar: oslash
Encoding: 248 248 184
Width: 1126
Flags: W
LayerCount: 2
Fore
SplineSet
424 -20 m 2,0,1
 447 -23 447 -23 473 -23 c 0,2,3
 567 -23 567 -23 647.5 3 c 128,-1,4
 728 29 728 29 793.5 75.5 c 128,-1,5
 859 122 859 122 909.5 186 c 128,-1,6
 960 250 960 250 994 325 c 128,-1,7
 1028 400 1028 400 1046 483.5 c 128,-1,8
 1064 567 1064 567 1064 654 c 0,9,10
 1064 768 1064 768 1024 846.5 c 128,-1,11
 984 925 984 925 914 971 c 2,12,-1
 908 975 l 1,13,-1
 1046 1231 l 1,14,-1
 858 1231 l 1,15,-1
 749 1031 l 1,16,17
 699 1038 699 1038 653 1038 c 0,18,19
 559 1038 559 1038 478.5 1012 c 128,-1,20
 398 986 398 986 332.5 939.5 c 128,-1,21
 267 893 267 893 216.5 829.5 c 128,-1,22
 166 766 166 766 132 690.5 c 128,-1,23
 98 615 98 615 80 531.5 c 128,-1,24
 62 448 62 448 62 361 c 0,25,26
 62 248 62 248 101 170 c 128,-1,27
 140 92 140 92 209 47 c 2,28,-1
 215 43 l 1,29,-1
 76 -215 l 1,30,-1
 264 -215 l 1,31,-1
 373 -13 l 1,32,-1
 424 -20 l 2,0,1
322 240 m 1,33,-1
 315 252 l 2,34,35
 288 302 288 302 288 386 c 0,36,37
 288 429 288 429 296 481 c 0,38,39
 314 589 314 589 367 682 c 0,40,41
 424 782 424 782 515 824 c 0,42,43
 562 846 562 846 621 846 c 2,44,-1
 639 846 l 1,45,-1
 652 846 l 1,46,-1
 322 240 l 1,33,-1
806 761 m 2,47,48
 832 711 832 711 832 631 c 0,49,50
 832 584 832 584 824 533 c 0,51,52
 806 425 806 425 753 332 c 0,53,54
 726 284 726 284 689 248 c 128,-1,55
 652 212 652 212 605 190 c 128,-1,56
 558 168 558 168 500 168 c 2,57,-1
 481 168 l 1,58,-1
 468 168 l 1,59,-1
 799 773 l 1,60,-1
 806 761 l 2,47,48
EndSplineSet
EndChar

StartChar: thorn
Encoding: 254 254 190
Width: 1126
Flags: W
LayerCount: 2
Fore
SplineSet
1011 404 m 128,-1,1
 1052 534 1052 534 1052 689 c 0,2,3
 1052 856 1052 856 977 947 c 128,-1,4
 902 1038 902 1038 758 1038 c 0,5,6
 659 1038 659 1038 571 990 c 0,7,8
 527 966 527 966 491 933 c 128,-1,9
 455 900 455 900 428 858 c 2,10,-1
 394 803 l 1,11,-1
 487 1074 l 1,12,-1
 554 1413 l 1,13,-1
 325 1413 l 1,14,-1
 -34 -397 l 1,15,-1
 195 -397 l 1,16,-1
 269 -26 l 1,17,-1
 273 -7 l 1,18,19
 355 -18 355 -18 451 -18 c 0,20,21
 593 -18 593 -18 704.5 34.5 c 128,-1,22
 816 87 816 87 893 180.5 c 128,-1,0
 970 274 970 274 1011 404 c 128,-1,1
783 797 m 128,-1,24
 812 752 812 752 812 670 c 0,25,26
 812 628 812 628 806 574 c 0,27,28
 793 458 793 458 744 356 c 0,29,30
 718 302 718 302 679 259.5 c 128,-1,31
 640 217 640 217 585 190.5 c 128,-1,32
 530 164 530 164 457 164 c 0,33,34
 385 164 385 164 317 188 c 1,35,-1
 310 190 l 1,36,-1
 360 435 l 2,37,38
 376 525 376 525 433 621 c 0,39,40
 460 666 460 666 492 706 c 0,41,42
 558 789 558 789 626 824 c 0,43,44
 661 842 661 842 694 842 c 0,45,23
 754 842 754 842 783 797 c 128,-1,24
EndSplineSet
EndChar

StartChar: Aogonek
Encoding: 260 260 196
Width: 1126
Flags: W
LayerCount: 2
Fore
SplineSet
942 -387 m 1,0,-1
 942 -255 l 1,1,2
 905 -261 905 -261 879 -261 c 0,3,4
 842 -261 842 -261 826 -249 c 128,-1,5
 810 -237 810 -237 810 -216 c 0,6,7
 810 -201 810 -201 815 -183 c 0,8,9
 828 -143 828 -143 882 -81 c 0,10,11
 911 -47 911 -47 958 0 c 1,12,-1
 1012 0 l 1,13,-1
 888 1292 l 1,14,-1
 556 1292 l 1,15,-1
 -86 0 l 1,16,-1
 153 0 l 1,17,-1
 278 258 l 1,18,-1
 746 258 l 1,19,-1
 768 -11 l 1,20,21
 714 -51 714 -51 681.5 -84.5 c 128,-1,22
 649 -118 649 -118 630.5 -148 c 128,-1,23
 612 -178 612 -178 605 -204.5 c 128,-1,24
 598 -231 598 -231 598 -258 c 128,-1,25
 598 -285 598 -285 606.5 -311.5 c 128,-1,26
 615 -338 615 -338 638 -359 c 128,-1,27
 661 -380 661 -380 700.5 -393 c 128,-1,28
 740 -406 740 -406 803 -406 c 0,29,30
 833 -406 833 -406 872 -400.5 c 128,-1,31
 911 -395 911 -395 942 -387 c 1,0,-1
731 452 m 1,32,-1
 369 452 l 1,33,-1
 681 1095 l 1,34,-1
 731 452 l 1,32,-1
EndSplineSet
EndChar

StartChar: aogonek
Encoding: 261 261 197
Width: 1126
Flags: W
LayerCount: 2
Fore
SplineSet
900 -387 m 1,0,-1
 900 -255 l 1,1,2
 862 -261 862 -261 836 -261 c 0,3,4
 799 -261 799 -261 782.5 -249 c 128,-1,5
 766 -237 766 -237 766 -216 c 0,6,7
 766 -201 766 -201 772 -183 c 0,8,9
 785 -143 785 -143 839 -81 c 0,10,11
 867 -48 867 -48 911 -3 c 1,12,13
 938 295 938 295 956 405 c 0,14,15
 962 442 962 442 968 474 c 2,16,-1
 1077 1034 l 1,17,-1
 913 999 l 1,18,19
 866 1013 866 1013 806 1023.5 c 128,-1,20
 746 1034 746 1034 670 1034 c 0,21,22
 528 1034 528 1034 416 981.5 c 128,-1,23
 304 929 304 929 227 835.5 c 128,-1,24
 150 742 150 742 109 611.5 c 128,-1,25
 68 481 68 481 68 327 c 0,26,27
 68 159 68 159 143 68 c 128,-1,28
 218 -23 218 -23 362 -23 c 0,29,30
 427 -23 427 -23 482.5 -4 c 128,-1,31
 538 15 538 15 583.5 44.5 c 128,-1,32
 629 74 629 74 663.5 110 c 128,-1,33
 698 146 698 146 721 181 c 2,34,-1
 736 203 l 1,35,-1
 726 -11 l 1,36,37
 671 -51 671 -51 638.5 -84.5 c 128,-1,38
 606 -118 606 -118 587.5 -148 c 128,-1,39
 569 -178 569 -178 561.5 -204.5 c 128,-1,40
 554 -231 554 -231 554 -258 c 128,-1,41
 554 -285 554 -285 563 -311.5 c 128,-1,42
 572 -338 572 -338 595 -359 c 128,-1,43
 618 -380 618 -380 657.5 -393 c 128,-1,44
 697 -406 697 -406 760 -406 c 0,45,46
 790 -406 790 -406 829 -400.5 c 128,-1,47
 868 -395 868 -395 900 -387 c 1,0,-1
527.5 212 m 128,-1,49
 474 174 474 174 426 174 c 0,50,51
 366 174 366 174 337 219 c 128,-1,52
 308 264 308 264 308 346 c 0,53,54
 308 387 308 387 314 441 c 0,55,56
 327 558 327 558 376 660 c 0,57,58
 402 714 402 714 442 756.5 c 128,-1,59
 482 799 482 799 536.5 825.5 c 128,-1,60
 591 852 591 852 664 852 c 0,61,62
 735 852 735 852 803 828 c 1,63,-1
 810 826 l 1,64,-1
 761 581 l 2,65,66
 748 512 748 512 712 440 c 128,-1,67
 676 368 676 368 628.5 309 c 128,-1,48
 581 250 581 250 527.5 212 c 128,-1,49
EndSplineSet
EndChar

StartChar: dcroat
Encoding: 273 273 209
Width: 1126
Flags: W
LayerCount: 2
Fore
SplineSet
764.5 1029 m 128,-1,1
 724 1034 724 1034 670 1034 c 0,2,3
 528 1034 528 1034 416 981.5 c 128,-1,4
 304 929 304 929 227 835.5 c 128,-1,5
 150 742 150 742 109 611.5 c 128,-1,6
 68 481 68 481 68 327 c 0,7,8
 68 159 68 159 143 68 c 128,-1,9
 218 -23 218 -23 362 -23 c 0,10,11
 427 -23 427 -23 482.5 -3.5 c 128,-1,12
 538 16 538 16 583.5 46 c 128,-1,13
 629 76 629 76 663.5 112 c 128,-1,14
 698 148 698 148 721 183 c 2,15,-1
 736 206 l 1,16,-1
 727 0 l 1,17,-1
 911 0 l 1,18,19
 938 295 938 295 956 404 c 0,20,21
 962 441 962 441 968 473 c 2,22,-1
 1100 1143 l 1,23,-1
 1229 1143 l 1,24,-1
 1263 1307 l 1,25,-1
 1132 1307 l 1,26,-1
 1154 1413 l 1,27,-1
 926 1413 l 1,28,-1
 903 1307 l 1,29,-1
 631 1307 l 1,30,-1
 597 1143 l 1,31,-1
 871 1143 l 1,32,-1
 846 1017 l 1,33,0
 805 1024 805 1024 764.5 1029 c 128,-1,1
337 219 m 128,-1,35
 308 264 308 264 308 346 c 0,36,37
 308 387 308 387 314 441 c 0,38,39
 327 558 327 558 376 660 c 0,40,41
 402 714 402 714 442 756.5 c 128,-1,42
 482 799 482 799 536.5 825.5 c 128,-1,43
 591 852 591 852 664 852 c 0,44,45
 708 852 708 852 744.5 844 c 128,-1,46
 781 836 781 836 810 826 c 1,47,-1
 761 581 l 2,48,49
 748 512 748 512 712 440 c 128,-1,50
 676 368 676 368 628.5 309 c 128,-1,51
 581 250 581 250 527.5 212 c 128,-1,52
 474 174 474 174 426 174 c 0,53,34
 366 174 366 174 337 219 c 128,-1,35
EndSplineSet
EndChar

StartChar: Eogonek
Encoding: 280 280 216
Width: 1126
Flags: W
LayerCount: 2
Fore
SplineSet
850 -387 m 1,0,-1
 850 -255 l 1,1,2
 813 -261 813 -261 787 -261 c 0,3,4
 750 -261 750 -261 734 -249 c 128,-1,5
 718 -237 718 -237 718 -216 c 0,6,7
 718 -201 718 -201 723 -183 c 0,8,9
 736 -143 736 -143 790 -81 c 0,10,11
 818 -48 818 -48 861 -4 c 1,12,-1
 900 193 l 1,13,-1
 364 193 l 1,14,-1
 440 571 l 1,15,-1
 952 571 l 1,16,-1
 988 759 l 1,17,-1
 476 759 l 1,18,-1
 545 1099 l 1,19,-1
 1081 1099 l 1,20,-1
 1121 1292 l 1,21,-1
 350 1292 l 1,22,-1
 91 0 l 1,23,-1
 691 0 l 1,24,-1
 672 -14 l 2,25,26
 537 -115 537 -115 513 -204 c 0,27,28
 506 -231 506 -231 506 -258 c 128,-1,29
 506 -285 506 -285 514.5 -311.5 c 128,-1,30
 523 -338 523 -338 546 -359 c 128,-1,31
 569 -380 569 -380 608.5 -393 c 128,-1,32
 648 -406 648 -406 711 -406 c 0,33,34
 741 -406 741 -406 780 -400.5 c 128,-1,35
 819 -395 819 -395 850 -387 c 1,0,-1
EndSplineSet
EndChar

StartChar: eogonek
Encoding: 281 281 217
Width: 1126
Flags: W
LayerCount: 2
Fore
SplineSet
738 -387 m 1,0,-1
 738 -255 l 1,1,2
 700 -261 700 -261 674 -261 c 0,3,4
 637 -261 637 -261 620.5 -249 c 128,-1,5
 604 -237 604 -237 604 -216 c 0,6,7
 604 -201 604 -201 610 -183 c 0,8,9
 623 -143 623 -143 677 -81 c 0,10,11
 706 -47 706 -47 752 1 c 1,12,13
 812 10 812 10 874 27 c 1,14,-1
 874 203 l 1,15,16
 798 183 798 183 714.5 171.5 c 128,-1,17
 631 160 631 160 555 160 c 0,18,19
 440 160 440 160 380 212.5 c 128,-1,20
 320 265 320 265 320 360 c 0,21,22
 320 400 320 400 326 431 c 1,23,-1
 465 431 l 2,24,25
 622 431 622 431 732 455 c 0,26,27
 944 503 944 503 1006 630 c 0,28,29
 1036 692 1036 692 1036 768 c 0,30,31
 1036 828 1036 828 1012.5 877.5 c 128,-1,32
 989 927 989 927 944 962.5 c 128,-1,33
 899 998 899 998 832.5 1018 c 128,-1,34
 766 1038 766 1038 680 1038 c 0,35,36
 548 1038 548 1038 440.5 983.5 c 128,-1,37
 333 929 333 929 256.5 835.5 c 128,-1,38
 180 742 180 742 138 617.5 c 128,-1,39
 96 493 96 493 96 354 c 0,40,41
 96 259 96 259 124 188 c 0,42,43
 180 49 180 49 334 1 c 0,44,45
 411 -23 411 -23 508 -23 c 2,46,-1
 546 -23 l 1,47,-1
 530 -36 l 2,48,49
 417 -128 417 -128 398 -208 c 0,50,51
 392 -233 392 -233 392 -259 c 128,-1,52
 392 -285 392 -285 401 -311.5 c 128,-1,53
 410 -338 410 -338 433 -359 c 128,-1,54
 456 -380 456 -380 495.5 -393 c 128,-1,55
 535 -406 535 -406 598 -406 c 0,56,57
 628 -406 628 -406 667 -400.5 c 128,-1,58
 706 -395 706 -395 738 -387 c 1,0,-1
647 603 m 0,59,60
 583 590 583 590 477 590 c 2,61,-1
 361 590 l 1,62,-1
 364 600 l 2,63,64
 379 654 379 654 405 702 c 0,65,66
 459 801 459 801 551 842 c 0,67,68
 598 864 598 864 655 864 c 0,69,70
 726 864 726 864 769 831 c 128,-1,71
 812 798 812 798 812 741 c 0,72,73
 812 711 812 711 800 683 c 0,74,75
 773 626 773 626 647 603 c 0,59,60
EndSplineSet
EndChar

StartChar: Hbar
Encoding: 294 294 230
Width: 1126
Flags: W
LayerCount: 2
Fore
SplineSet
254 8 m 1,0,-1
 363 552 l 1,1,-1
 781 552 l 1,2,-1
 673 8 l 1,3,-1
 903 8 l 1,4,-1
 1086 922 l 1,5,-1
 1180 922 l 1,6,-1
 1218 1110 l 1,7,-1
 1124 1111 l 1,8,-1
 1162 1300 l 1,9,-1
 932 1300 l 1,10,-1
 893 1110 l 1,11,-1
 474 1110 l 1,12,-1
 513 1300 l 1,13,-1
 282 1300 l 1,14,-1
 244 1110 l 1,15,-1
 147 1110 l 1,16,-1
 109 922 l 1,17,-1
 206 922 l 1,18,-1
 23 8 l 1,19,-1
 254 8 l 1,0,-1
819 740 m 1,20,-1
 401 740 l 1,21,-1
 436 923 l 1,22,-1
 855 923 l 1,23,-1
 819 740 l 1,20,-1
EndSplineSet
EndChar

StartChar: hbar
Encoding: 295 295 231
Width: 1126
Flags: W
LayerCount: 2
Fore
SplineSet
901 969.5 m 128,-1,1
 853 993 853 993 774 993 c 0,2,3
 678 993 678 993 601 949 c 0,4,5
 562 927 562 927 526.5 893 c 128,-1,6
 491 859 491 859 452 812 c 2,7,-1
 429 784 l 1,8,-1
 497 1029 l 1,9,-1
 516 1133 l 1,10,-1
 782 1133 l 1,11,-1
 816 1300 l 1,12,-1
 550 1300 l 1,13,-1
 573 1413 l 1,14,-1
 344 1413 l 1,15,-1
 321 1300 l 1,16,-1
 172 1300 l 1,17,-1
 138 1133 l 1,18,-1
 288 1133 l 1,19,-1
 64 15 l 1,20,-1
 293 15 l 1,21,-1
 370 398 l 2,22,23
 386 477 386 477 422 550 c 128,-1,24
 458 623 458 623 502 679 c 128,-1,25
 546 735 546 735 593.5 769 c 128,-1,26
 641 803 641 803 690 803 c 0,27,28
 719 803 719 803 736.5 794.5 c 128,-1,29
 754 786 754 786 765.5 770 c 128,-1,30
 777 754 777 754 780.5 734 c 128,-1,31
 784 714 784 714 784 693.5 c 128,-1,32
 784 673 784 673 780 650 c 0,33,34
 772 597 772 597 764 563.5 c 128,-1,35
 756 530 756 530 752 512 c 2,36,-1
 652 15 l 1,37,-1
 881 15 l 1,38,39
 965 439 965 439 981 521 c 0,40,41
 1008 653 1008 653 1013 688.5 c 128,-1,42
 1018 724 1018 724 1018 758 c 128,-1,43
 1018 792 1018 792 1009.5 832 c 128,-1,44
 1001 872 1001 872 975 909 c 128,-1,0
 949 946 949 946 901 969.5 c 128,-1,1
0 1038 m 1024,45,-1
EndSplineSet
EndChar

StartChar: Iogonek
Encoding: 302 302 238
Width: 1126
Flags: W
LayerCount: 2
Fore
SplineSet
856 -387 m 1,0,-1
 856 -255 l 1,1,2
 819 -261 819 -261 793 -261 c 0,3,4
 756 -261 756 -261 740 -249 c 128,-1,5
 724 -237 724 -237 724 -216 c 0,6,7
 724 -201 724 -201 729 -183 c 0,8,9
 742 -143 742 -143 796 -81 c 0,10,11
 824 -48 824 -48 867 -4 c 1,12,-1
 906 188 l 1,13,-1
 617 188 l 1,14,-1
 801 1106 l 1,15,-1
 1090 1106 l 1,16,-1
 1128 1292 l 1,17,-1
 315 1292 l 1,18,-1
 278 1106 l 1,19,-1
 566 1106 l 1,20,-1
 382 188 l 1,21,-1
 94 188 l 1,22,-1
 57 0 l 1,23,-1
 697 0 l 1,24,-1
 678 -14 l 2,25,26
 543 -115 543 -115 519 -204 c 0,27,28
 512 -231 512 -231 512 -258 c 128,-1,29
 512 -285 512 -285 520.5 -311.5 c 128,-1,30
 529 -338 529 -338 552 -359 c 128,-1,31
 575 -380 575 -380 614.5 -393 c 128,-1,32
 654 -406 654 -406 717 -406 c 0,33,34
 747 -406 747 -406 786 -400.5 c 128,-1,35
 825 -395 825 -395 856 -387 c 1,0,-1
EndSplineSet
EndChar

StartChar: iogonek
Encoding: 303 303 239
Width: 1126
Flags: W
LayerCount: 2
Fore
SplineSet
808 -387 m 1,0,-1
 808 -255 l 1,1,2
 770 -261 770 -261 743 -261 c 0,3,4
 705 -261 705 -261 689.5 -249 c 128,-1,5
 674 -237 674 -237 674 -216 c 0,6,7
 674 -201 674 -201 680 -182.5 c 128,-1,8
 686 -164 686 -164 702 -139 c 0,9,10
 738 -81 738 -81 820 0 c 1,11,12
 893 21 893 21 958 56 c 1,13,-1
 958 229 l 1,14,15
 891 197 891 197 835 177 c 128,-1,16
 779 157 779 157 731 157 c 0,17,18
 670 157 670 157 649 200 c 0,19,20
 639 222 639 222 639 257 c 128,-1,21
 639 292 639 292 648 340 c 2,22,-1
 714 672 l 2,23,24
 727 742 727 742 727 798 c 0,25,26
 727 896 727 896 686 951 c 0,27,28
 621 1038 621 1038 455 1038 c 0,29,30
 378 1038 378 1038 306 1016.5 c 128,-1,31
 234 995 234 995 172 960 c 1,32,-1
 172 788 l 1,33,34
 237 820 237 820 293.5 840 c 128,-1,35
 350 860 350 860 397 860 c 0,36,37
 457 860 457 860 479 817 c 0,38,39
 490 796 490 796 490 760.5 c 128,-1,40
 490 725 490 725 480 677 c 2,41,-1
 415 344 l 2,42,43
 401 272 401 272 401 214 c 0,44,45
 401 136 401 136 428 85 c 0,46,47
 475 -1 475 -1 602 -18 c 2,48,-1
 620 -20 l 1,49,-1
 606 -31 l 2,50,51
 487 -126 487 -126 468 -208 c 0,52,53
 462 -233 462 -233 462 -259 c 128,-1,54
 462 -285 462 -285 471 -311.5 c 128,-1,55
 480 -338 480 -338 503 -359 c 128,-1,56
 526 -380 526 -380 565.5 -393 c 128,-1,57
 605 -406 605 -406 668 -406 c 0,58,59
 698 -406 698 -406 737 -400.5 c 128,-1,60
 776 -395 776 -395 808 -387 c 1,0,-1
799.5 1195.5 m 128,-1,62
 822 1217 822 1217 835 1246.5 c 128,-1,63
 848 1276 848 1276 848 1307.5 c 128,-1,64
 848 1339 848 1339 838 1364.5 c 128,-1,65
 828 1390 828 1390 808.5 1410 c 128,-1,66
 789 1430 789 1430 761.5 1442 c 128,-1,67
 734 1454 734 1454 701 1454 c 128,-1,68
 668 1454 668 1454 638 1441.5 c 128,-1,69
 608 1429 608 1429 585 1407.5 c 128,-1,70
 562 1386 562 1386 549 1357 c 128,-1,71
 536 1328 536 1328 536 1296.5 c 128,-1,72
 536 1265 536 1265 546.5 1239 c 128,-1,73
 557 1213 557 1213 577 1193.5 c 128,-1,74
 597 1174 597 1174 625 1162 c 128,-1,75
 653 1150 653 1150 686 1150 c 128,-1,76
 719 1150 719 1150 748 1162 c 128,-1,61
 777 1174 777 1174 799.5 1195.5 c 128,-1,62
EndSplineSet
EndChar

StartChar: dotlessi
Encoding: 305 305 241
Width: 1126
Flags: W
LayerCount: 2
Fore
SplineSet
714 672 m 2,0,1
 727 742 727 742 727 798 c 0,2,3
 727 896 727 896 686 951 c 0,4,5
 621 1038 621 1038 455 1038 c 0,6,7
 378 1038 378 1038 306 1016.5 c 128,-1,8
 234 995 234 995 172 960 c 1,9,-1
 172 788 l 1,10,11
 237 820 237 820 293.5 840 c 128,-1,12
 350 860 350 860 397 860 c 0,13,14
 457 860 457 860 479 817 c 0,15,16
 490 796 490 796 490 760.5 c 128,-1,17
 490 725 490 725 480 677 c 2,18,-1
 415 344 l 2,19,20
 401 273 401 273 401 215 c 0,21,22
 401 118 401 118 442 64 c 0,23,24
 507 -23 507 -23 674 -23 c 0,25,26
 750 -23 750 -23 822.5 -1 c 128,-1,27
 895 21 895 21 958 55 c 1,28,-1
 958 228 l 1,29,30
 891 196 891 196 835 176 c 128,-1,31
 779 156 779 156 731 156 c 0,32,33
 670 156 670 156 649 199 c 0,34,35
 639 220 639 220 639 255.5 c 128,-1,36
 639 291 639 291 648 339 c 2,37,-1
 714 672 l 2,0,1
EndSplineSet
EndChar

StartChar: IJ
Encoding: 306 306 242
Width: 1126
Flags: W
LayerCount: 2
Fore
SplineSet
262 1300 m 1,0,-1
 3 8 l 1,1,-1
 234 8 l 1,2,-1
 493 1300 l 1,3,-1
 262 1300 l 1,0,-1
468 231 m 1,4,-1
 344 64 l 1,5,6
 435 -16 435 -16 586 -16 c 0,7,8
 749 -16 749 -16 851 66.5 c 128,-1,9
 953 149 953 149 982 297 c 2,10,-1
 1183 1292 l 1,11,-1
 952 1292 l 1,12,-1
 757 327 l 2,13,14
 748 284 748 284 731 254 c 0,15,16
 699 198 699 198 648 182 c 0,17,18
 624 175 624 175 602 175 c 0,19,20
 551 175 551 175 519 195 c 0,21,22
 491 211 491 211 468 231 c 1,4,-1
EndSplineSet
EndChar

StartChar: ij
Encoding: 307 307 243
Width: 1126
Flags: W
LayerCount: 2
Fore
SplineSet
256 -193 m 1,0,-1
 160 -351 l 1,1,2
 205 -382 205 -382 270.5 -401 c 128,-1,3
 336 -420 336 -420 420.5 -420 c 128,-1,4
 505 -420 505 -420 579.5 -399.5 c 128,-1,5
 654 -379 654 -379 711 -333 c 0,6,7
 832 -236 832 -236 876 -24 c 2,8,-1
 1081 1001 l 1,9,-1
 852 1001 l 1,10,-1
 650 -9 l 2,11,12
 625 -131 625 -131 568 -187.5 c 128,-1,13
 511 -244 511 -244 416 -244 c 0,14,15
 364 -244 364 -244 323.5 -228.5 c 128,-1,16
 283 -213 283 -213 256 -193 c 1,0,-1
46 8 m 1,17,-1
 275 8 l 1,18,-1
 474 1008 l 1,19,-1
 246 1008 l 1,20,-1
 46 8 l 1,17,-1
525 1197 m 128,-1,22
 547 1218 547 1218 559.5 1247 c 128,-1,23
 572 1276 572 1276 572 1307.5 c 128,-1,24
 572 1339 572 1339 562 1364.5 c 128,-1,25
 552 1390 552 1390 533 1409.5 c 128,-1,26
 514 1429 514 1429 486.5 1440.5 c 128,-1,27
 459 1452 459 1452 426 1452 c 128,-1,28
 393 1452 393 1452 364 1440 c 128,-1,29
 335 1428 335 1428 312.5 1407 c 128,-1,30
 290 1386 290 1386 277 1357 c 128,-1,31
 264 1328 264 1328 264 1296.5 c 128,-1,32
 264 1265 264 1265 274 1239.5 c 128,-1,33
 284 1214 284 1214 303.5 1194.5 c 128,-1,34
 323 1175 323 1175 350.5 1163.5 c 128,-1,35
 378 1152 378 1152 411.5 1152 c 128,-1,36
 445 1152 445 1152 474 1164 c 128,-1,21
 503 1176 503 1176 525 1197 c 128,-1,22
1131 1197 m 128,-1,38
 1153 1218 1153 1218 1165.5 1247 c 128,-1,39
 1178 1276 1178 1276 1178 1307.5 c 128,-1,40
 1178 1339 1178 1339 1168 1364.5 c 128,-1,41
 1158 1390 1158 1390 1139 1409.5 c 128,-1,42
 1120 1429 1120 1429 1092.5 1440.5 c 128,-1,43
 1065 1452 1065 1452 1032 1452 c 128,-1,44
 999 1452 999 1452 970 1440 c 128,-1,45
 941 1428 941 1428 918.5 1407 c 128,-1,46
 896 1386 896 1386 883 1357 c 128,-1,47
 870 1328 870 1328 870 1296.5 c 128,-1,48
 870 1265 870 1265 880 1239.5 c 128,-1,49
 890 1214 890 1214 909.5 1194.5 c 128,-1,50
 929 1175 929 1175 956.5 1163.5 c 128,-1,51
 984 1152 984 1152 1017.5 1152 c 128,-1,52
 1051 1152 1051 1152 1080 1164 c 128,-1,37
 1109 1176 1109 1176 1131 1197 c 128,-1,38
EndSplineSet
EndChar

StartChar: Lslash
Encoding: 321 321 257
Width: 1126
Flags: W
LayerCount: 2
Fore
SplineSet
949 204 m 1,0,-1
 396 204 l 1,1,-1
 491 684 l 1,2,-1
 904 875 l 1,3,-1
 904 1061 l 1,4,-1
 533 888 l 1,5,-1
 615 1300 l 1,6,-1
 380 1300 l 1,7,-1
 274 770 l 1,8,-1
 52 667 l 1,9,-1
 52 481 l 1,10,-1
 233 564 l 1,11,-1
 122 8 l 1,12,-1
 912 8 l 1,13,-1
 949 204 l 1,0,-1
EndSplineSet
EndChar

StartChar: lslash
Encoding: 322 322 258
Width: 1126
Flags: W
LayerCount: 2
Fore
SplineSet
724.5 177 m 128,-1,1
 643 155 643 155 569 155 c 0,2,3
 454 155 454 155 454 260 c 0,4,5
 454 283 454 283 460 310 c 2,6,-1
 536 698 l 1,7,-1
 900 866 l 1,8,-1
 900 1067 l 1,9,-1
 580 921 l 1,10,-1
 677 1413 l 1,11,-1
 446 1413 l 1,12,-1
 324 799 l 1,13,-1
 56 675 l 1,14,-1
 56 474 l 1,15,-1
 280 577 l 1,16,-1
 234 345 l 2,17,18
 221 277 221 277 221 222 c 0,19,20
 221 123 221 123 264 65 c 0,21,22
 332 -23 332 -23 510 -23 c 0,23,24
 615 -23 615 -23 713.5 -1 c 128,-1,25
 812 21 812 21 910 62 c 1,26,-1
 910 239 l 1,27,0
 806 199 806 199 724.5 177 c 128,-1,1
EndSplineSet
EndChar

StartChar: Eng
Encoding: 330 330 266
Width: 1126
Flags: W
LayerCount: 2
Fore
SplineSet
430 -240 m 1,0,-1
 394 -420 l 1,1,2
 505 -419 505 -419 593.5 -401.5 c 128,-1,3
 682 -384 682 -384 748.5 -337.5 c 128,-1,4
 815 -291 815 -291 860 -211 c 128,-1,5
 905 -131 905 -131 931 -4 c 2,6,-1
 1191 1292 l 1,7,-1
 981 1292 l 1,8,-1
 830 548 l 1,9,-1
 805 396 l 1,10,-1
 767 533 l 1,11,-1
 527 1292 l 1,12,-1
 266 1292 l 1,13,-1
 7 0 l 1,14,-1
 215 0 l 1,15,-1
 376 809 l 1,16,-1
 409 971 l 1,17,-1
 704 -7 l 1,18,19
 677 -135 677 -135 607.5 -187 c 128,-1,20
 538 -239 538 -239 430 -240 c 1,0,-1
EndSplineSet
EndChar

StartChar: eng
Encoding: 331 331 267
Width: 1126
Flags: W
LayerCount: 2
Fore
SplineSet
1013 661 m 2,0,1
 1025 722 1025 722 1025 775 c 0,2,3
 1025 873 1025 873 984 938 c 0,4,5
 953 986 953 986 898 1012 c 128,-1,6
 843 1038 843 1038 764 1038 c 0,7,8
 700 1038 700 1038 644.5 1018.5 c 128,-1,9
 589 999 589 999 543.5 969 c 128,-1,10
 498 939 498 939 463 903 c 128,-1,11
 428 867 428 867 405 832 c 2,12,-1
 390 809 l 1,13,-1
 400 1016 l 1,14,-1
 216 1016 l 1,15,16
 191 769 191 769 184 709 c 0,17,18
 171 603 171 603 159 543 c 2,19,-1
 52 2 l 1,20,-1
 281 2 l 1,21,-1
 366 435 l 2,22,23
 384 527 384 527 440 624 c 0,24,25
 466 669 466 669 498 710 c 0,26,27
 564 794 564 794 633 829 c 0,28,29
 668 847 668 847 700 847 c 0,30,31
 756 847 756 847 778 797 c 0,32,33
 791 770 791 770 791 735.5 c 128,-1,34
 791 701 791 701 783 663 c 2,35,-1
 656 24 l 2,36,37
 630 -108 630 -108 563 -168 c 0,38,39
 497 -228 497 -228 383 -230 c 1,40,-1
 343 -420 l 1,41,42
 456 -419 456 -419 545.5 -397 c 128,-1,43
 635 -375 635 -375 702 -324 c 128,-1,44
 769 -273 769 -273 814 -190 c 256,45,46
 859 -107 859 -107 884 15 c 2,47,-1
 1013 661 l 2,0,1
EndSplineSet
EndChar

StartChar: OE
Encoding: 338 338 274
Width: 1126
Flags: W
LayerCount: 2
Fore
SplineSet
1251 1307 m 1,0,-1
 897 1307 l 2,1,2
 868 1307 868 1307 842 1310 c 0,3,4
 779 1318 779 1318 740.5 1321.5 c 128,-1,5
 702 1325 702 1325 662 1325 c 0,6,7
 563 1325 563 1325 484 1296 c 0,8,9
 330 1238 330 1238 233 1101 c 0,10,11
 144 975 144 975 96 808 c 0,12,13
 54 664 54 664 42 520 c 0,14,15
 36 456 36 456 36 411 c 0,16,17
 36 309 36 309 57 230 c 0,18,19
 99 69 99 69 237 11 c 0,20,21
 307 -18 307 -18 408 -18 c 0,22,23
 443 -18 443 -18 469 -15 c 0,24,25
 558 -5 558 -5 581.5 -2.5 c 128,-1,26
 605 0 605 0 643 0 c 2,27,-1
 991 0 l 1,28,-1
 1027 184 l 1,29,-1
 739 184 l 1,30,-1
 817 587 l 1,31,-1
 1084 587 l 1,32,-1
 1119 764 l 1,33,-1
 853 764 l 1,34,-1
 924 1123 l 1,35,-1
 1213 1123 l 1,36,-1
 1251 1307 l 1,0,-1
492.5 179 m 128,-1,38
 476 176 476 176 449 176 c 0,39,40
 355 176 355 176 310.5 232.5 c 128,-1,41
 266 289 266 289 266 406 c 0,42,43
 266 450 266 450 274 518.5 c 128,-1,44
 282 587 282 587 299 665.5 c 128,-1,45
 316 744 316 744 343.5 823 c 128,-1,46
 371 902 371 902 411 966.5 c 128,-1,47
 451 1031 451 1031 505.5 1073.5 c 128,-1,48
 560 1116 560 1116 630 1116 c 0,49,50
 659 1116 659 1116 674 1114 c 128,-1,51
 689 1112 689 1112 710 1105 c 1,52,-1
 525 189 l 1,53,37
 509 182 509 182 492.5 179 c 128,-1,38
EndSplineSet
EndChar

StartChar: oe
Encoding: 339 339 275
Width: 1126
Flags: W
LayerCount: 2
Fore
SplineSet
534.5 62.5 m 128,-1,1
 554 34 554 34 585 15 c 0,2,3
 648 -23 648 -23 754 -23 c 0,4,5
 808 -23 808 -23 866 -9 c 0,6,7
 923 5 923 5 978 27 c 1,8,-1
 978 194 l 1,9,10
 933 176 933 176 884.5 160 c 128,-1,11
 836 144 836 144 784 144 c 0,12,13
 709 144 709 144 673 202 c 0,14,15
 638 256 638 256 638 349 c 0,16,17
 638 412 638 412 646 445 c 2,18,-1
 647 451 l 1,19,-1
 723 451 l 2,20,21
 845 451 845 451 926 483.5 c 128,-1,22
 1007 516 1007 516 1055.5 565 c 128,-1,23
 1104 614 1104 614 1125 673.5 c 128,-1,24
 1146 733 1146 733 1146 790.5 c 128,-1,25
 1146 848 1146 848 1128.5 894.5 c 128,-1,26
 1111 941 1111 941 1079.5 973 c 128,-1,27
 1048 1005 1048 1005 1004.5 1021.5 c 128,-1,28
 961 1038 961 1038 907 1038 c 0,29,30
 824 1038 824 1038 757 998.5 c 128,-1,31
 690 959 690 959 643 886 c 2,32,-1
 633 871 l 1,33,-1
 630 889 l 1,34,35
 613 966 613 966 565.5 1002 c 128,-1,36
 518 1038 518 1038 439.5 1038 c 128,-1,37
 361 1038 361 1038 297 1002 c 0,38,39
 170 932 170 932 97 736 c 0,40,41
 60 639 60 639 36 517 c 0,42,43
 8 366 8 366 8 267 c 0,44,45
 8 115 8 115 66.5 46 c 128,-1,46
 125 -23 125 -23 246 -23 c 0,47,48
 282 -23 282 -23 318 -11.5 c 128,-1,49
 354 0 354 0 387 20.5 c 128,-1,50
 420 41 420 41 448 70 c 128,-1,51
 476 99 476 99 496 130 c 2,52,-1
 506 147 l 1,53,-1
 509 128 l 2,54,0
 515 91 515 91 534.5 62.5 c 128,-1,1
383 229 m 0,55,56
 334 141 334 141 272 142 c 0,57,58
 228 142 228 142 207 175 c 128,-1,59
 186 208 186 208 186 276 c 0,60,61
 186 359 186 359 216 509 c 0,62,63
 252 695 252 695 303 785 c 0,64,65
 354 874 354 874 416 874 c 0,66,67
 458 874 458 874 480 839.5 c 128,-1,68
 502 805 502 805 502 737 c 0,69,70
 502 694 502 694 493.5 638.5 c 128,-1,71
 485 583 485 583 470 509 c 0,72,73
 434 323 434 323 383 229 c 0,55,56
899.5 629.5 m 128,-1,75
 837 584 837 584 739 584 c 2,76,-1
 672 584 l 1,77,78
 721 785 721 785 807 851 c 0,79,80
 836 874 836 874 871 874 c 0,81,82
 888 874 888 874 904.5 869 c 128,-1,83
 921 864 921 864 934.5 849 c 128,-1,84
 948 834 948 834 955 813.5 c 128,-1,85
 962 793 962 793 962 764 c 0,86,74
 962 675 962 675 899.5 629.5 c 128,-1,75
EndSplineSet
EndChar

StartChar: Scedilla
Encoding: 350 350 286
Width: 1126
Flags: W
LayerCount: 2
Fore
SplineSet
963.5 258 m 128,-1,1
 994 328 994 328 994 412 c 0,2,3
 994 477 994 477 971.5 526 c 128,-1,4
 949 575 949 575 912 612.5 c 128,-1,5
 875 650 875 650 828 679 c 128,-1,6
 781 708 781 708 731.5 732.5 c 128,-1,7
 682 757 682 757 634 779 c 128,-1,8
 586 801 586 801 548 825.5 c 128,-1,9
 510 850 510 850 486 880 c 128,-1,10
 462 910 462 910 462 950 c 0,11,12
 462 985 462 985 478 1016 c 0,13,14
 511 1079 511 1079 615 1105 c 0,15,16
 667 1119 667 1119 739 1119 c 0,17,18
 849 1119 849 1119 972 1089 c 0,19,20
 1004 1082 1004 1082 1030 1073 c 1,21,-1
 1070 1287 l 1,22,23
 971 1315 971 1315 848 1326 c 0,24,25
 805 1329 805 1329 762 1329 c 0,26,27
 615 1329 615 1329 509 1294.5 c 128,-1,28
 403 1260 403 1260 334.5 1202.5 c 128,-1,29
 266 1145 266 1145 233 1071 c 128,-1,30
 200 997 200 997 200 918 c 0,31,32
 200 852 200 852 222 803 c 128,-1,33
 244 754 244 754 281 717 c 128,-1,34
 318 680 318 680 364 652.5 c 128,-1,35
 410 625 410 625 459.5 601.5 c 128,-1,36
 509 578 509 578 557 555.5 c 128,-1,37
 605 533 605 533 643 507.5 c 128,-1,38
 681 482 681 482 704.5 449.5 c 128,-1,39
 728 417 728 417 728 372 c 0,40,41
 728 334 728 334 710.5 299.5 c 128,-1,42
 693 265 693 265 655 238.5 c 128,-1,43
 617 212 617 212 559.5 197 c 128,-1,44
 502 182 502 182 422 182 c 0,45,46
 334 182 334 182 232 202 c 0,47,48
 143 218 143 218 55 250 c 1,49,-1
 11 31 l 1,50,51
 82 10 82 10 158.5 -3.5 c 128,-1,52
 235 -17 235 -17 335 -21 c 1,53,-1
 232 -295 l 1,54,-1
 397 -295 l 1,55,-1
 550 -11 l 1,56,57
 656 6 656 6 738 42.5 c 128,-1,58
 820 79 820 79 876.5 133.5 c 128,-1,0
 933 188 933 188 963.5 258 c 128,-1,1
EndSplineSet
EndChar

StartChar: scedilla
Encoding: 351 351 287
Width: 1126
Flags: W
LayerCount: 2
Fore
SplineSet
680 858 m 128,-1,1
 802 858 802 858 976 814 c 1,2,-1
 976 1010 l 1,3,4
 925 1021 925 1021 856 1030 c 0,5,6
 788 1038 788 1038 688 1038 c 0,7,8
 571 1038 571 1038 481 1014 c 128,-1,9
 391 990 391 990 331 948 c 128,-1,10
 271 906 271 906 239.5 851 c 128,-1,11
 208 796 208 796 208 734 c 0,12,13
 208 625 208 625 276.5 554 c 128,-1,14
 345 483 345 483 483 440 c 0,15,16
 542 422 542 422 579 407 c 128,-1,17
 616 392 616 392 638 376 c 128,-1,18
 660 360 660 360 669 342 c 128,-1,19
 678 324 678 324 678 302 c 0,20,21
 678 241 678 241 621 202 c 0,22,23
 565 160 565 160 446 160 c 0,24,25
 288 160 288 160 86 233 c 1,26,-1
 86 17 l 1,27,28
 201 -13 201 -13 359 -22 c 1,29,-1
 257 -295 l 1,30,-1
 422 -295 l 1,31,-1
 573 -14 l 1,32,33
 736 11 736 11 829 99 c 0,34,35
 875 142 875 142 901 202 c 0,36,37
 926 256 926 256 926 327 c 0,38,39
 926 421 926 421 860 484.5 c 128,-1,40
 794 548 794 548 660 590 c 0,41,42
 543 624 543 624 498 655 c 0,43,44
 473 672 473 672 463.5 691 c 128,-1,45
 454 710 454 710 454 732 c 0,46,47
 454 781 454 781 503 817 c 0,48,0
 558 858 558 858 680 858 c 128,-1,1
EndSplineSet
EndChar

StartChar: Tbar
Encoding: 358 358 294
Width: 1126
Flags: W
LayerCount: 2
Fore
SplineSet
726 730 m 1,0,-1
 801 1110 l 1,1,-1
 1159 1110 l 1,2,-1
 1199 1300 l 1,3,-1
 246 1300 l 1,4,-1
 206 1110 l 1,5,-1
 564 1110 l 1,6,-1
 489 730 l 1,7,-1
 252 730 l 1,8,-1
 214 542 l 1,9,-1
 451 542 l 1,10,-1
 345 8 l 1,11,-1
 582 8 l 1,12,-1
 688 542 l 1,13,-1
 926 542 l 1,14,-1
 964 730 l 1,15,-1
 726 730 l 1,0,-1
EndSplineSet
EndChar

StartChar: tbar
Encoding: 359 359 295
Width: 1126
Flags: W
LayerCount: 2
Fore
SplineSet
462 -1 m 128,-1,1
 532 -23 532 -23 631 -23 c 0,2,3
 743 -23 743 -23 890 13 c 1,4,-1
 890 186 l 1,5,6
 842 176 842 176 789.5 167.5 c 128,-1,7
 737 159 737 159 684.5 159 c 128,-1,8
 632 159 632 159 601 172 c 128,-1,9
 570 185 570 185 554 211 c 0,10,11
 538 238 538 238 538 283 c 128,-1,12
 538 328 538 328 548 377 c 2,13,-1
 559 437 l 1,14,-1
 893 437 l 1,15,-1
 927 614 l 1,16,-1
 593 614 l 1,17,-1
 639 835 l 1,18,-1
 1033 835 l 1,19,-1
 1068 1012 l 1,20,-1
 673 1012 l 1,21,-1
 738 1338 l 1,22,-1
 491 1277 l 1,23,-1
 438 1013 l 1,24,-1
 166 1013 l 1,25,-1
 132 836 l 1,26,-1
 404 836 l 1,27,-1
 358 614 l 1,28,-1
 127 614 l 1,29,-1
 93 437 l 1,30,-1
 324 437 l 1,31,-1
 312 377 l 2,32,33
 298 302 298 302 298 243 c 0,34,35
 298 130 298 130 352 67 c 0,36,0
 392 21 392 21 462 -1 c 128,-1,1
0 1016 m 1024,37,-1
EndSplineSet
EndChar

StartChar: Uogonek
Encoding: 370 370 306
Width: 1126
Flags: W
LayerCount: 2
Fore
SplineSet
638 -387 m 1,0,-1
 638 -255 l 1,1,2
 601 -261 601 -261 574 -261 c 0,3,4
 536 -261 536 -261 521 -249 c 128,-1,5
 506 -237 506 -237 506 -216 c 0,6,7
 506 -183 506 -183 533 -139 c 0,8,9
 564 -88 564 -88 653 1 c 1,10,11
 790 47 790 47 888.5 164.5 c 128,-1,12
 987 282 987 282 1026 475 c 2,13,-1
 1189 1292 l 1,14,-1
 958 1292 l 1,15,-1
 791 456 l 2,16,17
 775 378 775 378 750 323 c 128,-1,18
 725 268 725 268 687.5 232.5 c 128,-1,19
 650 197 650 197 604.5 181 c 128,-1,20
 559 165 559 165 501 165 c 128,-1,21
 443 165 443 165 407 176 c 128,-1,22
 371 187 371 187 347 209 c 128,-1,23
 323 231 323 231 312.5 263.5 c 128,-1,24
 302 296 302 296 302 341 c 128,-1,25
 302 386 302 386 315 449 c 2,26,-1
 483 1292 l 1,27,-1
 250 1292 l 1,28,-1
 84 452 l 2,29,30
 68 377 68 377 68 307.5 c 128,-1,31
 68 238 68 238 88 179 c 0,32,33
 130 57 130 57 264 8 c 0,34,35
 333 -18 333 -18 427 -22 c 2,36,-1
 448 -23 l 1,37,-1
 432 -35 l 2,38,39
 352 -98 352 -98 320 -156 c 0,40,41
 294 -204 294 -204 294 -258 c 0,42,43
 294 -285 294 -285 302.5 -311.5 c 128,-1,44
 311 -338 311 -338 334 -359 c 128,-1,45
 357 -380 357 -380 396.5 -393 c 128,-1,46
 436 -406 436 -406 499 -406 c 0,47,48
 529 -406 529 -406 568 -400.5 c 128,-1,49
 607 -395 607 -395 638 -387 c 1,0,-1
EndSplineSet
EndChar

StartChar: uogonek
Encoding: 371 371 307
Width: 1126
Flags: W
LayerCount: 2
Fore
SplineSet
900 -387 m 1,0,-1
 900 -255 l 1,1,2
 862 -261 862 -261 836 -261 c 0,3,4
 799 -261 799 -261 782.5 -249 c 128,-1,5
 766 -237 766 -237 766 -216 c 0,6,7
 766 -201 766 -201 772 -183 c 0,8,9
 785 -143 785 -143 839 -81 c 0,10,11
 867 -48 867 -48 911 -4 c 1,12,13
 938 290 938 290 956 398 c 0,14,15
 962 435 962 435 968 467 c 2,16,-1
 1074 1001 l 1,17,-1
 846 1001 l 1,18,-1
 761 573 l 2,19,20
 748 504 748 504 712 432 c 128,-1,21
 676 360 676 360 628.5 301.5 c 128,-1,22
 581 243 581 243 527.5 205 c 128,-1,23
 474 167 474 167 426 167 c 0,24,25
 370 167 370 167 348 216 c 0,26,27
 336 243 336 243 336 282 c 0,28,29
 336 312 336 312 343 348 c 2,30,-1
 474 1001 l 1,31,-1
 246 1001 l 1,32,-1
 113 349 l 2,33,34
 101 288 101 288 101 236 c 0,35,36
 101 140 101 140 142 77 c 0,37,38
 173 29 173 29 228 3 c 128,-1,39
 283 -23 283 -23 362 -23 c 0,40,41
 427 -23 427 -23 482.5 -4 c 128,-1,42
 538 15 538 15 583.5 44.5 c 128,-1,43
 629 74 629 74 663.5 110 c 128,-1,44
 698 146 698 146 721 181 c 2,45,-1
 736 203 l 1,46,-1
 726 -11 l 1,47,48
 671 -51 671 -51 638.5 -84.5 c 128,-1,49
 606 -118 606 -118 587.5 -148 c 128,-1,50
 569 -178 569 -178 561.5 -204.5 c 128,-1,51
 554 -231 554 -231 554 -258 c 128,-1,52
 554 -285 554 -285 563 -311.5 c 128,-1,53
 572 -338 572 -338 595 -359 c 128,-1,54
 618 -380 618 -380 657.5 -393 c 128,-1,55
 697 -406 697 -406 760 -406 c 0,56,57
 790 -406 790 -406 829 -400.5 c 128,-1,58
 868 -395 868 -395 900 -387 c 1,0,-1
EndSplineSet
EndChar

StartChar: longs
Encoding: 383 383 319
Width: 1126
Flags: W
LayerCount: 2
Fore
SplineSet
692 1183 m 0,0,1
 760 1254 760 1254 866 1254 c 0,2,3
 931 1254 931 1254 980.5 1229 c 128,-1,4
 1030 1204 1030 1204 1063 1164 c 1,5,-1
 1188 1308 l 1,6,7
 1169 1330 1169 1330 1138.5 1353 c 128,-1,8
 1108 1376 1108 1376 1067.5 1394.5 c 128,-1,9
 1027 1413 1027 1413 977.5 1424.5 c 128,-1,10
 928 1436 928 1436 874 1436 c 0,11,12
 764 1436 764 1436 678.5 1404 c 128,-1,13
 593 1372 593 1372 529.5 1314 c 128,-1,14
 466 1256 466 1256 425 1175 c 0,15,16
 383 1093 383 1093 363 993 c 2,17,-1
 167 -9 l 2,18,19
 150 -97 150 -97 111 -211 c 0,20,21
 77 -309 77 -309 32 -397 c 1,22,-1
 259 -397 l 1,23,24
 308 -300 308 -300 346 -206 c 0,25,26
 384 -110 384 -110 406 -4 c 2,27,-1
 600 984 l 2,28,29
 625 1111 625 1111 692 1183 c 0,0,1
EndSplineSet
EndChar

StartChar: uni0180
Encoding: 384 384 320
Width: 1126
Flags: W
LayerCount: 2
Fore
SplineSet
1011 404 m 128,-1,1
 1052 534 1052 534 1052 689 c 0,2,3
 1052 856 1052 856 977 947 c 128,-1,4
 902 1038 902 1038 758 1038 c 0,5,6
 659 1038 659 1038 571 990 c 0,7,8
 527 966 527 966 491 933 c 128,-1,9
 455 900 455 900 428 858 c 2,10,-1
 394 803 l 1,11,-1
 487 1074 l 1,12,-1
 496 1123 l 1,13,-1
 736 1123 l 1,14,-1
 767 1282 l 1,15,-1
 528 1282 l 1,16,-1
 554 1413 l 1,17,-1
 325 1413 l 1,18,-1
 299 1282 l 1,19,-1
 159 1282 l 1,20,-1
 128 1123 l 1,21,-1
 267 1123 l 1,22,-1
 54 41 l 1,23,24
 186 -1 186 -1 332 -14 c 0,25,26
 386 -18 386 -18 451 -18 c 0,27,28
 593 -18 593 -18 704.5 34.5 c 128,-1,29
 816 87 816 87 893 180.5 c 128,-1,0
 970 274 970 274 1011 404 c 128,-1,1
783 797 m 128,-1,31
 812 752 812 752 812 670 c 0,32,33
 812 628 812 628 806 574 c 0,34,35
 793 458 793 458 744 356 c 0,36,37
 718 302 718 302 679 259.5 c 128,-1,38
 640 217 640 217 585 190.5 c 128,-1,39
 530 164 530 164 457 164 c 0,40,41
 385 164 385 164 317 188 c 1,42,-1
 310 190 l 1,43,-1
 360 435 l 2,44,45
 376 525 376 525 433 621 c 0,46,47
 460 666 460 666 492 706 c 0,48,49
 558 789 558 789 626 824 c 0,50,51
 661 842 661 842 694 842 c 0,52,30
 754 842 754 842 783 797 c 128,-1,31
EndSplineSet
EndChar

StartChar: uni0181
Encoding: 385 385 321
Width: 1126
Flags: W
LayerCount: 2
Fore
SplineSet
87.5 1074 m 128,-1,1
 60 1002 60 1002 60 912 c 0,2,3
 60 881 60 881 63 858 c 1,4,-1
 236 858 l 1,5,6
 234 869 234 869 234 878 c 2,7,-1
 234 899 l 2,8,9
 234 1047 234 1047 326 1103 c 0,10,11
 360 1124 360 1124 411 1127 c 2,12,-1
 420 1128 l 1,13,-1
 196 8 l 1,14,-1
 449 8 l 2,15,16
 578 8 578 8 670.5 30.5 c 128,-1,17
 763 53 763 53 826.5 90.5 c 128,-1,18
 890 128 890 128 928.5 175.5 c 128,-1,19
 967 223 967 223 988 272.5 c 128,-1,20
 1009 322 1009 322 1015.5 370 c 128,-1,21
 1022 418 1022 418 1022 455 c 0,22,23
 1022 536 1022 536 977.5 596 c 128,-1,24
 933 656 933 656 838 681 c 2,25,-1
 813 687 l 1,26,-1
 838 695 l 2,27,28
 892 713 892 713 938.5 744 c 128,-1,29
 985 775 985 775 1018.5 817.5 c 128,-1,30
 1052 860 1052 860 1071 913 c 128,-1,31
 1090 966 1090 966 1090 1023.5 c 128,-1,32
 1090 1081 1090 1081 1071.5 1129.5 c 128,-1,33
 1053 1178 1053 1178 1007 1216 c 128,-1,34
 961 1254 961 1254 882.5 1277 c 128,-1,35
 804 1300 804 1300 684 1300 c 2,36,-1
 453 1300 l 2,37,38
 362 1300 362 1300 289.5 1273 c 128,-1,39
 217 1246 217 1246 166 1196 c 128,-1,0
 115 1146 115 1146 87.5 1074 c 128,-1,1
627 215.5 m 128,-1,41
 573 194 573 194 491 194 c 2,42,-1
 469 194 l 1,43,-1
 460 194 l 1,44,-1
 539 586 l 1,45,-1
 557 586 l 2,46,47
 679 586 679 586 730 541 c 0,48,49
 755 520 755 520 763.5 493.5 c 128,-1,50
 772 467 772 467 772 438 c 0,51,52
 772 394 772 394 759 350 c 128,-1,53
 746 306 746 306 713.5 271.5 c 128,-1,40
 681 237 681 237 627 215.5 c 128,-1,41
834.5 1037 m 128,-1,55
 842 1013 842 1013 842 988 c 0,56,57
 842 946 842 946 830 904.5 c 128,-1,58
 818 863 818 863 790 830.5 c 128,-1,59
 762 798 762 798 716.5 778 c 128,-1,60
 671 758 671 758 605 758 c 2,61,-1
 575 758 l 1,62,-1
 646 1119 l 1,63,-1
 664 1119 l 2,64,65
 765 1119 765 1119 807 1080 c 0,66,54
 827 1061 827 1061 834.5 1037 c 128,-1,55
EndSplineSet
EndChar

StartChar: uni0183
Encoding: 387 387 323
Width: 1126
Flags: W
LayerCount: 2
Fore
SplineSet
1011 404 m 128,-1,1
 1052 534 1052 534 1052 689 c 0,2,3
 1052 857 1052 857 977.5 947.5 c 128,-1,4
 903 1038 903 1038 758 1038 c 0,5,6
 659 1038 659 1038 571 990 c 0,7,8
 527 966 527 966 491 933 c 128,-1,9
 455 900 455 900 428 858 c 2,10,-1
 394 803 l 1,11,-1
 487 1074 l 1,12,-1
 518 1233 l 1,13,-1
 1084 1233 l 1,14,-1
 1119 1413 l 1,15,-1
 325 1413 l 1,16,-1
 54 41 l 1,17,18
 186 -1 186 -1 332 -14 c 0,19,20
 386 -18 386 -18 451 -18 c 0,21,22
 593 -18 593 -18 704.5 34.5 c 128,-1,23
 816 87 816 87 893 180.5 c 128,-1,0
 970 274 970 274 1011 404 c 128,-1,1
627 824 m 0,24,25
 662 842 662 842 694 842 c 0,26,27
 812 842 812 842 812 670 c 0,28,29
 812 629 812 629 806 575 c 0,30,31
 793 458 793 458 744 356 c 0,32,33
 718 302 718 302 679 259.5 c 128,-1,34
 640 217 640 217 585 190.5 c 128,-1,35
 530 164 530 164 457 164 c 0,36,37
 385 164 385 164 317 188 c 1,38,-1
 310 190 l 1,39,-1
 360 435 l 2,40,41
 375 523 375 523 433 621 c 0,42,43
 459 666 459 666 491 706 c 0,44,45
 559 790 559 790 627 824 c 0,24,25
EndSplineSet
EndChar

StartChar: uni0184
Encoding: 388 388 324
Width: 1126
Flags: W
LayerCount: 2
Fore
SplineSet
693 254 m 0,0,1
 615 190 615 190 480 190 c 2,2,-1
 303 189 l 1,3,-1
 385 598 l 1,4,-1
 544 598 l 2,5,6
 665 598 665 598 720 557 c 0,7,8
 774 518 774 518 774 440 c 0,9,10
 774 379 774 379 753 332.5 c 128,-1,11
 732 286 732 286 693 254 c 0,0,1
39 8 m 1,12,-1
 440 8 l 2,13,14
 597 8 597 8 716 47 c 0,15,16
 781 68 781 68 837 101.5 c 128,-1,17
 893 135 893 135 933.5 184.5 c 128,-1,18
 974 234 974 234 998 300.5 c 128,-1,19
 1022 367 1022 367 1022 454 c 0,20,21
 1022 523 1022 523 1000 581.5 c 128,-1,22
 978 640 978 640 928.5 682.5 c 128,-1,23
 879 725 879 725 799.5 749.5 c 128,-1,24
 720 774 720 774 605 774 c 2,25,-1
 420 774 l 1,26,-1
 524 1300 l 1,27,-1
 506 1300 l 2,28,29
 418 1300 418 1300 347 1279 c 128,-1,30
 276 1258 276 1258 227 1226 c 128,-1,31
 178 1194 178 1194 152 1156 c 128,-1,32
 126 1118 126 1118 126 1083 c 128,-1,33
 126 1048 126 1048 152 1020 c 128,-1,34
 178 992 178 992 224 969 c 2,35,-1
 229 966 l 1,36,-1
 39 8 l 1,12,-1
EndSplineSet
EndChar

StartChar: uni0185
Encoding: 389 389 325
Width: 1126
Flags: W
LayerCount: 2
Fore
SplineSet
1011 404 m 128,-1,1
 1052 534 1052 534 1052 689 c 0,2,3
 1052 857 1052 857 977.5 947.5 c 128,-1,4
 903 1038 903 1038 758 1038 c 0,5,6
 659 1038 659 1038 571 990 c 0,7,8
 527 966 527 966 491 933 c 128,-1,9
 455 900 455 900 428 858 c 2,10,-1
 394 803 l 1,11,-1
 487 1074 l 1,12,-1
 555 1417 l 1,13,-1
 537 1417 l 2,14,15
 449 1417 449 1417 378 1396.5 c 128,-1,16
 307 1376 307 1376 258 1343.5 c 128,-1,17
 209 1311 209 1311 183.5 1273 c 128,-1,18
 158 1235 158 1235 158 1200 c 128,-1,19
 158 1165 158 1165 183 1137.5 c 128,-1,20
 208 1110 208 1110 254 1086 c 1,21,-1
 259 1084 l 1,22,-1
 54 41 l 1,23,24
 186 -1 186 -1 332 -14 c 0,25,26
 386 -18 386 -18 451 -18 c 0,27,28
 593 -18 593 -18 704.5 34.5 c 128,-1,29
 816 87 816 87 893 180.5 c 128,-1,0
 970 274 970 274 1011 404 c 128,-1,1
627 824 m 0,30,31
 662 842 662 842 694 842 c 0,32,33
 812 842 812 842 812 670 c 0,34,35
 812 629 812 629 806 575 c 0,36,37
 793 458 793 458 744 356 c 0,38,39
 718 302 718 302 679 259.5 c 128,-1,40
 640 217 640 217 585 190.5 c 128,-1,41
 530 164 530 164 457 164 c 0,42,43
 385 164 385 164 317 188 c 1,44,-1
 310 190 l 1,45,-1
 360 435 l 2,46,47
 375 523 375 523 433 621 c 0,48,49
 459 666 459 666 491 706 c 0,50,51
 559 790 559 790 627 824 c 0,30,31
EndSplineSet
EndChar

StartChar: uni0186
Encoding: 390 390 326
Width: 1126
Flags: W
LayerCount: 2
Fore
SplineSet
59 253 m 1,0,-1
 14 37 l 1,1,2
 165 -23 165 -23 352 -23 c 0,3,4
 464 -23 464 -23 555 1.5 c 128,-1,5
 646 26 646 26 718 68 c 128,-1,6
 790 110 790 110 845.5 167.5 c 128,-1,7
 901 225 901 225 942 291.5 c 128,-1,8
 983 358 983 358 1011 430.5 c 128,-1,9
 1039 503 1039 503 1056 574 c 0,10,11
 1086 705 1086 705 1086 842 c 0,12,13
 1086 1079 1086 1079 966 1204 c 128,-1,14
 846 1329 846 1329 610 1329 c 0,15,16
 523 1329 523 1329 429.5 1312 c 128,-1,17
 336 1295 336 1295 248 1259 c 1,18,-1
 248 1054 l 1,19,20
 323 1085 323 1085 396.5 1104 c 128,-1,21
 470 1123 470 1123 553 1123 c 0,22,23
 698 1123 698 1123 765 1050 c 128,-1,24
 832 977 832 977 832 825 c 0,25,26
 832 763 832 763 822 691 c 0,27,28
 801 537 801 537 734 414 c 0,29,30
 698 349 698 349 647 298.5 c 128,-1,31
 596 248 596 248 529 218 c 128,-1,32
 462 188 462 188 375 188 c 0,33,34
 299 188 299 188 221.5 202 c 128,-1,35
 144 216 144 216 59 253 c 1,0,-1
EndSplineSet
EndChar

StartChar: uni0187
Encoding: 391 391 327
Width: 1126
Flags: W
LayerCount: 2
Fore
SplineSet
1371 1409 m 1,0,-1
 1407 1569 l 1,1,2
 1345 1587 1345 1587 1283 1587 c 128,-1,3
 1221 1587 1221 1587 1171 1572.5 c 128,-1,4
 1121 1558 1121 1558 1082 1527 c 0,5,6
 1005 1464 1005 1464 968 1324 c 1,7,-1
 967 1317 l 1,8,9
 905 1325 905 1325 831 1325 c 0,10,11
 710 1325 710 1325 614.5 1295.5 c 128,-1,12
 519 1266 519 1266 445.5 1215.5 c 128,-1,13
 372 1165 372 1165 317 1099 c 0,14,15
 213 973 213 973 161 812 c 0,16,17
 113 666 113 666 102 544 c 0,18,19
 98 488 98 488 98 453 c 0,20,21
 98 363 98 363 121.5 278 c 128,-1,22
 145 193 145 193 200.5 127.5 c 128,-1,23
 256 62 256 62 348.5 22 c 128,-1,24
 441 -18 441 -18 580 -18 c 0,25,26
 667 -18 667 -18 751.5 0 c 128,-1,27
 836 18 836 18 926 51 c 1,28,-1
 926 258 l 1,29,30
 856 230 856 230 780 211 c 0,31,32
 694 190 694 190 630.5 190 c 128,-1,33
 567 190 567 190 522 202.5 c 128,-1,34
 477 215 477 215 445.5 237 c 128,-1,35
 414 259 414 259 395 288 c 0,36,37
 360 341 360 341 354 413 c 0,38,39
 350 445 350 445 350 480.5 c 128,-1,40
 350 516 350 516 358.5 579 c 128,-1,41
 367 642 367 642 386.5 713.5 c 128,-1,42
 406 785 406 785 440.5 857.5 c 128,-1,43
 475 930 475 930 527 988 c 128,-1,44
 579 1046 579 1046 652 1083 c 128,-1,45
 725 1120 725 1120 823 1120 c 0,46,47
 902 1120 902 1120 973 1103.5 c 128,-1,48
 1044 1087 1044 1087 1104 1065 c 1,49,-1
 1146 1269 l 2,50,51
 1162 1350 1162 1350 1193 1387 c 0,52,53
 1225 1424 1225 1424 1278 1424 c 0,54,55
 1316 1424 1316 1424 1335.5 1419.5 c 128,-1,56
 1355 1415 1355 1415 1371 1409 c 1,0,-1
EndSplineSet
EndChar

StartChar: uni0188
Encoding: 392 392 328
Width: 1126
Flags: W
LayerCount: 2
Fore
SplineSet
1244 1096 m 1,0,-1
 1277 1256 l 1,1,2
 1225 1268 1225 1268 1169.5 1268 c 128,-1,3
 1114 1268 1114 1268 1065.5 1255 c 128,-1,4
 1017 1242 1017 1242 980 1214 c 0,5,6
 904 1157 904 1157 866 1032 c 1,7,-1
 864 1027 l 1,8,9
 796 1032 796 1032 754 1032 c 0,10,11
 648 1032 648 1032 560.5 1005.5 c 128,-1,12
 473 979 473 979 403.5 932.5 c 128,-1,13
 334 886 334 886 281.5 823 c 128,-1,14
 229 760 229 760 195 686 c 128,-1,15
 161 612 161 612 143.5 531.5 c 128,-1,16
 126 451 126 451 126 371 c 0,17,18
 126 178 126 178 237.5 80 c 128,-1,19
 349 -18 349 -18 569 -18 c 0,20,21
 670 -18 670 -18 804 19 c 0,22,23
 843 30 843 30 880 44 c 1,24,-1
 880 239 l 1,25,26
 818 215 818 215 750.5 199 c 128,-1,27
 683 183 683 183 612 183 c 0,28,29
 500 183 500 183 438 237 c 128,-1,30
 376 291 376 291 376 399 c 0,31,32
 376 438 376 438 383 486 c 0,33,34
 399 589 399 589 453 676 c 0,35,36
 481 722 481 722 522.5 757 c 128,-1,37
 564 792 564 792 619 813.5 c 128,-1,38
 674 835 674 835 743 835 c 128,-1,39
 812 835 812 835 879 817.5 c 128,-1,40
 946 800 946 800 1001 774 c 1,41,-1
 1036 950 l 2,42,43
 1051 1032 1051 1032 1083 1070 c 0,44,45
 1100 1089 1100 1089 1121 1097 c 128,-1,46
 1142 1105 1142 1105 1170 1105 c 128,-1,47
 1198 1105 1198 1105 1214 1102 c 128,-1,48
 1230 1099 1230 1099 1244 1096 c 1,0,-1
EndSplineSet
EndChar

StartChar: uni018A
Encoding: 394 394 330
Width: 1126
Flags: W
LayerCount: 2
Fore
SplineSet
87.5 1074 m 128,-1,1
 60 1002 60 1002 60 912 c 0,2,3
 60 881 60 881 63 858 c 1,4,-1
 236 858 l 1,5,6
 234 869 234 869 234 878 c 2,7,-1
 234 899 l 2,8,9
 234 1047 234 1047 325 1103 c 0,10,11
 359 1124 359 1124 410 1127 c 2,12,-1
 419 1128 l 1,13,-1
 195 8 l 1,14,-1
 400 8 l 2,15,16
 525 8 525 8 622.5 35 c 128,-1,17
 720 62 720 62 794 108 c 128,-1,18
 868 154 868 154 921 214.5 c 128,-1,19
 974 275 974 275 1010.5 343.5 c 128,-1,20
 1047 412 1047 412 1069 483 c 0,21,22
 1110 619 1110 619 1118 747 c 0,23,24
 1122 805 1122 805 1122 846 c 0,25,26
 1122 955 1122 955 1091 1039 c 0,27,28
 1028 1210 1028 1210 844 1269 c 0,29,30
 751 1300 751 1300 628 1300 c 2,31,-1
 453 1300 l 2,32,33
 362 1300 362 1300 289.5 1273 c 128,-1,34
 217 1246 217 1246 166 1196 c 128,-1,0
 115 1146 115 1146 87.5 1074 c 128,-1,1
651 1109 m 2,35,36
 712 1109 712 1109 754 1090 c 0,37,38
 838 1054 838 1054 861 953 c 0,39,40
 872 903 872 903 872 847 c 128,-1,41
 872 791 872 791 865 724 c 0,42,43
 850 581 850 581 794 447 c 0,44,45
 765 377 765 377 720.5 322 c 128,-1,46
 676 267 676 267 614.5 233 c 128,-1,47
 553 199 553 199 472 199 c 2,48,-1
 463 199 l 1,49,-1
 645 1109 l 1,50,-1
 651 1109 l 2,35,36
EndSplineSet
EndChar

StartChar: uni018B
Encoding: 395 395 331
Width: 1126
Flags: W
LayerCount: 2
Fore
SplineSet
872 1120 m 1,0,-1
 803 774 l 1,1,-1
 621 774 l 2,2,3
 375 774 375 774 226 681 c 0,4,5
 117 612 117 612 74 487 c 0,6,7
 52 423 52 423 52 343 c 0,8,9
 52 182 52 182 163 97 c 0,10,11
 219 54 219 54 304 31 c 128,-1,12
 389 8 389 8 503 8 c 2,13,-1
 879 8 l 1,14,-1
 1137 1300 l 1,15,-1
 323 1300 l 1,16,-1
 287 1120 l 1,17,-1
 872 1120 l 1,0,-1
686 190 m 1,18,-1
 516 190 l 2,19,20
 405 190 405 190 350 236 c 0,21,22
 298 280 298 280 298 360 c 0,23,24
 298 424 298 424 321 469.5 c 128,-1,25
 344 515 344 515 386 544 c 0,26,27
 466 598 466 598 606 598 c 2,28,-1
 768 598 l 1,29,-1
 686 190 l 1,18,-1
EndSplineSet
EndChar

StartChar: uni018C
Encoding: 396 396 332
Width: 1126
Flags: W
LayerCount: 2
Fore
SplineSet
764.5 1029 m 128,-1,1
 724 1034 724 1034 670 1034 c 0,2,3
 528 1034 528 1034 416 981.5 c 128,-1,4
 304 929 304 929 227 835.5 c 128,-1,5
 150 742 150 742 109 611.5 c 128,-1,6
 68 481 68 481 68 327 c 0,7,8
 68 158 68 158 142.5 67.5 c 128,-1,9
 217 -23 217 -23 362 -23 c 0,10,11
 427 -23 427 -23 482.5 -3.5 c 128,-1,12
 538 16 538 16 583.5 45.5 c 128,-1,13
 629 75 629 75 663.5 111.5 c 128,-1,14
 698 148 698 148 721 183 c 2,15,-1
 736 206 l 1,16,-1
 727 0 l 1,17,-1
 911 0 l 1,18,19
 938 294 938 294 956 403 c 0,20,21
 962 440 962 440 968 472 c 2,22,-1
 1154 1413 l 1,23,-1
 360 1413 l 1,24,-1
 324 1233 l 1,25,-1
 890 1233 l 1,26,-1
 846 1017 l 1,27,0
 805 1024 805 1024 764.5 1029 c 128,-1,1
527.5 212 m 128,-1,29
 474 174 474 174 426 174 c 0,30,31
 308 174 308 174 308 346 c 0,32,33
 308 387 308 387 314 441 c 0,34,35
 327 558 327 558 376 660 c 0,36,37
 402 714 402 714 442 756.5 c 128,-1,38
 482 799 482 799 536.5 825.5 c 128,-1,39
 591 852 591 852 664 852 c 0,40,41
 708 852 708 852 744.5 844 c 128,-1,42
 781 836 781 836 810 826 c 1,43,-1
 761 581 l 2,44,45
 748 512 748 512 712 440 c 128,-1,46
 676 368 676 368 628.5 309 c 128,-1,28
 581 250 581 250 527.5 212 c 128,-1,29
EndSplineSet
EndChar

StartChar: uni018D
Encoding: 397 397 333
Width: 1126
Flags: W
LayerCount: 2
Fore
SplineSet
126 196 m 1,0,-1
 126 9 l 1,1,2
 261 -23 261 -23 411 -23 c 0,3,4
 507 -23 507 -23 576 -2 c 0,5,6
 710 40 710 40 752 148 c 0,7,8
 772 201 772 201 772 266 c 0,9,10
 772 316 772 316 754.5 355.5 c 128,-1,11
 737 395 737 395 709 423 c 2,12,-1
 701 432 l 1,13,-1
 711 436 l 2,14,15
 913 517 913 517 1018 664 c 0,16,17
 1130 820 1130 820 1130 1040 c 0,18,19
 1130 1133 1130 1133 1101 1205.5 c 128,-1,20
 1072 1278 1072 1278 1016.5 1329 c 128,-1,21
 961 1380 961 1380 882 1407 c 128,-1,22
 803 1434 803 1434 704 1434 c 0,23,24
 584 1434 584 1434 484 1390.5 c 128,-1,25
 384 1347 384 1347 311.5 1270 c 128,-1,26
 239 1193 239 1193 200 1087 c 0,27,28
 160 980 160 980 160 852 c 0,29,30
 160 756 160 756 199 660.5 c 128,-1,31
 238 565 238 565 335 467 c 2,32,-1
 467 336 l 2,33,34
 483 321 483 321 495 309 c 0,35,36
 519 284 519 284 527 264 c 0,37,38
 532 252 532 252 532 236 c 0,39,40
 532 210 532 210 519 195 c 0,41,42
 496 166 496 166 444 160 c 0,43,44
 420 157 420 157 396.5 157 c 128,-1,45
 373 157 373 157 340 160 c 0,46,47
 235 168 235 168 126 196 c 1,0,-1
578 564 m 1,48,-1
 504 633 l 2,49,50
 452 682 452 682 425 740 c 128,-1,51
 398 798 398 798 398 870.5 c 128,-1,52
 398 943 398 943 417 1008 c 128,-1,53
 436 1073 436 1073 474.5 1124 c 128,-1,54
 513 1175 513 1175 569.5 1206.5 c 128,-1,55
 626 1238 626 1238 700 1238 c 0,56,57
 747 1238 747 1238 783 1222.5 c 128,-1,58
 819 1207 819 1207 843 1178 c 0,59,60
 892 1121 892 1121 892 1026 c 0,61,62
 892 942 892 942 869 866.5 c 128,-1,63
 846 791 846 791 805.5 730 c 128,-1,64
 765 669 765 669 707.5 626.5 c 128,-1,65
 650 584 650 584 578 564 c 1,48,-1
EndSplineSet
EndChar

StartChar: uni018E
Encoding: 398 398 334
Width: 1126
Flags: W
LayerCount: 2
Fore
SplineSet
283 1106 m 1,0,-1
 820 1106 l 1,1,-1
 752 766 l 1,2,-1
 240 766 l 1,3,-1
 202 578 l 1,4,-1
 714 578 l 1,5,-1
 638 200 l 1,6,-1
 101 200 l 1,7,-1
 63 8 l 1,8,-1
 835 8 l 1,9,-1
 1093 1300 l 1,10,-1
 321 1300 l 1,11,-1
 283 1106 l 1,0,-1
EndSplineSet
EndChar

StartChar: uni018F
Encoding: 399 399 335
Width: 1126
Flags: W
LayerCount: 2
Fore
SplineSet
1081 675 m 1,0,-1
 1081 676 l 1,1,2
 1094 755 1094 755 1094 842 c 0,3,4
 1094 961 1094 961 1062 1052 c 0,5,6
 996 1232 996 1232 809 1294 c 0,7,8
 716 1325 716 1325 595 1325 c 128,-1,9
 474 1325 474 1325 372.5 1305 c 128,-1,10
 271 1285 271 1285 179 1250 c 1,11,-1
 178 1038 l 1,12,13
 313 1093 313 1093 441 1110 c 0,14,15
 496 1117 496 1117 557 1117 c 0,16,17
 699 1117 699 1117 772.5 1051.5 c 128,-1,18
 846 986 846 986 846 851 c 0,19,20
 846 802 846 802 835 739 c 1,21,-1
 565 739 l 2,22,23
 422 739 422 739 313 710 c 0,24,25
 253 693 253 693 199.5 664.5 c 128,-1,26
 146 636 146 636 106 591.5 c 128,-1,27
 66 547 66 547 42.5 484 c 128,-1,28
 19 421 19 421 20 336 c 0,29,30
 20 242 20 242 54.5 175 c 128,-1,31
 89 108 89 108 148 65 c 128,-1,32
 207 22 207 22 287.5 2 c 128,-1,33
 368 -18 368 -18 460 -18 c 0,34,35
 580 -18 580 -18 682 28 c 128,-1,36
 784 74 784 74 863.5 162.5 c 128,-1,37
 943 251 943 251 998.5 380 c 128,-1,38
 1054 509 1054 509 1081 675 c 1,0,-1
572 217 m 0,39,40
 522 192 522 192 464 192 c 0,41,42
 369 192 369 192 318.5 232.5 c 128,-1,43
 268 273 268 273 268 355 c 0,44,45
 268 399 268 399 285 435 c 0,46,47
 318 509 318 509 429 537 c 0,48,49
 485 550 485 550 564 550 c 2,50,-1
 795 550 l 1,51,52
 768 464 768 464 736 400 c 0,53,54
 669 267 669 267 572 217 c 0,39,40
EndSplineSet
EndChar

StartChar: uni0190
Encoding: 400 400 336
Width: 1126
Flags: W
LayerCount: 2
Fore
SplineSet
956.5 1313 m 128,-1,1
 865 1329 865 1329 766 1329 c 0,2,3
 646 1329 646 1329 549.5 1303 c 128,-1,4
 453 1277 453 1277 386 1226 c 128,-1,5
 319 1175 319 1175 282.5 1099.5 c 128,-1,6
 246 1024 246 1024 246 925 c 0,7,8
 246 845 246 845 288 790 c 0,9,10
 324 742 324 742 388 706 c 2,11,-1
 405 696 l 1,12,-1
 386 692 l 2,13,14
 316 677 316 677 259 645 c 128,-1,15
 202 613 202 613 162 565 c 128,-1,16
 122 517 122 517 99 454 c 128,-1,17
 76 391 76 391 76 312 c 128,-1,18
 76 233 76 233 108.5 170.5 c 128,-1,19
 141 108 141 108 202 65 c 128,-1,20
 263 22 263 22 352 -0.5 c 128,-1,21
 441 -23 441 -23 555 -23 c 128,-1,22
 669 -23 669 -23 768 -7.5 c 128,-1,23
 867 8 867 8 968 38 c 1,24,-1
 968 235 l 1,25,26
 855 201 855 201 776 186 c 0,27,28
 673 167 673 167 570 167 c 0,29,30
 445 167 445 167 384 219 c 0,31,32
 355 244 355 244 341.5 277.5 c 128,-1,33
 328 311 328 311 328 348 c 0,34,35
 328 411 328 411 351 456 c 0,36,37
 396 544 396 544 512 571 c 0,38,39
 568 585 568 585 635 585 c 2,40,-1
 941 585 l 1,41,-1
 975 760 l 1,42,-1
 735 760 l 2,43,44
 600 760 600 760 539 805 c 0,45,46
 509 827 509 827 496.5 856.5 c 128,-1,47
 484 886 484 886 484 920 c 0,48,49
 484 977 484 977 505.5 1019.5 c 128,-1,50
 527 1062 527 1062 564.5 1090.5 c 128,-1,51
 602 1119 602 1119 651.5 1132.5 c 128,-1,52
 701 1146 701 1146 752.5 1146 c 128,-1,53
 804 1146 804 1146 845 1142 c 0,54,55
 925 1134 925 1134 1011 1111 c 0,56,57
 1052 1100 1052 1100 1098 1086 c 1,58,-1
 1135 1273 l 1,59,0
 1048 1297 1048 1297 956.5 1313 c 128,-1,1
EndSplineSet
EndChar

StartChar: uni0191
Encoding: 401 401 337
Width: 1126
Flags: W
LayerCount: 2
Fore
SplineSet
-31 -217 m 0,0,1
 -59 -226 -59 -226 -94 -226 c 0,2,3
 -163 -226 -163 -226 -216 -214 c 1,4,-1
 -216 -405 l 1,5,6
 -157 -420 -157 -420 -87 -420 c 0,7,8
 1 -420 1 -420 67.5 -398.5 c 128,-1,9
 134 -377 134 -377 183.5 -330 c 128,-1,10
 233 -283 233 -283 266.5 -207.5 c 128,-1,11
 300 -132 300 -132 321 -25 c 2,12,-1
 432 535 l 1,13,-1
 926 535 l 1,14,-1
 964 722 l 1,15,-1
 470 722 l 1,16,-1
 546 1098 l 1,17,-1
 1067 1098 l 1,18,-1
 1107 1292 l 1,19,-1
 350 1292 l 1,20,-1
 92 1 l 2,21,22
 78 -68 78 -68 61 -112 c 0,23,24
 29 -197 29 -197 -31 -217 c 0,0,1
EndSplineSet
EndChar

StartChar: florin
Encoding: 402 402 338
Width: 1126
Flags: W
LayerCount: 2
Fore
SplineSet
942 1236 m 0,0,1
 980 1250 980 1250 1026 1250 c 0,2,3
 1098 1250 1098 1250 1174 1233 c 1,4,-1
 1210 1417 l 1,5,6
 1173 1423 1173 1423 1126 1427.5 c 128,-1,7
 1079 1432 1079 1432 1040 1432 c 0,8,9
 950 1432 950 1432 875.5 1411 c 128,-1,10
 801 1390 801 1390 741.5 1342 c 128,-1,11
 682 1294 682 1294 635 1217 c 128,-1,12
 588 1140 588 1140 554 1029 c 2,13,-1
 485 804 l 1,14,-1
 194 804 l 1,15,-1
 159 625 l 1,16,-1
 428 625 l 1,17,-1
 290 189 l 2,18,19
 249 63 249 63 191 4.5 c 128,-1,20
 133 -54 133 -54 43 -54 c 0,21,22
 11 -54 11 -54 -27 -50 c 128,-1,23
 -65 -46 -65 -46 -94 -40 c 1,24,-1
 -128 -219 l 1,25,26
 -77 -230 -77 -230 -9 -235 c 0,27,28
 13 -236 13 -236 31 -236 c 0,29,30
 121 -236 121 -236 194 -217.5 c 128,-1,31
 267 -199 267 -199 325 -154 c 128,-1,32
 383 -109 383 -109 429 -35 c 0,33,34
 474 41 474 41 509 153 c 2,35,-1
 659 625 l 1,36,-1
 1002 625 l 1,37,-1
 1038 803 l 1,38,-1
 713 803 l 1,39,-1
 781 1018 l 2,40,41
 800 1077 800 1077 823 1121 c 0,42,43
 870 1209 870 1209 942 1236 c 0,0,1
EndSplineSet
EndChar

StartChar: uni0193
Encoding: 403 403 339
Width: 1126
Flags: W
LayerCount: 2
Fore
SplineSet
1398 1409 m 1,0,-1
 1434 1569 l 1,1,2
 1372 1587 1372 1587 1310 1587 c 128,-1,3
 1248 1587 1248 1587 1198 1572 c 0,4,5
 1097 1543 1097 1543 1042 1445 c 0,6,7
 1013 1395 1013 1395 993 1316 c 1,8,9
 948 1322 948 1322 911 1325.5 c 128,-1,10
 874 1329 874 1329 836 1329 c 0,11,12
 681 1329 681 1329 564 1286 c 128,-1,13
 447 1243 447 1243 361.5 1172 c 128,-1,14
 276 1101 276 1101 218.5 1010 c 128,-1,15
 161 919 161 919 126 821.5 c 128,-1,16
 91 724 91 724 76.5 629 c 128,-1,17
 62 534 62 534 62 457 c 0,18,19
 62 341 62 341 94.5 252 c 128,-1,20
 127 163 127 163 188.5 102 c 128,-1,21
 250 41 250 41 338 9 c 128,-1,22
 426 -23 426 -23 539.5 -23 c 128,-1,23
 653 -23 653 -23 747 -1.5 c 128,-1,24
 841 20 841 20 935 62 c 1,25,-1
 1074 755 l 1,26,-1
 624 755 l 1,27,-1
 587 567 l 1,28,-1
 808 567 l 1,29,-1
 737 220 l 1,30,31
 701 208 701 208 669 202 c 128,-1,32
 637 196 637 196 590 196 c 0,33,34
 371 196 371 196 321 355 c 0,35,36
 306 406 306 406 306 471 c 128,-1,37
 306 536 306 536 317.5 608.5 c 128,-1,38
 329 681 329 681 354 753.5 c 128,-1,39
 379 826 379 826 418.5 892.5 c 128,-1,40
 458 959 458 959 514.5 1011 c 128,-1,41
 571 1063 571 1063 645 1093.5 c 128,-1,42
 719 1124 719 1124 811 1124 c 128,-1,43
 903 1124 903 1124 984.5 1104 c 128,-1,44
 1066 1084 1066 1084 1129 1060 c 1,45,-1
 1175 1279 l 2,46,47
 1191 1357 1191 1357 1222.5 1390.5 c 128,-1,48
 1254 1424 1254 1424 1305 1424 c 0,49,50
 1343 1424 1343 1424 1362.5 1419.5 c 128,-1,51
 1382 1415 1382 1415 1398 1409 c 1,0,-1
EndSplineSet
EndChar

StartChar: uni0194
Encoding: 404 404 340
Width: 1126
Flags: W
LayerCount: 2
Fore
SplineSet
414 526 m 1,0,-1
 24 8 l 1,1,-1
 892 8 l 1,2,-1
 711 526 l 1,3,-1
 1259 1300 l 1,4,-1
 1001 1300 l 1,5,-1
 721 896 l 1,6,-1
 587 686 l 1,7,-1
 535 899 l 1,8,-1
 422 1300 l 1,9,-1
 180 1300 l 1,10,-1
 414 526 l 1,0,-1
598 178 m 1,11,-1
 401 178 l 1,12,-1
 540 378 l 1,13,-1
 598 178 l 1,11,-1
EndSplineSet
EndChar

StartChar: uni0195
Encoding: 405 405 341
Width: 1126
Flags: W
LayerCount: 2
Fore
SplineSet
446 300 m 2,0,1
 436 248 436 248 436 202 c 0,2,3
 436 117 436 117 473 65 c 0,4,5
 533 -20 533 -20 684 -20 c 0,6,7
 756 -20 756 -20 807 -1 c 128,-1,8
 858 18 858 18 893.5 56 c 128,-1,9
 929 94 929 94 952.5 151.5 c 128,-1,10
 976 209 976 209 991 285 c 2,11,-1
 1134 1016 l 1,12,-1
 938 1016 l 1,13,-1
 795 291 l 2,14,15
 783 226 783 226 760.5 193 c 128,-1,16
 738 160 738 160 694.5 160 c 128,-1,17
 651 160 651 160 638 196 c 0,18,19
 632 211 632 211 632 235 c 128,-1,20
 632 259 632 259 640 295 c 2,21,-1
 725 719 l 2,22,23
 737 779 737 779 737 827 c 0,24,25
 737 904 737 904 708 953 c 0,26,27
 664 1027 664 1027 558 1027 c 0,28,29
 507 1027 507 1027 463.5 1003 c 128,-1,30
 420 979 420 979 383 937 c 2,31,-1
 363 916 l 1,32,-1
 403 1080 l 1,33,-1
 470 1413 l 1,34,-1
 272 1413 l 1,35,-1
 -7 0 l 1,36,-1
 190 0 l 1,37,-1
 329 701 l 2,38,39
 336 736 336 736 352.5 765 c 128,-1,40
 369 794 369 794 390 814.5 c 128,-1,41
 411 835 411 835 433.5 845.5 c 128,-1,42
 456 856 456 856 476 856 c 128,-1,43
 496 856 496 856 510 848 c 0,44,45
 535 835 535 835 535 785 c 0,46,47
 535 753 535 753 524 698 c 2,48,-1
 446 300 l 2,0,1
EndSplineSet
EndChar

StartChar: uni0196
Encoding: 406 406 342
Width: 1126
Flags: W
LayerCount: 2
Fore
SplineSet
375 368 m 2,0,1
 364 301 364 301 364 259 c 0,2,3
 364 127 364 127 442.5 52.5 c 128,-1,4
 521 -22 521 -22 674 -22 c 0,5,6
 736 -22 736 -22 786 -14 c 128,-1,7
 836 -6 836 -6 878 5 c 1,8,-1
 878 197 l 1,9,10
 853 191 853 191 817 185.5 c 128,-1,11
 781 180 781 180 732 180 c 0,12,13
 661 180 661 180 632.5 213.5 c 128,-1,14
 604 247 604 247 604 307 c 0,15,16
 604 352 604 352 616 411 c 2,17,-1
 813 1413 l 1,18,-1
 582 1413 l 1,19,-1
 375 368 l 2,0,1
EndSplineSet
EndChar

StartChar: uni0197
Encoding: 407 407 343
Width: 1126
Flags: W
LayerCount: 2
Fore
SplineSet
567 1105 m 1,0,-1
 496 761 l 1,1,-1
 250 761 l 1,2,-1
 214 584 l 1,3,-1
 460 584 l 1,4,-1
 382 202 l 1,5,-1
 92 202 l 1,6,-1
 56 15 l 1,7,-1
 868 15 l 1,8,-1
 904 202 l 1,9,-1
 617 202 l 1,10,-1
 695 584 l 1,11,-1
 945 584 l 1,12,-1
 981 761 l 1,13,-1
 731 761 l 1,14,-1
 801 1105 l 1,15,-1
 1090 1105 l 1,16,-1
 1128 1292 l 1,17,-1
 315 1292 l 1,18,-1
 277 1105 l 1,19,-1
 567 1105 l 1,0,-1
EndSplineSet
EndChar

StartChar: uni0198
Encoding: 408 408 344
Width: 1126
Flags: W
LayerCount: 2
Fore
SplineSet
1183 1111 m 1,0,-1
 1223 1305 l 1,1,2
 1165 1320 1165 1320 1108 1320 c 128,-1,3
 1051 1320 1051 1320 1006.5 1306.5 c 128,-1,4
 962 1293 962 1293 919.5 1264 c 128,-1,5
 877 1235 877 1235 832 1188.5 c 128,-1,6
 787 1142 787 1142 731 1078 c 2,7,-1
 409 704 l 1,8,-1
 530 1307 l 1,9,-1
 293 1307 l 1,10,-1
 34 15 l 1,11,-1
 270 15 l 1,12,-1
 400 666 l 1,13,-1
 675 15 l 1,14,-1
 967 15 l 1,15,-1
 646 683 l 1,16,-1
 942 1009 l 2,17,18
 970 1039 970 1039 991.5 1059.5 c 128,-1,19
 1013 1080 1013 1080 1033.5 1093.5 c 128,-1,20
 1054 1107 1054 1107 1074.5 1113 c 128,-1,21
 1095 1119 1095 1119 1121.5 1119 c 128,-1,22
 1148 1119 1148 1119 1183 1111 c 1,0,-1
EndSplineSet
EndChar

StartChar: uni0199
Encoding: 409 409 345
Width: 1126
Flags: W
LayerCount: 2
Fore
SplineSet
607.5 1236 m 128,-1,1
 640 1246 640 1246 681 1246 c 0,2,3
 743 1246 743 1246 822 1228 c 1,4,-1
 857 1407 l 1,5,6
 819 1417 819 1417 775.5 1424.5 c 128,-1,7
 732 1432 732 1432 679 1432 c 0,8,9
 591 1432 591 1432 521 1411 c 128,-1,10
 451 1390 451 1390 398 1341.5 c 128,-1,11
 345 1293 345 1293 307 1214 c 128,-1,12
 269 1135 269 1135 246 1019 c 2,13,-1
 46 15 l 1,14,-1
 275 15 l 1,15,-1
 368 484 l 2,16,17
 376 526 376 526 394.5 570 c 128,-1,18
 413 614 413 614 439 655.5 c 128,-1,19
 465 697 465 697 496 734 c 0,20,21
 561 812 561 812 631 844 c 0,22,23
 667 861 667 861 702 861 c 0,24,25
 762 861 762 861 795 835.5 c 128,-1,26
 828 810 828 810 828 746 c 0,27,28
 828 702 828 702 806 666 c 0,29,30
 762 592 762 592 604 549 c 0,31,32
 528 528 528 528 418 513 c 1,33,-1
 698 15 l 1,34,-1
 975 15 l 1,35,-1
 715 415 l 1,36,-1
 725 418 l 2,37,38
 800 437 800 437 862 468.5 c 128,-1,39
 924 500 924 500 968 545 c 128,-1,40
 1012 590 1012 590 1036 649 c 128,-1,41
 1060 708 1060 708 1060 782 c 0,42,43
 1060 844 1060 844 1038 891.5 c 128,-1,44
 1016 939 1016 939 976 971.5 c 128,-1,45
 936 1004 936 1004 881 1021 c 128,-1,46
 826 1038 826 1038 760 1038 c 0,47,48
 656 1038 656 1038 573.5 992.5 c 128,-1,49
 491 947 491 947 437 870 c 2,50,-1
 410 831 l 1,51,-1
 480 1055 l 1,52,53
 502 1158 502 1158 550 1203 c 0,54,0
 575 1226 575 1226 607.5 1236 c 128,-1,1
EndSplineSet
EndChar

StartChar: uni019A
Encoding: 410 410 346
Width: 1126
Flags: W
LayerCount: 2
Fore
SplineSet
446 1413 m 1,0,-1
 328 821 l 1,1,-1
 112 821 l 1,2,-1
 78 644 l 1,3,-1
 293 644 l 1,4,-1
 234 345 l 2,5,6
 221 277 221 277 221 222 c 0,7,8
 221 123 221 123 264 65 c 0,9,10
 332 -23 332 -23 510 -23 c 0,11,12
 615 -23 615 -23 713 -1 c 128,-1,13
 811 21 811 21 910 61 c 1,14,-1
 910 238 l 1,15,16
 806 199 806 199 724.5 177 c 128,-1,17
 643 155 643 155 569 155 c 0,18,19
 519 155 519 155 491 176 c 0,20,21
 455 202 455 202 455 260 c 0,22,23
 455 282 455 282 460 308 c 2,24,-1
 526 644 l 1,25,-1
 769 644 l 1,26,-1
 803 821 l 1,27,-1
 560 821 l 1,28,-1
 677 1413 l 1,29,-1
 446 1413 l 1,0,-1
EndSplineSet
EndChar

StartChar: uni019B
Encoding: 411 411 347
Width: 1126
Flags: W
LayerCount: 2
Fore
SplineSet
300 1409 m 1,0,-1
 300 1222 l 1,1,2
 364 1238 364 1238 425 1238 c 0,3,4
 446 1238 446 1238 465.5 1236 c 128,-1,5
 485 1234 485 1234 501 1226 c 2,6,-1
 514 1220 l 1,7,-1
 311 1106 l 1,8,-1
 383 965 l 1,9,-1
 578 1074 l 1,10,-1
 583 1041 l 1,11,-1
 -70 0 l 1,12,-1
 191 0 l 1,13,-1
 633 769 l 1,14,-1
 648 592 l 1,15,-1
 692 240 l 2,16,17
 699 186 699 186 712 138 c 128,-1,18
 725 90 725 90 749 56 c 128,-1,19
 773 22 773 22 812 2 c 128,-1,20
 851 -18 851 -18 911 -18 c 0,21,22
 939 -18 939 -18 962 -14 c 128,-1,23
 985 -10 985 -10 1010 -4 c 1,24,-1
 1010 176 l 1,25,26
 1002 176 1002 176 993 176 c 0,27,28
 934 176 934 176 919 289 c 2,29,-1
 811 1061 l 2,30,31
 800 1137 800 1137 785 1190 c 1,32,-1
 983 1300 l 1,33,-1
 908 1441 l 1,34,-1
 721 1336 l 1,35,-1
 717 1341 l 2,36,37
 675 1395 675 1395 618.5 1413.5 c 128,-1,38
 562 1432 562 1432 488 1432 c 0,39,40
 390 1432 390 1432 300 1409 c 1,0,-1
EndSplineSet
EndChar

StartChar: uni019C
Encoding: 412 412 348
Width: 1126
Flags: W
LayerCount: 2
Fore
SplineSet
452 444 m 2,0,1
 437 369 437 369 412.5 315 c 128,-1,2
 388 261 388 261 361.5 226 c 128,-1,3
 335 191 335 191 308.5 174 c 128,-1,4
 282 157 282 157 262 157 c 128,-1,5
 242 157 242 157 230 166 c 0,6,7
 214 177 214 177 213 202 c 0,8,9
 212 209 212 209 212 216 c 0,10,11
 212 254 212 254 225 318 c 2,12,-1
 419 1292 l 1,13,-1
 223 1292 l 1,14,-1
 24 291 l 2,15,16
 11 224 11 224 11 171 c 0,17,18
 11 101 11 101 35 56 c 0,19,20
 76 -20 76 -20 184 -20 c 0,21,22
 251 -20 251 -20 305 22 c 0,23,24
 332 43 332 43 358 73.5 c 128,-1,25
 384 104 384 104 413 145 c 2,26,-1
 424 161 l 1,27,-1
 426 141 l 2,28,29
 435 64 435 64 467 25 c 0,30,31
 504 -20 504 -20 581 -20 c 0,32,33
 616 -20 616 -20 644 -9 c 0,34,35
 698 11 698 11 750 73 c 0,36,37
 775 104 775 104 804 145 c 2,38,-1
 819 166 l 1,39,-1
 811 0 l 1,40,-1
 995 0 l 1,41,42
 1020 308 1020 308 1045 435 c 2,43,-1
 1216 1292 l 1,44,-1
 1020 1292 l 1,45,-1
 850 444 l 2,46,47
 835 369 835 369 810 315 c 128,-1,48
 785 261 785 261 758.5 226 c 128,-1,49
 732 191 732 191 705 174 c 128,-1,50
 678 157 678 157 659 157 c 128,-1,51
 640 157 640 157 627 166 c 0,52,53
 611 177 611 177 610 202 c 0,54,55
 609 209 609 209 609 216 c 0,56,57
 609 254 609 254 622 318 c 2,58,-1
 816 1292 l 1,59,-1
 622 1292 l 1,60,-1
 452 444 l 2,0,1
EndSplineSet
EndChar

StartChar: uni019D
Encoding: 413 413 349
Width: 1126
Flags: W
LayerCount: 2
Fore
SplineSet
-254 -221 m 1,0,-1
 -254 -414 l 1,1,2
 -215 -420 -215 -420 -176 -420 c 0,3,4
 -90 -420 -90 -420 -27 -397.5 c 128,-1,5
 36 -375 36 -375 82 -326 c 128,-1,6
 128 -277 128 -277 159.5 -199 c 128,-1,7
 191 -121 191 -121 214 -9 c 2,8,-1
 409 976 l 1,9,-1
 456 774 l 1,10,-1
 649 0 l 1,11,-1
 926 0 l 1,12,-1
 1185 1292 l 1,13,-1
 975 1292 l 1,14,-1
 902 937 l 1,15,-1
 780 324 l 1,16,-1
 741 513 l 1,17,-1
 543 1292 l 1,18,-1
 266 1292 l 1,19,-1
 7 0 l 2,20,21
 -7 -72 -7 -72 -25.5 -116.5 c 128,-1,22
 -44 -161 -44 -161 -67 -185.5 c 128,-1,23
 -90 -210 -90 -210 -118 -218 c 128,-1,24
 -146 -226 -146 -226 -182.5 -226 c 128,-1,25
 -219 -226 -219 -226 -254 -221 c 1,0,-1
EndSplineSet
EndChar

StartChar: Ohorn
Encoding: 416 416 352
Width: 1126
Flags: W
LayerCount: 2
Fore
SplineSet
1158 1378 m 0,0,1
 1154 1353 1154 1353 1154 1333 c 2,2,-1
 1154 1284 l 2,3,4
 1154 1228 1154 1228 1135.5 1198 c 128,-1,5
 1117 1168 1117 1168 1076 1158 c 2,6,-1
 1070 1157 l 1,7,-1
 1068 1162 l 1,8,9
 1018 1245 1018 1245 929 1287 c 128,-1,10
 840 1329 840 1329 718.5 1329 c 128,-1,11
 597 1329 597 1329 502 1289 c 128,-1,12
 407 1249 407 1249 333 1181.5 c 128,-1,13
 259 1114 259 1114 205.5 1023.5 c 128,-1,14
 152 933 152 933 117 831 c 128,-1,15
 82 729 82 729 65 622.5 c 128,-1,16
 48 516 48 516 48 415 c 0,17,18
 48 199 48 199 155 88 c 128,-1,19
 262 -23 262 -23 465 -23 c 0,20,21
 583 -23 583 -23 678 17 c 128,-1,22
 773 57 773 57 847 125 c 128,-1,23
 921 193 921 193 974.5 283 c 128,-1,24
 1028 373 1028 373 1063 475 c 128,-1,25
 1098 577 1098 577 1115 684 c 128,-1,26
 1132 791 1132 791 1132 886.5 c 128,-1,27
 1132 982 1132 982 1111 1056 c 2,28,-1
 1109 1063 l 1,29,-1
 1116 1065 l 2,30,31
 1162 1078 1162 1078 1204 1104.5 c 128,-1,32
 1246 1131 1246 1131 1277.5 1169 c 128,-1,33
 1309 1207 1309 1207 1328.5 1257 c 128,-1,34
 1348 1307 1348 1307 1348 1370 c 0,35,36
 1348 1407 1348 1407 1322.5 1426 c 128,-1,37
 1297 1445 1297 1445 1251 1445 c 0,38,39
 1209 1445 1209 1445 1184 1423 c 0,40,41
 1165 1407 1165 1407 1158 1378 c 0,0,1
619 218.5 m 128,-1,43
 565 190 565 190 500 190 c 0,44,45
 389 190 389 190 340.5 250.5 c 128,-1,46
 292 311 292 311 292 438 c 0,47,48
 292 517 292 517 302 599 c 0,49,50
 323 764 323 764 388 895 c 0,51,52
 421 961 421 961 464 1010 c 128,-1,53
 507 1059 507 1059 561 1087.5 c 128,-1,54
 615 1116 615 1116 680 1116 c 0,55,56
 790 1116 790 1116 839 1055.5 c 128,-1,57
 888 995 888 995 888 868 c 0,58,59
 888 789 888 789 878 708 c 0,60,61
 856 541 856 541 792 411 c 0,62,63
 759 346 759 346 716 296.5 c 128,-1,42
 673 247 673 247 619 218.5 c 128,-1,43
EndSplineSet
EndChar

StartChar: ohorn
Encoding: 417 417 353
Width: 1126
Flags: W
LayerCount: 2
Fore
SplineSet
1237.5 943 m 128,-1,1
 1256 990 1256 990 1256 1052 c 0,2,3
 1256 1094 1256 1094 1232.5 1115.5 c 128,-1,4
 1209 1137 1209 1137 1161.5 1137 c 128,-1,5
 1114 1137 1114 1137 1088.5 1115.5 c 128,-1,6
 1063 1094 1063 1094 1055 1053 c 0,7,8
 1050 1028 1050 1028 1049.5 1009 c 128,-1,9
 1049 990 1049 990 1045.5 958 c 128,-1,10
 1042 926 1042 926 1029.5 905.5 c 128,-1,11
 1017 885 1017 885 988 876 c 2,12,-1
 983 875 l 1,13,-1
 980 879 l 2,14,15
 927 953 927 953 840.5 995.5 c 128,-1,16
 754 1038 754 1038 629 1038 c 0,17,18
 535 1038 535 1038 454.5 1012.5 c 128,-1,19
 374 987 374 987 307.5 941 c 128,-1,20
 241 895 241 895 190 832.5 c 128,-1,21
 139 770 139 770 104 695 c 128,-1,22
 69 620 69 620 50.5 537.5 c 128,-1,23
 32 455 32 455 32 370 c 0,24,25
 32 273 32 273 61 202 c 0,26,27
 117 52 117 52 268 2 c 0,28,29
 343 -23 343 -23 437 -23 c 128,-1,30
 531 -23 531 -23 612 3 c 128,-1,31
 693 29 693 29 759 75.5 c 128,-1,32
 825 122 825 122 876.5 186 c 128,-1,33
 928 250 928 250 962.5 325.5 c 128,-1,34
 997 401 997 401 1015.5 485 c 128,-1,35
 1034 569 1034 569 1034 655 c 0,36,37
 1034 712 1034 712 1021 772 c 1,38,-1
 1028 774 l 2,39,40
 1073 785 1073 785 1114.5 806.5 c 128,-1,41
 1156 828 1156 828 1187.5 862 c 128,-1,0
 1219 896 1219 896 1237.5 943 c 128,-1,1
741.5 783 m 128,-1,43
 792 732 792 732 792 629 c 0,44,45
 792 584 792 584 784 534 c 0,46,47
 766 426 766 426 714 339 c 0,48,49
 688 293 688 293 652 258 c 128,-1,50
 616 223 616 223 571 201.5 c 128,-1,51
 526 180 526 180 470 180 c 0,52,53
 376 180 376 180 325 232 c 128,-1,54
 274 284 274 284 274 387 c 0,55,56
 274 432 274 432 282 482 c 0,57,58
 300 588 300 588 352 677 c 0,59,60
 378 723 378 723 414.5 757.5 c 128,-1,61
 451 792 451 792 496 813 c 128,-1,62
 541 834 541 834 597 834 c 0,63,42
 691 834 691 834 741.5 783 c 128,-1,43
EndSplineSet
EndChar

